<svg width="36" height="36" viewBox="0 0 36 36" fill="none" xmlns="http://www.w3.org/2000/svg">
<path fill-rule="evenodd" clip-rule="evenodd" d="M27.75 15.5921L26.25 16.4581V28C26.25 28.4142 26.5858 28.75 27 28.75C27.4142 28.75 27.75 28.4142 27.75 28V15.5921ZM26.25 10.6846L27.75 9.81856V9C27.75 8.58579 27.4142 8.25 27 8.25C26.5858 8.25 26.25 8.58579 26.25 9V10.6846ZM21.75 13.2827V9C21.75 8.58579 21.4142 8.25 21 8.25C20.5858 8.25 20.25 8.58579 20.25 9V14.1487L21.75 13.2827ZM20.25 19.9222L21.75 19.0562V22C21.75 22.0808 21.7372 22.1587 21.7135 22.2317C21.3467 25.8921 18.2571 28.75 14.5 28.75C12.3619 28.75 10.4399 27.8245 9.11298 26.3522L10.4491 25.5808C11.4884 26.6125 12.9198 27.25 14.5 27.25C17.6756 27.25 20.25 24.6756 20.25 21.5V19.9222ZM8.75 20.7882V9C8.75 8.58579 8.41421 8.25 8 8.25C7.58579 8.25 7.25 8.58579 7.25 9V21.5V21.5029V21.6542L8.75 20.7882Z" fill="white"/>
<path d="M31.4722 10.5562L4.52778 26.1125" stroke="white" stroke-width="1.5" stroke-linecap="round"/>
</svg>
