<svg width="24" height="24" viewBox="0 0 24 24" fill="none" xmlns="http://www.w3.org/2000/svg">
<g filter="url(#filter0_d_212_48)">
<path fill-rule="evenodd" clip-rule="evenodd" d="M18.9328 7.26537V6.27344H16.2961V8.78768L18.9328 7.26537ZM18.9328 10.7295L16.2961 12.2518V19H18.9328V10.7295ZM14.6016 9.76602V6.27344H11.9473V11.2985L14.6016 9.76602ZM11.913 14.7824L14.6016 13.2301V14.5352C14.6016 15.4551 14.3818 16.2666 13.9424 16.9697C13.5029 17.6729 12.8848 18.2178 12.0879 18.6045C11.291 18.9854 10.3711 19.1758 9.32812 19.1758C8.28516 19.1758 7.36523 18.9854 6.56836 18.6045C6.34248 18.4941 6.13093 18.3707 5.93372 18.2345L8.50471 16.7501C8.7602 16.8204 9.03467 16.8555 9.32812 16.8555C9.84961 16.8555 10.3096 16.7471 10.708 16.5303C11.1064 16.3135 11.4111 16.0146 11.6221 15.6338C11.7684 15.3727 11.8654 15.0889 11.913 14.7824ZM6.70898 14.3228V6.27344H4.07227V14.5352C4.07227 14.9681 4.12028 15.377 4.21632 15.7619L6.70898 14.3228Z" fill="white"/>
</g>
<g filter="url(#filter1_d_212_48)">
<path fill-rule="evenodd" clip-rule="evenodd" d="M1.82703 18.0073L21.423 6.69359L22.173 7.99263L2.57703 19.3063L1.82703 18.0073Z" fill="white"/>
</g>
<defs>
<filter id="filter0_d_212_48" x="3.07227" y="5.27344" width="16.8605" height="14.9023" filterUnits="userSpaceOnUse" color-interpolation-filters="sRGB">
<feFlood flood-opacity="0" result="BackgroundImageFix"/>
<feColorMatrix in="SourceAlpha" type="matrix" values="0 0 0 0 0 0 0 0 0 0 0 0 0 0 0 0 0 0 127 0" result="hardAlpha"/>
<feOffset/>
<feGaussianBlur stdDeviation="0.5"/>
<feComposite in2="hardAlpha" operator="out"/>
<feColorMatrix type="matrix" values="0 0 0 0 0 0 0 0 0 0 0 0 0 0 0 0 0 0 0.5 0"/>
<feBlend mode="normal" in2="BackgroundImageFix" result="effect1_dropShadow_212_48"/>
<feBlend mode="normal" in="SourceGraphic" in2="effect1_dropShadow_212_48" result="shape"/>
</filter>
<filter id="filter1_d_212_48" x="0.827042" y="5.6936" width="22.3459" height="14.6128" filterUnits="userSpaceOnUse" color-interpolation-filters="sRGB">
<feFlood flood-opacity="0" result="BackgroundImageFix"/>
<feColorMatrix in="SourceAlpha" type="matrix" values="0 0 0 0 0 0 0 0 0 0 0 0 0 0 0 0 0 0 127 0" result="hardAlpha"/>
<feOffset/>
<feGaussianBlur stdDeviation="0.5"/>
<feComposite in2="hardAlpha" operator="out"/>
<feColorMatrix type="matrix" values="0 0 0 0 0 0 0 0 0 0 0 0 0 0 0 0 0 0 0.5 0"/>
<feBlend mode="normal" in2="BackgroundImageFix" result="effect1_dropShadow_212_48"/>
<feBlend mode="normal" in="SourceGraphic" in2="effect1_dropShadow_212_48" result="shape"/>
</filter>
</defs>
</svg>
