<svg width="36" height="36" viewBox="0 0 36 36" fill="none" xmlns="http://www.w3.org/2000/svg">
<g clip-path="url(#clip0_212_12)">
<path d="M21.1935 7.05831C21.1935 8.74467 19.7639 10.1115 18 10.1115C16.2361 10.1115 14.8064 8.74467 14.8064 7.05831C14.8064 5.37194 17.9303 1.73767 18 1.77098C18.1555 1.84561 21.1935 5.37194 21.1935 7.05831Z" fill="#FBBF16"/>
<path fill-rule="evenodd" clip-rule="evenodd" d="M16.0208 5.85323C15.7366 6.41125 15.6129 6.82133 15.6129 7.05804C15.6129 8.31859 16.6815 9.34025 18 9.34025C19.3185 9.34025 20.3871 8.31859 20.3871 7.05804C20.3871 6.81846 20.2663 6.41314 19.9902 5.86614C19.7261 5.34313 19.3646 4.77582 18.987 4.24177C18.6381 3.7484 18.2845 3.296 17.9993 2.95054C17.7236 3.28654 17.3832 3.72398 17.0449 4.20173C16.6617 4.74294 16.2917 5.32098 16.0208 5.85323ZM18.5191 2.35484C18.5214 2.35268 18.5211 2.35305 18.5186 2.35533C18.5188 2.35516 18.519 2.355 18.5191 2.35484ZM17.831 1.01626C17.9184 0.998599 18.1292 0.970434 18.3607 1.08109L18.3619 1.08167C18.4717 1.13439 18.5509 1.20447 18.5626 1.21475C18.5631 1.21524 18.5635 1.21559 18.5638 1.2158C18.5923 1.24047 18.6188 1.26578 18.6403 1.28694C18.6844 1.33042 18.735 1.38373 18.7884 1.442C18.8966 1.56005 19.0361 1.72003 19.1949 1.91029C19.5129 2.29122 19.9201 2.80812 20.3232 3.37819C20.7246 3.94584 21.1323 4.58097 21.4427 5.19577C21.741 5.78658 22 6.45443 22 7.05804C22 9.17023 20.2093 10.8823 18 10.8823C15.7907 10.8823 14 9.17023 14 7.05804C14 6.45157 14.2668 5.77497 14.5705 5.17832C14.8874 4.5559 15.3028 3.91125 15.7093 3.33726C16.1174 2.7609 16.5272 2.24073 16.8414 1.86456C16.9981 1.677 17.1349 1.52048 17.2389 1.40819C17.2892 1.35378 17.3403 1.30059 17.3862 1.25731C17.4062 1.23841 17.443 1.20445 17.4877 1.17097C17.5063 1.15703 17.5569 1.11975 17.6276 1.08525C17.6618 1.06853 17.7336 1.03594 17.831 1.01626Z" fill="#0A0C15"/>
<path fill-rule="evenodd" clip-rule="evenodd" d="M18 7.92188C18.4454 7.92188 18.8065 8.26707 18.8065 8.69289V12.9489C18.8065 13.3747 18.4454 13.7199 18 13.7199C17.5546 13.7199 17.1936 13.3747 17.1936 12.9489V8.69289C17.1936 8.26707 17.5546 7.92188 18 7.92188Z" fill="#0A0C15"/>
<path d="M14.8065 33.0936C14.8065 33.7208 15.3381 34.2291 15.9942 34.2291H20.0052C20.6613 34.2291 21.1929 33.7208 21.1929 33.0936V31.966L14.8058 28.312V33.0936H14.8065Z" fill="#EB2F92"/>
<path fill-rule="evenodd" clip-rule="evenodd" d="M14.4081 27.6411C14.6607 27.5042 14.9708 27.5076 15.2199 27.6502L21.607 31.3042C21.8504 31.4434 21.9994 31.6946 21.9994 31.9658V33.0933C21.9994 34.1464 21.1067 34.9999 20.0052 34.9999H15.9942C14.9068 34.9999 14.0229 34.1681 14.0005 33.1336C13.9997 33.1203 13.9994 33.1068 13.9994 33.0933V28.3118C13.9994 28.0342 14.1555 27.778 14.4081 27.6411ZM15.6123 33.0622C15.6127 33.0725 15.6129 33.0829 15.6129 33.0933C15.6129 33.2948 15.7835 33.4579 15.9942 33.4579H20.0052C20.2159 33.4579 20.3865 33.2948 20.3865 33.0933V32.4029L15.6123 29.6717V33.0622Z" fill="#0A0C15"/>
<path d="M14.8064 28.3118L21.1935 31.9658V27.1232L14.8064 23.4692V28.3118Z" fill="#EDEFF0"/>
<path fill-rule="evenodd" clip-rule="evenodd" d="M14.4087 22.7985C14.6613 22.6616 14.9714 22.6651 15.2205 22.8076L21.6076 26.4616C21.851 26.6009 22 26.8521 22 27.1233V31.9659C22 32.2435 21.8439 32.4997 21.5913 32.6366C21.3387 32.7735 21.0286 32.77 20.7795 32.6275L14.3924 28.9735C14.149 28.8342 14 28.583 14 28.3119V23.4693C14 23.1916 14.1561 22.9355 14.4087 22.7985ZM15.6129 24.8291V27.8747L20.3871 30.606V27.5604L15.6129 24.8291Z" fill="#0A0C15"/>
<path d="M21.1935 17.4382L14.8064 13.7842V18.6268L21.1935 22.2808V17.4382Z" fill="#EDEFF0"/>
<path fill-rule="evenodd" clip-rule="evenodd" d="M14.4087 13.1135C14.6613 12.9766 14.9714 12.98 15.2205 13.1226L21.6076 16.7766C21.851 16.9158 22 17.167 22 17.4382V22.2808C22 22.5584 21.8439 22.8146 21.5913 22.9515C21.3387 23.0884 21.0286 23.085 20.7795 22.9424L14.3924 19.2884C14.149 19.1492 14 18.898 14 18.6268V13.7842C14 13.5066 14.1561 13.2504 14.4087 13.1135ZM15.6129 15.1441V18.1897L20.3871 20.9209V17.8754L15.6129 15.1441Z" fill="#0A0C15"/>
<path d="M14.8064 18.6267V23.4693L21.1935 27.1233V22.2807L14.8064 18.6267Z" fill="#EB2F92"/>
<path fill-rule="evenodd" clip-rule="evenodd" d="M14.4087 17.956C14.6613 17.8191 14.9714 17.8226 15.2205 17.9651L21.6076 21.6191C21.851 21.7584 22 22.0096 22 22.2807V27.1233C22 27.401 21.8439 27.6571 21.5913 27.7941C21.3387 27.931 21.0286 27.9275 20.7795 27.785L14.3924 24.1309C14.149 23.9917 14 23.7405 14 23.4693V18.6267C14 18.3491 14.1561 18.0929 14.4087 17.956ZM15.6129 19.9866V23.0322L20.3871 25.7635V22.7179L15.6129 19.9866Z" fill="#0A0C15"/>
<path d="M21.1935 12.6663C21.1935 12.039 20.6619 11.5308 20.0058 11.5308H15.9942C15.3381 11.5308 14.8064 12.039 14.8064 12.6663V13.784L21.1935 17.438V12.6663Z" fill="#ED2C92"/>
<path fill-rule="evenodd" clip-rule="evenodd" d="M14 12.6663C14 11.6132 14.8927 10.7598 15.9942 10.7598H20.0058C21.1073 10.7598 22 11.6132 22 12.6663V17.438C22 17.7156 21.8439 17.9718 21.5913 18.1087C21.3387 18.2456 21.0286 18.2422 20.7795 18.0996L14.3924 14.4456C14.149 14.3064 14 14.0552 14 13.784V12.6663ZM15.9942 12.3018C15.7835 12.3018 15.6129 12.4649 15.6129 12.6663V13.3469L20.3871 16.0781V12.6663C20.3871 12.4649 20.2165 12.3018 20.0058 12.3018H15.9942Z" fill="#0A0C15"/>
</g>
<defs>
<clipPath id="clip0_212_12">
<rect width="8" height="34" fill="white" transform="translate(14 1)"/>
</clipPath>
</defs>
</svg>
