<svg width="36" height="36" viewBox="0 0 36 36" fill="none" xmlns="http://www.w3.org/2000/svg">
<g clip-path="url(#clip0_212_38)">
<path d="M21.149 7.08088C21.149 8.77336 19.7802 10.1452 18.0914 10.1452C16.4027 10.1452 15.0338 8.77336 15.0338 7.08088C15.0338 5.3884 18.0247 1.74097 18.0914 1.7744C18.2403 1.8493 21.149 5.3884 21.149 7.08088Z" fill="#FFC216"/>
<path d="M18.0914 10.9189C15.9795 10.9189 14.2617 9.19732 14.2617 7.08079C14.2617 6.21165 14.7818 5.01317 15.851 3.41727C16.3026 2.74374 17.3354 1.33107 17.6782 1.11874C17.9111 0.9745 18.1946 0.960881 18.4367 1.08221C18.5584 1.1435 18.6634 1.19612 19.2354 1.91422C19.4466 2.17979 19.8685 2.72393 20.3157 3.38755C21.3961 4.98903 21.9211 6.19741 21.9211 7.08079C21.9211 9.19732 20.2033 10.9189 18.0914 10.9189ZM18.092 2.9505C17.2563 4.02579 15.806 6.1547 15.806 7.08079C15.806 8.34365 16.8313 9.37127 18.0914 9.37127C19.3515 9.37127 20.3769 8.34365 20.3769 7.08079C20.3769 6.13117 18.9327 4.02146 18.092 2.9505Z" fill="#0A0C15"/>
<path d="M18.0914 13.7666C17.6652 13.7666 17.3193 13.4199 17.3193 12.9928V8.72132C17.3193 8.29418 17.6652 7.94751 18.0914 7.94751C18.5176 7.94751 18.8635 8.29418 18.8635 8.72132V12.9928C18.8635 13.4199 18.5176 13.7666 18.0914 13.7666Z" fill="#0A0C15"/>
<path d="M28.1339 13.9194C25.3364 11.1157 20.8006 11.1157 18.0025 13.9194L18 13.9219L17.9975 13.9194C15.2 11.1157 10.6643 11.1157 7.8661 13.9194C5.06856 16.7231 5.06856 21.2687 7.8661 24.073L17.9975 34.2267L18 34.2242L18.0025 34.2267L28.1339 24.073C30.9314 21.2694 30.9314 16.7237 28.1339 13.9194Z" fill="#FFC216"/>
<path d="M18.0025 34.9999C17.9531 34.9999 17.9036 34.995 17.8555 34.9857C17.7072 34.9584 17.5664 34.8879 17.4521 34.7733L7.32068 24.6197C4.22664 21.5189 4.22664 16.473 7.32068 13.3722C8.81982 11.8698 10.8125 11.0427 12.9324 11.0427C14.8053 11.0427 16.5793 11.6884 18.0006 12.8751C21.1175 10.2813 25.7613 10.4478 28.6793 13.3722C31.7734 16.473 31.7734 21.5189 28.6793 24.6197L18.5479 34.7733C18.3972 34.9244 18.1995 34.9999 18.0019 34.9999H18.0025ZM12.9324 12.5903C11.2251 12.5903 9.62035 13.2564 8.41276 14.4667C7.20517 15.6769 6.54053 17.2852 6.54053 18.9963C6.54053 20.7073 7.20517 22.3156 8.41276 23.5258L18 33.1341L27.5872 23.5258C28.7942 22.3162 29.4595 20.7073 29.4595 18.9963C29.4595 17.2852 28.7948 15.6769 27.5872 14.4667C26.3796 13.2564 24.7749 12.5903 23.0676 12.5903C21.3603 12.5903 19.7555 13.2564 18.5479 14.4667C18.2465 14.7688 17.7554 14.7713 17.4533 14.4692C16.2439 13.2571 14.6385 12.5903 12.9312 12.5903H12.9324Z" fill="black"/>
</g>
<defs>
<clipPath id="clip0_212_38">
<rect width="26" height="34" fill="white" transform="translate(5 1)"/>
</clipPath>
</defs>
</svg>
