<svg width="36" height="36" viewBox="0 0 36 36" fill="none" xmlns="http://www.w3.org/2000/svg">
<path fill-rule="evenodd" clip-rule="evenodd" d="M11 14C8.79086 14 7 15.7909 7 18V28C7 30.2091 8.79086 32 11 32H25C27.2091 32 29 30.2091 29 28V18C29 15.7909 27.2091 14 25 14H11ZM18 26C19.6569 26 21 24.6569 21 23C21 21.3431 19.6569 20 18 20C16.3431 20 15 21.3431 15 23C15 24.6569 16.3431 26 18 26Z" fill="#EEEEEE"/>
<path fill-rule="evenodd" clip-rule="evenodd" d="M22 15V12C22 9.79086 20.2091 8 18 8C15.7909 8 14 9.79086 14 12V15H11V12C11 8.13401 14.134 5 18 5C21.866 5 25 8.13401 25 12V15H22Z" fill="#EEEEEE"/>
</svg>
