<svg width="240" height="240" viewBox="0 0 240 240" fill="none" xmlns="http://www.w3.org/2000/svg">
<rect width="240" height="240" fill="white"/>
<g clip-path="url(#clip0_542_24)">
<path d="M139.161 84.5731C139.161 94.7763 130.583 103.046 120 103.046C109.417 103.046 100.839 94.7763 100.839 84.5731C100.839 74.3699 119.582 52.381 120 52.5826C120.933 53.0341 139.161 74.3699 139.161 84.5731Z" fill="#FBBF16"/>
<path d="M99.4334 188.112C99.4334 190.405 102.857 192.263 107.083 192.263H132.918C137.144 192.263 140.568 190.405 140.568 188.112V183.99L99.4292 170.632L99.4334 188.112Z" fill="#FBBF16"/>
<path d="M99.4292 170.632L140.568 183.99L140.572 166.287L99.4334 152.929L99.4292 170.632Z" fill="#FBBF16"/>
<path d="M140.572 130.881L99.4334 117.523V135.226L140.572 148.584V130.881Z" fill="#FBBF16"/>
<path d="M99.4334 135.226V152.929L140.572 166.287V148.584L99.4334 135.226Z" fill="#FBBF16"/>
<path d="M140.572 113.437C140.572 111.144 137.148 109.286 132.922 109.286H107.083C102.857 109.286 99.4334 111.144 99.4334 113.437V117.523L140.572 130.881V113.437Z" fill="#FBBF16"/>
</g>
<defs>
<clipPath id="clip0_542_24">
<rect width="144" height="144" fill="white" transform="translate(48 48)"/>
</clipPath>
</defs>
</svg>
