<svg width="36" height="36" viewBox="0 0 36 36" fill="none" xmlns="http://www.w3.org/2000/svg">
<g clip-path="url(#clip0_212_2)">
<path d="M20.8774 7.04886C20.8774 8.73245 19.5128 10.0971 17.8292 10.0971C16.1457 10.0971 14.7811 8.73245 14.7811 7.04886C14.7811 5.36527 17.7627 1.73699 17.8292 1.77025C17.9777 1.84476 20.8774 5.36527 20.8774 7.04886Z" fill="#FFC216"/>
<path d="M17.8292 10.8668C15.7238 10.8668 14.0113 9.15427 14.0113 7.04886C14.0113 6.18428 14.5298 4.99209 15.5958 3.40457C16.0459 2.73458 17.0755 1.32933 17.4173 1.11811C17.6494 0.974634 17.9321 0.961087 18.1735 1.08178C18.2948 1.14213 18.3995 1.19509 18.9697 1.90941C19.1803 2.17359 19.6009 2.71488 20.0467 3.37501C21.1238 4.96808 21.6472 6.17011 21.6472 7.04886C21.6472 9.15427 19.9347 10.8668 17.8292 10.8668ZM17.8299 2.94026C16.9967 4.0099 15.5508 6.12824 15.5508 7.04886C15.5508 8.30508 16.573 9.3273 17.8292 9.3273C19.0855 9.3273 20.1077 8.30508 20.1077 7.04886C20.1077 6.10422 18.668 4.00559 17.8299 2.94026Z" fill="#0A0C15"/>
<path d="M17.8292 13.6996C17.4043 13.6996 17.0595 13.3548 17.0595 12.9299V8.68088C17.0595 8.25598 17.4043 7.91113 17.8292 7.91113C18.2541 7.91113 18.599 8.25598 18.599 8.68088V12.9299C18.599 13.3548 18.2541 13.6996 17.8292 13.6996Z" fill="#0A0C15"/>
<path d="M22.8307 22.7487C23.8881 21.4918 24.4645 19.9185 24.4645 18.257C24.4645 14.4206 21.4076 11.3195 17.5712 11.2677C15.6887 11.2425 13.9091 11.958 12.5703 13.2758C11.8049 14.029 11.2347 14.9299 10.8849 15.9145C10.4982 17.0045 11.2901 18.153 12.4466 18.1721L14.2625 18.2022C14.8808 18.2127 15.4677 17.8906 15.7596 17.3457C16.126 16.6627 16.8895 16.22 17.7313 16.3308C18.6138 16.4472 19.3139 17.1652 19.4057 18.0514C19.5258 19.2078 18.6175 20.1937 17.4844 20.1999V20.2516H16.1586C15.2263 20.2516 14.4701 21.0072 14.4701 21.9395V23.6102C14.4701 24.5425 15.2257 25.2981 16.158 25.2981H17.5238C18.655 25.3264 19.5547 26.3406 19.3989 27.502C19.2807 28.3832 18.5633 29.0803 17.679 29.1726C16.8489 29.2589 16.1069 28.8155 15.7515 28.1387C15.4627 27.5888 14.8814 27.2551 14.2601 27.2581L12.4447 27.268C11.2864 27.2741 10.484 28.4165 10.8597 29.512C11.202 30.512 11.7729 31.4277 12.5439 32.195C13.837 33.4814 15.5446 34.2012 17.3643 34.2283C21.2204 34.2868 24.4257 31.1654 24.4632 27.3092C24.4799 25.6238 23.9016 24.0221 22.8295 22.7474L22.8307 22.7487Z" fill="#FFC216"/>
<path d="M17.4745 34.9999C17.4345 34.9999 17.3945 34.9999 17.3545 34.9987C15.3359 34.9679 13.4355 34.1661 12.0026 32.7412C11.1485 31.8914 10.5191 30.8888 10.133 29.7619C9.8756 29.0107 9.99568 28.1769 10.4545 27.5315C10.9175 26.8794 11.6417 26.5031 12.4416 26.4988L14.257 26.489H14.2712C15.1875 26.489 16.0151 26.9835 16.4345 27.7815C16.6605 28.212 17.1186 28.4577 17.6008 28.4072C18.1304 28.3518 18.5663 27.9287 18.6372 27.4003C18.6821 27.066 18.5861 26.7402 18.3662 26.4834C18.1501 26.2303 17.8397 26.0788 17.5139 26.0684H16.1592C14.8038 26.0684 13.7009 24.9655 13.7009 23.6107V21.9401C13.7009 21.2836 13.9565 20.666 14.4208 20.2017C14.8851 19.7374 15.5021 19.4818 16.1586 19.4818H17.2073C17.2935 19.4486 17.3859 19.4307 17.4801 19.4301C17.8089 19.4282 18.1248 19.2854 18.3465 19.0378C18.5707 18.7878 18.6747 18.4658 18.6402 18.1308C18.5848 17.5999 18.1605 17.164 17.631 17.0938C17.142 17.0291 16.6734 17.2711 16.4382 17.7096C16.012 18.5033 15.1708 18.9867 14.2496 18.9713L12.4336 18.9411C11.6331 18.9276 10.9126 18.5433 10.4569 17.8857C9.99999 17.2268 9.89161 16.4145 10.1607 15.6571C10.5542 14.548 11.1836 13.5622 12.0309 12.7278C13.5199 11.2622 15.4886 10.4696 17.5823 10.4986C19.6415 10.5263 21.5671 11.3447 23.005 12.8029C24.4429 14.2611 25.2348 16.1978 25.2348 18.2576C25.2348 19.8722 24.7305 21.4444 23.8037 22.7492C24.7465 24.0757 25.2508 25.6755 25.2348 27.3184C25.2145 29.3888 24.3807 31.331 22.8874 32.7873C21.4212 34.2172 19.503 35.0005 17.4745 35.0005V34.9999ZM14.2712 28.0285H14.2662L12.4509 28.0383C12.1528 28.0402 11.8825 28.1799 11.7101 28.4232C11.5352 28.6695 11.4915 28.9756 11.59 29.2631C11.8991 30.1647 12.4035 30.9683 13.0888 31.65C14.2373 32.7923 15.7602 33.4352 17.3779 33.4598C19.038 33.4881 20.6133 32.8545 21.8122 31.6851C23.0106 30.5169 23.6787 28.9602 23.6953 27.3031C23.7101 25.8171 23.1934 24.3756 22.242 23.2443C22.0013 22.958 22.0013 22.5399 22.242 22.2535C23.1928 21.1235 23.6953 19.7417 23.6953 18.2576C23.6953 14.8165 21.0012 12.0842 17.562 12.0381C15.887 12.0159 14.305 12.6502 13.1116 13.8251C12.4318 14.4951 11.9268 15.2845 11.6122 16.1725C11.5112 16.457 11.5518 16.7625 11.723 17.0094C11.893 17.2545 12.1621 17.398 12.4607 17.4029L14.2767 17.4331C14.2822 17.4331 14.2872 17.4331 14.2927 17.4331C14.6265 17.4331 14.9356 17.2576 15.0834 16.9823C15.6161 15.9896 16.722 15.4219 17.8342 15.5684C19.0614 15.7304 20.0455 16.7415 20.1736 17.9725C20.253 18.7336 20.0055 19.4972 19.4956 20.0662C19.0571 20.5551 18.4574 20.8674 17.8151 20.9486C17.7135 20.9961 17.602 21.0219 17.4875 21.0219H16.161C15.916 21.0219 15.685 21.1174 15.5114 21.291C15.3377 21.4647 15.2423 21.695 15.2423 21.9407V23.6114C15.2423 24.1175 15.6542 24.5295 16.161 24.5295H17.5263C17.533 24.5295 17.5392 24.5295 17.546 24.5295C18.3114 24.5486 19.038 24.8971 19.5393 25.4846C20.0387 26.0702 20.2666 26.8431 20.165 27.6054C20.0012 28.8296 18.9906 29.8112 17.7621 29.9393C16.6494 30.055 15.5939 29.4891 15.0735 28.4977C14.9239 28.2126 14.6099 28.0291 14.273 28.0291L14.2712 28.0285Z" fill="black"/>
</g>
<defs>
<clipPath id="clip0_212_2">
<rect width="15.2348" height="34" fill="white" transform="translate(10 1)"/>
</clipPath>
</defs>
</svg>
