<svg width="12" height="50" viewBox="0 0 12 50" fill="none" xmlns="http://www.w3.org/2000/svg">
<path d="M10.5242 16.6353C10.5242 19.0444 8.49884 20.9971 6.00002 20.9971C3.50121 20.9971 1.47583 19.0444 1.47583 16.6353C1.47583 14.2262 5.90131 9.03441 6.00002 9.08199C6.22029 9.18861 10.5242 14.2262 10.5242 16.6353Z" fill="#FBBF16"/>
<path d="M1.1438 41.082C1.1438 41.6235 1.95226 42.0622 2.95009 42.0622H9.04985C10.0477 42.0622 10.8561 41.6235 10.8561 41.082V40.1088L1.14282 36.9548L1.1438 41.082Z" fill="#FBBF16"/>
<path d="M1.14282 36.9548L10.8561 40.1088L10.8571 35.9289L1.1438 32.775L1.14282 36.9548Z" fill="#FBBF16"/>
<path d="M10.8571 27.5691L1.1438 24.4152V28.5951L10.8571 31.749V27.5691Z" fill="#FBBF16"/>
<path d="M1.1438 28.5951V32.775L10.8571 35.9289V31.749L1.1438 28.5951Z" fill="#FBBF16"/>
<path d="M10.8571 23.4505C10.8571 22.909 10.0486 22.4703 9.05083 22.4703H2.95009C1.95226 22.4703 1.1438 22.909 1.1438 23.4505V24.4152L10.8571 27.5691V23.4505Z" fill="#FBBF16"/>
</svg>
