<svg width="36" height="36" viewBox="0 0 36 36" fill="none" xmlns="http://www.w3.org/2000/svg">
<g filter="url(#filter0_d_212_54)">
<path fill-rule="evenodd" clip-rule="evenodd" d="M19 5.75C17.2051 5.75 15.75 7.20507 15.75 9C15.75 9.41421 15.4142 9.75 15 9.75C14.5858 9.75 14.25 9.41421 14.25 9C14.25 6.37665 16.3766 4.25 19 4.25C21.6234 4.25 23.75 6.37665 23.75 9C23.75 9.72296 23.5885 10.4082 23.2996 11.0216C24.1703 9.94121 25.5044 9.25 27 9.25C29.6234 9.25 31.75 11.3766 31.75 14C31.75 16.6234 29.6234 18.75 27 18.75H5C4.58579 18.75 4.25 18.4142 4.25 18C4.25 17.5858 4.58579 17.25 5 17.25H27C28.7949 17.25 30.25 15.7949 30.25 14C30.25 12.2051 28.7949 10.75 27 10.75C25.2051 10.75 23.75 12.2051 23.75 14C23.75 14.4142 23.4142 14.75 23 14.75C22.5858 14.75 22.25 14.4142 22.25 14C22.25 13.277 22.4115 12.5918 22.7004 11.9784C21.8297 13.0588 20.4956 13.75 19 13.75H5C4.58579 13.75 4.25 13.4142 4.25 13C4.25 12.5858 4.58579 12.25 5 12.25H19C20.7949 12.25 22.25 10.7949 22.25 9C22.25 7.20507 20.7949 5.75 19 5.75ZM4.25 23C4.25 22.5858 4.58579 22.25 5 22.25H19C21.6234 22.25 23.75 24.3766 23.75 27C23.75 29.4594 21.8809 31.4822 19.4857 31.7255C19.326 31.7417 19.164 31.75 19 31.75C16.3766 31.75 14.25 29.6234 14.25 27C14.25 26.5858 14.5858 26.25 15 26.25C15.4142 26.25 15.75 26.5858 15.75 27C15.75 28.7949 17.2051 30.25 19 30.25C20.7949 30.25 22.25 28.7949 22.25 27C22.25 25.2051 20.7949 23.75 19 23.75H5C4.58579 23.75 4.25 23.4142 4.25 23Z" fill="white"/>
</g>
<defs>
<filter id="filter0_d_212_54" x="3.25" y="3.25" width="29.5" height="29.5" filterUnits="userSpaceOnUse" color-interpolation-filters="sRGB">
<feFlood flood-opacity="0" result="BackgroundImageFix"/>
<feColorMatrix in="SourceAlpha" type="matrix" values="0 0 0 0 0 0 0 0 0 0 0 0 0 0 0 0 0 0 127 0" result="hardAlpha"/>
<feOffset/>
<feGaussianBlur stdDeviation="0.5"/>
<feComposite in2="hardAlpha" operator="out"/>
<feColorMatrix type="matrix" values="0 0 0 0 0.0666667 0 0 0 0 0.0666667 0 0 0 0 0.0666667 0 0 0 0.5 0"/>
<feBlend mode="normal" in2="BackgroundImageFix" result="effect1_dropShadow_212_54"/>
<feBlend mode="normal" in="SourceGraphic" in2="effect1_dropShadow_212_54" result="shape"/>
</filter>
</defs>
</svg>
