<svg width="36" height="36" viewBox="0 0 36 36" fill="none" xmlns="http://www.w3.org/2000/svg">
<g filter="url(#filter0_d_212_75)">
<path fill-rule="evenodd" clip-rule="evenodd" d="M13.25 6C13.25 5.58579 13.5858 5.25 14 5.25H22C22.4142 5.25 22.75 5.58579 22.75 6C22.75 6.41421 22.4142 6.75 22 6.75H14C13.5858 6.75 13.25 6.41421 13.25 6ZM18 9.75C12.3391 9.75 7.75 14.3391 7.75 20C7.75 25.6609 12.3391 30.25 18 30.25C23.6609 30.25 28.25 25.6609 28.25 20C28.25 14.3391 23.6609 9.75 18 9.75ZM6.25 20C6.25 13.5107 11.5107 8.25 18 8.25C24.4893 8.25 29.75 13.5107 29.75 20C29.75 26.4893 24.4893 31.75 18 31.75C11.5107 31.75 6.25 26.4893 6.25 20ZM17.625 19.3505C17.2663 19.5576 17.1434 20.0163 17.3505 20.375C17.5576 20.7337 18.0163 20.8566 18.375 20.6495L25.3032 16.6495C25.6619 16.4424 25.7848 15.9837 25.5777 15.625C25.3706 15.2663 24.9119 15.1434 24.5532 15.3505L17.625 19.3505Z" fill="white"/>
</g>
<defs>
<filter id="filter0_d_212_75" x="5.25" y="4.25" width="25.5" height="28.5" filterUnits="userSpaceOnUse" color-interpolation-filters="sRGB">
<feFlood flood-opacity="0" result="BackgroundImageFix"/>
<feColorMatrix in="SourceAlpha" type="matrix" values="0 0 0 0 0 0 0 0 0 0 0 0 0 0 0 0 0 0 127 0" result="hardAlpha"/>
<feOffset/>
<feGaussianBlur stdDeviation="0.5"/>
<feComposite in2="hardAlpha" operator="out"/>
<feColorMatrix type="matrix" values="0 0 0 0 0.0666667 0 0 0 0 0.0666667 0 0 0 0 0.0666667 0 0 0 0.5 0"/>
<feBlend mode="normal" in2="BackgroundImageFix" result="effect1_dropShadow_212_75"/>
<feBlend mode="normal" in="SourceGraphic" in2="effect1_dropShadow_212_75" result="shape"/>
</filter>
</defs>
</svg>
