<svg width="36" height="36" viewBox="0 0 36 36" fill="none" xmlns="http://www.w3.org/2000/svg">
<g filter="url(#filter0_d_271_24)">
<path fill-rule="evenodd" clip-rule="evenodd" d="M14 5.25C13.5858 5.25 13.25 5.58579 13.25 6C13.25 6.41421 13.5858 6.75 14 6.75H22C22.4142 6.75 22.75 6.41421 22.75 6C22.75 5.58579 22.4142 5.25 22 5.25H14ZM7.75 20C7.75 14.3391 12.3391 9.75 18 9.75C23.6609 9.75 28.25 14.3391 28.25 20C28.25 25.6609 23.6609 30.25 18 30.25C12.3391 30.25 7.75 25.6609 7.75 20ZM18 8.25C11.5107 8.25 6.25 13.5107 6.25 20C6.25 26.4893 11.5107 31.75 18 31.75C24.4893 31.75 29.75 26.4893 29.75 20C29.75 13.5107 24.4893 8.25 18 8.25Z" fill="white"/>
</g>
<path d="M17.6719 25.4688C17 25.4688 16.388 25.3411 15.8359 25.0859C15.2891 24.8255 14.8516 24.4688 14.5234 24.0156C14.2005 23.5573 14.026 23.0417 14 22.4688H15.3594C15.3958 22.8021 15.5208 23.1042 15.7344 23.375C15.9479 23.6406 16.224 23.8516 16.5625 24.0078C16.901 24.1589 17.2708 24.2344 17.6719 24.2344C18.151 24.2344 18.5833 24.125 18.9688 23.9062C19.3542 23.6875 19.6562 23.388 19.875 23.0078C20.0938 22.6276 20.2031 22.2031 20.2031 21.7344C20.2031 21.25 20.0885 20.8151 19.8594 20.4297C19.6354 20.0391 19.3229 19.7344 18.9219 19.5156C18.526 19.2917 18.0781 19.1771 17.5781 19.1719C16.5729 19.1562 15.8698 19.4948 15.4688 20.1875H14.1094L14.9062 14H21.0312V15.25H16.0781L15.6562 18.5625H15.7656C16.0208 18.3646 16.3307 18.2057 16.6953 18.0859C17.0599 17.9661 17.4375 17.9062 17.8281 17.9062C18.5365 17.9062 19.1745 18.0703 19.7422 18.3984C20.3151 18.7214 20.763 19.1719 21.0859 19.75C21.4141 20.3281 21.5781 20.9792 21.5781 21.7031C21.5781 22.4219 21.4089 23.0677 21.0703 23.6406C20.7318 24.2135 20.2656 24.6615 19.6719 24.9844C19.0781 25.3073 18.4115 25.4688 17.6719 25.4688Z" fill="white"/>
<defs>
<filter id="filter0_d_271_24" x="5.25" y="4.25" width="25.5" height="28.5" filterUnits="userSpaceOnUse" color-interpolation-filters="sRGB">
<feFlood flood-opacity="0" result="BackgroundImageFix"/>
<feColorMatrix in="SourceAlpha" type="matrix" values="0 0 0 0 0 0 0 0 0 0 0 0 0 0 0 0 0 0 127 0" result="hardAlpha"/>
<feOffset/>
<feGaussianBlur stdDeviation="0.5"/>
<feComposite in2="hardAlpha" operator="out"/>
<feColorMatrix type="matrix" values="0 0 0 0 0.0666667 0 0 0 0 0.0666667 0 0 0 0 0.0666667 0 0 0 0.5 0"/>
<feBlend mode="normal" in2="BackgroundImageFix" result="effect1_dropShadow_271_24"/>
<feBlend mode="normal" in="SourceGraphic" in2="effect1_dropShadow_271_24" result="shape"/>
</filter>
</defs>
</svg>
