<svg width="177" height="51" viewBox="0 0 177 51" fill="none" xmlns="http://www.w3.org/2000/svg">
<path d="M37.9602 20.25C37.856 19.7448 37.6477 19.3125 37.3352 18.9531C37.0279 18.5885 36.6529 18.3125 36.2102 18.125C35.7727 17.9375 35.304 17.8438 34.804 17.8438C34.1112 17.8438 33.4889 18.0182 32.9368 18.3672C32.3899 18.7161 31.9576 19.2292 31.6399 19.9062C31.3222 20.5833 31.1633 21.3958 31.1633 22.3438C31.1633 23.2917 31.3222 24.1042 31.6399 24.7812C31.9576 25.4583 32.3899 25.9714 32.9368 26.3203C33.4889 26.6693 34.1112 26.8438 34.804 26.8438C35.304 26.8438 35.7727 26.7526 36.2102 26.5703C36.6477 26.3828 37.0201 26.1094 37.3274 25.75C37.6399 25.3854 37.8508 24.9531 37.9602 24.4531H39.3665C39.231 25.2083 38.9498 25.8672 38.5227 26.4297C38.0956 26.987 37.5592 27.4141 36.9133 27.7109C36.2727 28.0078 35.5696 28.1562 34.804 28.1562C33.8352 28.1562 32.9732 27.9193 32.218 27.4453C31.4628 26.9714 30.8717 26.2969 30.4446 25.4219C30.0175 24.5417 29.804 23.5156 29.804 22.3438C29.804 21.1719 30.0175 20.1484 30.4446 19.2734C30.8717 18.3932 31.4628 17.7161 32.218 17.2422C32.9732 16.7682 33.8352 16.5312 34.804 16.5312C35.5644 16.5312 36.2649 16.6797 36.9055 16.9766C37.5514 17.2734 38.0878 17.7031 38.5149 18.2656C38.9472 18.8229 39.231 19.4844 39.3665 20.25H37.9602Z" fill="white"/>
<path d="M42.1071 28H40.7633V16.6875H42.1071V20.8438H42.2165C42.6435 19.8854 43.4769 19.4062 44.7165 19.4062C45.6123 19.4062 46.318 19.6771 46.8336 20.2188C47.3493 20.7552 47.6071 21.5521 47.6071 22.6094V28H46.2633V22.7031C46.2633 22.0417 46.0889 21.5286 45.7399 21.1641C45.3961 20.7943 44.9196 20.6094 44.3102 20.6094C43.8831 20.6094 43.5029 20.7005 43.1696 20.8828C42.8415 21.0599 42.581 21.3229 42.3883 21.6719C42.2008 22.0156 42.1071 22.4271 42.1071 22.9062V28Z" fill="white"/>
<path d="M52.8321 28.1719C52.0665 28.1719 51.3894 27.9922 50.8008 27.6328C50.2175 27.2682 49.7644 26.7552 49.4415 26.0938C49.1185 25.4323 48.9571 24.6667 48.9571 23.7969C48.9571 22.9271 49.1185 22.1615 49.4415 21.5C49.7644 20.8333 50.2175 20.3177 50.8008 19.9531C51.3894 19.5885 52.0665 19.4062 52.8321 19.4062C53.5925 19.4062 54.2618 19.5885 54.8399 19.9531C55.4232 20.3177 55.8737 20.8333 56.1915 21.5C56.5144 22.1615 56.6758 22.9271 56.6758 23.7969C56.6758 24.6667 56.5144 25.4323 56.1915 26.0938C55.8737 26.7552 55.4232 27.2682 54.8399 27.6328C54.2618 27.9922 53.5925 28.1719 52.8321 28.1719ZM52.8321 26.9844C53.379 26.9844 53.8399 26.8411 54.2149 26.5547C54.5899 26.263 54.8685 25.8776 55.0508 25.3984C55.2383 24.9141 55.3321 24.3802 55.3321 23.7969C55.3321 23.2135 55.2383 22.6797 55.0508 22.1953C54.8685 21.7109 54.5899 21.3229 54.2149 21.0312C53.8399 20.7396 53.379 20.5938 52.8321 20.5938C52.2748 20.5938 51.806 20.7396 51.4258 21.0312C51.0508 21.3229 50.7696 21.7109 50.5821 22.1953C50.3946 22.6797 50.3008 23.2135 50.3008 23.7969C50.3008 24.3802 50.3946 24.9141 50.5821 25.3984C50.7696 25.8776 51.0508 26.263 51.4258 26.5547C51.806 26.8411 52.2748 26.9844 52.8321 26.9844Z" fill="white"/>
<path d="M61.5102 28.1719C60.7446 28.1719 60.0675 27.9922 59.479 27.6328C58.8956 27.2682 58.4425 26.7552 58.1196 26.0938C57.7967 25.4323 57.6352 24.6667 57.6352 23.7969C57.6352 22.9271 57.7967 22.1615 58.1196 21.5C58.4425 20.8333 58.8956 20.3177 59.479 19.9531C60.0675 19.5885 60.7446 19.4062 61.5102 19.4062C62.2706 19.4062 62.9399 19.5885 63.518 19.9531C64.1014 20.3177 64.5519 20.8333 64.8696 21.5C65.1925 22.1615 65.354 22.9271 65.354 23.7969C65.354 24.6667 65.1925 25.4323 64.8696 26.0938C64.5519 26.7552 64.1014 27.2682 63.518 27.6328C62.9399 27.9922 62.2706 28.1719 61.5102 28.1719ZM61.5102 26.9844C62.0571 26.9844 62.518 26.8411 62.893 26.5547C63.268 26.263 63.5467 25.8776 63.729 25.3984C63.9165 24.9141 64.0102 24.3802 64.0102 23.7969C64.0102 23.2135 63.9165 22.6797 63.729 22.1953C63.5467 21.7109 63.268 21.3229 62.893 21.0312C62.518 20.7396 62.0571 20.5938 61.5102 20.5938C60.9529 20.5938 60.4842 20.7396 60.104 21.0312C59.729 21.3229 59.4477 21.7109 59.2602 22.1953C59.0727 22.6797 58.979 23.2135 58.979 23.7969C58.979 24.3802 59.0727 24.9141 59.2602 25.3984C59.4477 25.8776 59.729 26.263 60.104 26.5547C60.4842 26.8411 60.9529 26.9844 61.5102 26.9844Z" fill="white"/>
<path d="M71.4383 21.7188C71.3394 21.349 71.1467 21.0625 70.8602 20.8594C70.579 20.651 70.1987 20.5469 69.7196 20.5469C69.3758 20.5469 69.0659 20.6042 68.7899 20.7188C68.5191 20.8281 68.3055 20.9818 68.1493 21.1797C67.9982 21.3724 67.9227 21.5885 67.9227 21.8281C67.9227 22.1094 68.0399 22.349 68.2743 22.5469C68.5139 22.7448 68.881 22.901 69.3758 23.0156L70.6415 23.3281C71.4019 23.5104 71.9696 23.7917 72.3446 24.1719C72.7196 24.5469 72.9071 25.0312 72.9071 25.625C72.9071 26.1198 72.7743 26.5599 72.5086 26.9453C72.2482 27.3255 71.868 27.625 71.368 27.8438C70.868 28.0625 70.2717 28.1719 69.579 28.1719C68.6258 28.1719 67.8706 27.9688 67.3133 27.5625C66.756 27.151 66.4227 26.5573 66.3133 25.7812H67.7196C67.7977 26.1927 67.9878 26.5 68.2899 26.7031C68.592 26.901 69.0112 27 69.5477 27C70.1519 27 70.631 26.8828 70.9852 26.6484C71.3394 26.4141 71.5165 26.099 71.5165 25.7031C71.5165 25.401 71.4045 25.151 71.1805 24.9531C70.9566 24.75 70.605 24.5938 70.1258 24.4844L68.8446 24.1875C68.105 24.0156 67.5425 23.7344 67.1571 23.3438C66.7717 22.9531 66.579 22.474 66.579 21.9062C66.579 21.4271 66.7092 20.9974 66.9696 20.6172C67.2352 20.237 67.605 19.9401 68.079 19.7266C68.5581 19.513 69.105 19.4062 69.7196 19.4062C70.2925 19.4062 70.7977 19.5026 71.2352 19.6953C71.6727 19.888 72.0191 20.1589 72.2743 20.5078C72.5347 20.8568 72.6935 21.2604 72.7508 21.7188H71.4383Z" fill="white"/>
<path d="M77.8196 28.1719C77.0123 28.1719 76.3092 27.9922 75.7102 27.6328C75.1112 27.2734 74.6503 26.7656 74.3274 26.1094C74.0097 25.4531 73.8508 24.6927 73.8508 23.8281C73.8508 22.9635 74.0097 22.1979 74.3274 21.5312C74.6503 20.8594 75.1008 20.3385 75.679 19.9688C76.2623 19.5938 76.9342 19.4062 77.6946 19.4062C78.3352 19.4062 78.9316 19.5495 79.4836 19.8359C80.0357 20.1172 80.4836 20.5755 80.8274 21.2109C81.1764 21.8411 81.3508 22.651 81.3508 23.6406V24.2031H75.1946C75.2154 24.7917 75.3378 25.2943 75.5618 25.7109C75.7857 26.1276 76.0904 26.4453 76.4758 26.6641C76.8665 26.8776 77.3144 26.9844 77.8196 26.9844C78.2987 26.9844 78.7024 26.8958 79.0305 26.7188C79.3639 26.5365 79.6165 26.3021 79.7883 26.0156H81.2258C81.0904 26.4427 80.8639 26.8203 80.5461 27.1484C80.2336 27.4714 79.843 27.724 79.3743 27.9062C78.9107 28.0833 78.3925 28.1719 77.8196 28.1719ZM79.9915 23.0625C79.9915 22.5885 79.8951 22.1667 79.7024 21.7969C79.5149 21.4219 79.2467 21.1276 78.8977 20.9141C78.5487 20.7005 78.1477 20.5938 77.6946 20.5938C77.2206 20.5938 76.7987 20.7057 76.429 20.9297C76.0644 21.1536 75.7753 21.4557 75.5618 21.8359C75.3534 22.2109 75.2336 22.6198 75.2024 23.0625H79.9915Z" fill="white"/>
<path d="M85.9102 25.5938C85.9102 24.7135 86.2097 24.0938 86.8086 23.7344C87.4128 23.375 88.1758 23.1615 89.0977 23.0938C89.4519 23.0677 89.8477 23.0443 90.2852 23.0234C90.7279 22.9974 91.0977 22.9792 91.3946 22.9688V22.2812C91.3946 21.7344 91.2305 21.3151 90.9024 21.0234C90.5795 20.7266 90.1029 20.5781 89.4727 20.5781C88.9571 20.5781 88.5352 20.6849 88.2071 20.8984C87.879 21.1068 87.6654 21.3802 87.5665 21.7188H86.1602C86.2175 21.2656 86.3946 20.8646 86.6915 20.5156C86.9883 20.1667 87.3816 19.8958 87.8711 19.7031C88.3659 19.5052 88.9206 19.4062 89.5352 19.4062C90.3477 19.4062 91.0821 19.6146 91.7383 20.0312C92.3946 20.4427 92.7227 21.2344 92.7227 22.4062V28H91.3946V26.8438H91.3321C91.2279 27.0625 91.0665 27.276 90.8477 27.4844C90.6342 27.6875 90.3529 27.8594 90.004 28C89.6602 28.1354 89.2592 28.2031 88.8008 28.2031C88.2592 28.2031 87.7696 28.099 87.3321 27.8906C86.8946 27.6823 86.5482 27.3828 86.293 26.9922C86.0378 26.5964 85.9102 26.1302 85.9102 25.5938ZM87.254 25.6562C87.254 26.0885 87.4154 26.4219 87.7383 26.6562C88.0665 26.8854 88.4987 27 89.0352 27C89.5196 27 89.9389 26.9036 90.293 26.7109C90.6524 26.5182 90.9258 26.263 91.1133 25.9453C91.3008 25.6276 91.3946 25.2865 91.3946 24.9219V24.0703L89.254 24.2188C88.6185 24.2604 88.1264 24.3984 87.7774 24.6328C87.4284 24.8672 87.254 25.2083 87.254 25.6562Z" fill="white"/>
<path d="M97.4227 19.5156H98.8446L100.657 25.9844H100.735L102.532 19.5156H103.97L105.735 25.9531H105.829L107.641 19.5156H109.048L106.47 28H105.141L103.298 21.5312H103.173L101.345 28H100.001L97.4227 19.5156Z" fill="white"/>
<path d="M109.726 25.5938C109.726 24.7135 110.025 24.0938 110.624 23.7344C111.228 23.375 111.991 23.1615 112.913 23.0938C113.267 23.0677 113.663 23.0443 114.101 23.0234C114.544 22.9974 114.913 22.9792 115.21 22.9688V22.2812C115.21 21.7344 115.046 21.3151 114.718 21.0234C114.395 20.7266 113.919 20.5781 113.288 20.5781C112.773 20.5781 112.351 20.6849 112.023 20.8984C111.695 21.1068 111.481 21.3802 111.382 21.7188H109.976C110.033 21.2656 110.21 20.8646 110.507 20.5156C110.804 20.1667 111.197 19.8958 111.687 19.7031C112.182 19.5052 112.736 19.4062 113.351 19.4062C114.163 19.4062 114.898 19.6146 115.554 20.0312C116.21 20.4427 116.538 21.2344 116.538 22.4062V28H115.21V26.8438H115.148C115.044 27.0625 114.882 27.276 114.663 27.4844C114.45 27.6875 114.169 27.8594 113.82 28C113.476 28.1354 113.075 28.2031 112.616 28.2031C112.075 28.2031 111.585 28.099 111.148 27.8906C110.71 27.6823 110.364 27.3828 110.109 26.9922C109.853 26.5964 109.726 26.1302 109.726 25.5938ZM111.07 25.6562C111.07 26.0885 111.231 26.4219 111.554 26.6562C111.882 26.8854 112.314 27 112.851 27C113.335 27 113.754 26.9036 114.109 26.7109C114.468 26.5182 114.741 26.263 114.929 25.9453C115.116 25.6276 115.21 25.2865 115.21 24.9219V24.0703L113.07 24.2188C112.434 24.2604 111.942 24.3984 111.593 24.6328C111.244 24.8672 111.07 25.2083 111.07 25.6562Z" fill="white"/>
<path d="M118.841 31.1875C118.571 31.1875 118.321 31.1771 118.091 31.1562V29.9531C118.279 29.974 118.498 29.9844 118.748 29.9844C118.972 29.9844 119.159 29.9609 119.31 29.9141C119.461 29.8672 119.612 29.75 119.763 29.5625C119.914 29.3802 120.06 29.0938 120.201 28.7031L120.451 28.0625L117.31 19.5156H118.779L121.091 26.25H121.185L123.498 19.5156H124.966L121.373 29.2188C121.123 29.8802 120.789 30.3724 120.373 30.6953C119.956 31.0234 119.446 31.1875 118.841 31.1875Z" fill="white"/>
<path d="M133.37 20.6406H131.588V25.5625C131.588 26.0625 131.687 26.3984 131.885 26.5703C132.083 26.7422 132.354 26.8281 132.698 26.8281C132.958 26.8281 133.224 26.8177 133.495 26.7969V28.0469C133.224 28.0885 132.911 28.1094 132.557 28.1094C132.161 28.1094 131.786 28.0286 131.432 27.8672C131.078 27.7005 130.789 27.4505 130.565 27.1172C130.341 26.7839 130.229 26.3802 130.229 25.9062V20.6406H128.948V19.5156H130.229V17.4844H131.588V19.5156H133.37V20.6406Z" fill="white"/>
<path d="M138.079 28.1719C137.313 28.1719 136.636 27.9922 136.048 27.6328C135.464 27.2682 135.011 26.7552 134.688 26.0938C134.365 25.4323 134.204 24.6667 134.204 23.7969C134.204 22.9271 134.365 22.1615 134.688 21.5C135.011 20.8333 135.464 20.3177 136.048 19.9531C136.636 19.5885 137.313 19.4062 138.079 19.4062C138.839 19.4062 139.509 19.5885 140.087 19.9531C140.67 20.3177 141.121 20.8333 141.438 21.5C141.761 22.1615 141.923 22.9271 141.923 23.7969C141.923 24.6667 141.761 25.4323 141.438 26.0938C141.121 26.7552 140.67 27.2682 140.087 27.6328C139.509 27.9922 138.839 28.1719 138.079 28.1719ZM138.079 26.9844C138.626 26.9844 139.087 26.8411 139.462 26.5547C139.837 26.263 140.115 25.8776 140.298 25.3984C140.485 24.9141 140.579 24.3802 140.579 23.7969C140.579 23.2135 140.485 22.6797 140.298 22.1953C140.115 21.7109 139.837 21.3229 139.462 21.0312C139.087 20.7396 138.626 20.5938 138.079 20.5938C137.522 20.5938 137.053 20.7396 136.673 21.0312C136.298 21.3229 136.016 21.7109 135.829 22.1953C135.641 22.6797 135.548 23.2135 135.548 23.7969C135.548 24.3802 135.641 24.9141 135.829 25.3984C136.016 25.8776 136.298 26.263 136.673 26.5547C137.053 26.8411 137.522 26.9844 138.079 26.9844Z" fill="white"/>
<path d="M33.6321 47.1719C32.8248 47.1719 32.1217 46.9922 31.5227 46.6328C30.9237 46.2734 30.4628 45.7656 30.1399 45.1094C29.8222 44.4531 29.6633 43.6927 29.6633 42.8281C29.6633 41.9635 29.8222 41.1979 30.1399 40.5312C30.4628 39.8594 30.9133 39.3385 31.4915 38.9688C32.0748 38.5938 32.7467 38.4062 33.5071 38.4062C34.1477 38.4062 34.7441 38.5495 35.2961 38.8359C35.8482 39.1172 36.2961 39.5755 36.6399 40.2109C36.9889 40.8411 37.1633 41.651 37.1633 42.6406V43.2031H31.0071C31.0279 43.7917 31.1503 44.2943 31.3743 44.7109C31.5982 45.1276 31.9029 45.4453 32.2883 45.6641C32.679 45.8776 33.1269 45.9844 33.6321 45.9844C34.1112 45.9844 34.5149 45.8958 34.843 45.7188C35.1764 45.5365 35.429 45.3021 35.6008 45.0156H37.0383C36.9029 45.4427 36.6764 45.8203 36.3586 46.1484C36.0461 46.4714 35.6555 46.724 35.1868 46.9062C34.7232 47.0833 34.205 47.1719 33.6321 47.1719ZM35.804 42.0625C35.804 41.5885 35.7076 41.1667 35.5149 40.7969C35.3274 40.4219 35.0592 40.1276 34.7102 39.9141C34.3612 39.7005 33.9602 39.5938 33.5071 39.5938C33.0331 39.5938 32.6112 39.7057 32.2415 39.9297C31.8769 40.1536 31.5878 40.4557 31.3743 40.8359C31.1659 41.2109 31.0461 41.6198 31.0149 42.0625H35.804Z" fill="white"/>
<path d="M41.3102 41.9688L43.3258 38.5156H44.8727L42.1383 42.75L44.8727 47H43.3415L41.3102 43.7188L39.3102 47H37.7633L40.4352 42.75L37.7633 38.5156H39.3102L41.3102 41.9688Z" fill="white"/>
<path d="M49.8008 39.6406H48.0196V44.5625C48.0196 45.0625 48.1185 45.3984 48.3165 45.5703C48.5144 45.7422 48.7852 45.8281 49.129 45.8281C49.3894 45.8281 49.655 45.8177 49.9258 45.7969V47.0469C49.655 47.0885 49.3425 47.1094 48.9883 47.1094C48.5925 47.1094 48.2175 47.0286 47.8633 46.8672C47.5092 46.7005 47.2201 46.4505 46.9961 46.1172C46.7722 45.7839 46.6602 45.3802 46.6602 44.9062V39.6406H45.379V38.5156H46.6602V36.4844H48.0196V38.5156H49.8008V39.6406Z" fill="white"/>
<path d="M51.1352 38.5156H52.479V47H51.1352V38.5156ZM51.8071 37.1094C51.5467 37.1094 51.3253 37.0234 51.143 36.8516C50.9607 36.6797 50.8696 36.4688 50.8696 36.2188C50.8696 35.9688 50.9607 35.7578 51.143 35.5859C51.3253 35.4141 51.5467 35.3281 51.8071 35.3281C52.0675 35.3281 52.2915 35.4141 52.479 35.5859C52.6665 35.7578 52.7602 35.9688 52.7602 36.2188C52.7602 36.4688 52.6665 36.6797 52.479 36.8516C52.2915 37.0234 52.0675 37.1094 51.8071 37.1094Z" fill="white"/>
<path d="M55.5633 47H54.2196V38.5156H55.5165V39.8438H55.6258C55.8394 39.3906 56.1493 39.0391 56.5555 38.7891C56.967 38.5339 57.4852 38.4062 58.1102 38.4062C58.6935 38.4062 59.1987 38.526 59.6258 38.7656C60.0529 39 60.3836 39.3568 60.618 39.8359C60.8524 40.3151 60.9696 40.9062 60.9696 41.6094V47H59.6258V41.7031C59.6258 41.0469 59.4566 40.5339 59.118 40.1641C58.7795 39.7943 58.3081 39.6094 57.704 39.6094C57.2873 39.6094 56.9175 39.7005 56.5946 39.8828C56.2717 40.0599 56.0191 40.3229 55.8368 40.6719C55.6545 41.0156 55.5633 41.4271 55.5633 41.9062V47Z" fill="white"/>
<path d="M66.1633 50.3594C65.481 50.3594 64.8769 50.263 64.3508 50.0703C63.83 49.8776 63.4159 49.5964 63.1086 49.2266C62.8014 48.8568 62.6217 48.4115 62.5696 47.8906H63.9758C64.0696 48.3177 64.304 48.6406 64.679 48.8594C65.0592 49.0781 65.554 49.1875 66.1633 49.1875C66.9133 49.1875 67.4915 49.0208 67.8977 48.6875C68.304 48.3542 68.5071 47.8438 68.5071 47.1562V45.4375H68.3977C68.2467 45.6927 68.0878 45.9167 67.9211 46.1094C67.7545 46.3021 67.5045 46.4792 67.1711 46.6406C66.843 46.7969 66.429 46.875 65.929 46.875C65.2362 46.875 64.6165 46.7057 64.0696 46.3672C63.5227 46.0286 63.093 45.5417 62.7805 44.9062C62.4732 44.2656 62.3196 43.5104 62.3196 42.6406C62.3196 41.7865 62.4732 41.0391 62.7805 40.3984C63.0878 39.7578 63.5149 39.2656 64.0618 38.9219C64.6086 38.5781 65.2362 38.4062 65.9446 38.4062C66.4394 38.4062 66.8508 38.487 67.179 38.6484C67.5123 38.8099 67.7493 38.9766 67.8899 39.1484C68.0357 39.3151 68.2154 39.5521 68.429 39.8594H68.5383V38.5156H69.8508V47.2344C69.8508 47.9375 69.6894 48.5208 69.3665 48.9844C69.0487 49.4531 68.6139 49.7995 68.0618 50.0234C67.5097 50.2474 66.8769 50.3594 66.1633 50.3594ZM66.1165 45.6719C66.8873 45.6719 67.4836 45.4115 67.9055 44.8906C68.3274 44.3646 68.5383 43.6302 68.5383 42.6875C68.5383 42.0781 68.4446 41.5417 68.2571 41.0781C68.0696 40.6146 67.7935 40.2552 67.429 40C67.0696 39.7396 66.6321 39.6094 66.1165 39.6094C65.5904 39.6094 65.1451 39.7448 64.7805 40.0156C64.4159 40.2865 64.1399 40.6562 63.9524 41.125C63.7701 41.5885 63.679 42.1094 63.679 42.6875C63.679 43.2812 63.7701 43.8021 63.9524 44.25C64.1399 44.6979 64.4159 45.0469 64.7805 45.2969C65.1451 45.5469 65.5904 45.6719 66.1165 45.6719Z" fill="white"/>
<path d="M76.9508 38.5156H78.279V47H76.9508V45.5625H76.8571C76.6383 46.026 76.3154 46.401 75.8883 46.6875C75.4665 46.9688 74.9508 47.1094 74.3415 47.1094C73.7946 47.1094 73.3154 46.9922 72.904 46.7578C72.4925 46.5182 72.1696 46.1589 71.9352 45.6797C71.706 45.2005 71.5915 44.6094 71.5915 43.9062V38.5156H72.9352V43.8125C72.9352 44.2135 73.0133 44.5651 73.1696 44.8672C73.3258 45.1693 73.542 45.4036 73.818 45.5703C74.0993 45.7318 74.4196 45.8125 74.779 45.8125C75.1175 45.8125 75.4534 45.7266 75.7868 45.5547C76.1253 45.3828 76.404 45.125 76.6227 44.7812C76.8415 44.4323 76.9508 44.0104 76.9508 43.5156V38.5156Z" fill="white"/>
<path d="M80.0352 38.5156H81.379V47H80.0352V38.5156ZM80.7071 37.1094C80.4467 37.1094 80.2253 37.0234 80.043 36.8516C79.8607 36.6797 79.7696 36.4688 79.7696 36.2188C79.7696 35.9688 79.8607 35.7578 80.043 35.5859C80.2253 35.4141 80.4467 35.3281 80.7071 35.3281C80.9675 35.3281 81.1915 35.4141 81.379 35.5859C81.5665 35.7578 81.6602 35.9688 81.6602 36.2188C81.6602 36.4688 81.5665 36.6797 81.379 36.8516C81.1915 37.0234 80.9675 37.1094 80.7071 37.1094Z" fill="white"/>
<path d="M87.8383 40.7188C87.7394 40.349 87.5467 40.0625 87.2602 39.8594C86.979 39.651 86.5987 39.5469 86.1196 39.5469C85.7758 39.5469 85.4659 39.6042 85.1899 39.7188C84.9191 39.8281 84.7055 39.9818 84.5493 40.1797C84.3982 40.3724 84.3227 40.5885 84.3227 40.8281C84.3227 41.1094 84.4399 41.349 84.6743 41.5469C84.9139 41.7448 85.281 41.901 85.7758 42.0156L87.0415 42.3281C87.8019 42.5104 88.3696 42.7917 88.7446 43.1719C89.1196 43.5469 89.3071 44.0312 89.3071 44.625C89.3071 45.1198 89.1743 45.5599 88.9086 45.9453C88.6482 46.3255 88.268 46.625 87.768 46.8438C87.268 47.0625 86.6717 47.1719 85.979 47.1719C85.0258 47.1719 84.2706 46.9688 83.7133 46.5625C83.156 46.151 82.8227 45.5573 82.7133 44.7812H84.1196C84.1977 45.1927 84.3878 45.5 84.6899 45.7031C84.992 45.901 85.4112 46 85.9477 46C86.5519 46 87.031 45.8828 87.3852 45.6484C87.7394 45.4141 87.9165 45.099 87.9165 44.7031C87.9165 44.401 87.8045 44.151 87.5805 43.9531C87.3566 43.75 87.005 43.5938 86.5258 43.4844L85.2446 43.1875C84.505 43.0156 83.9425 42.7344 83.5571 42.3438C83.1717 41.9531 82.979 41.474 82.979 40.9062C82.979 40.4271 83.1092 39.9974 83.3696 39.6172C83.6352 39.237 84.005 38.9401 84.479 38.7266C84.9581 38.513 85.505 38.4062 86.1196 38.4062C86.6925 38.4062 87.1977 38.5026 87.6352 38.6953C88.0727 38.888 88.4191 39.1589 88.6743 39.5078C88.9347 39.8568 89.0935 40.2604 89.1508 40.7188H87.8383Z" fill="white"/>
<path d="M92.0008 47H90.6571V35.6875H92.0008V39.8438H92.1102C92.5373 38.8854 93.3706 38.4062 94.6102 38.4062C95.506 38.4062 96.2118 38.6771 96.7274 39.2188C97.243 39.7552 97.5008 40.5521 97.5008 41.6094V47H96.1571V41.7031C96.1571 41.0417 95.9826 40.5286 95.6336 40.1641C95.2899 39.7943 94.8133 39.6094 94.204 39.6094C93.7769 39.6094 93.3967 39.7005 93.0633 39.8828C92.7352 40.0599 92.4748 40.3229 92.2821 40.6719C92.0946 41.0156 92.0008 41.4271 92.0008 41.9062V47Z" fill="white"/>
<path d="M106.576 39.6406H104.795V44.5625C104.795 45.0625 104.894 45.3984 105.091 45.5703C105.289 45.7422 105.56 45.8281 105.904 45.8281C106.164 45.8281 106.43 45.8177 106.701 45.7969V47.0469C106.43 47.0885 106.117 47.1094 105.763 47.1094C105.367 47.1094 104.992 47.0286 104.638 46.8672C104.284 46.7005 103.995 46.4505 103.771 46.1172C103.547 45.7839 103.435 45.3802 103.435 44.9062V39.6406H102.154V38.5156H103.435V36.4844H104.795V38.5156H106.576V39.6406Z" fill="white"/>
<path d="M109.441 47H108.098V35.6875H109.441V39.8438H109.551C109.978 38.8854 110.811 38.4062 112.051 38.4062C112.947 38.4062 113.652 38.6771 114.168 39.2188C114.684 39.7552 114.941 40.5521 114.941 41.6094V47H113.598V41.7031C113.598 41.0417 113.423 40.5286 113.074 40.1641C112.731 39.7943 112.254 39.6094 111.645 39.6094C111.217 39.6094 110.837 39.7005 110.504 39.8828C110.176 40.0599 109.915 40.3229 109.723 40.6719C109.535 41.0156 109.441 41.4271 109.441 41.9062V47Z" fill="white"/>
<path d="M120.26 47.1719C119.453 47.1719 118.75 46.9922 118.151 46.6328C117.552 46.2734 117.091 45.7656 116.768 45.1094C116.45 44.4531 116.291 43.6927 116.291 42.8281C116.291 41.9635 116.45 41.1979 116.768 40.5312C117.091 39.8594 117.541 39.3385 118.12 38.9688C118.703 38.5938 119.375 38.4062 120.135 38.4062C120.776 38.4062 121.372 38.5495 121.924 38.8359C122.476 39.1172 122.924 39.5755 123.268 40.2109C123.617 40.8411 123.791 41.651 123.791 42.6406V43.2031H117.635C117.656 43.7917 117.778 44.2943 118.002 44.7109C118.226 45.1276 118.531 45.4453 118.916 45.6641C119.307 45.8776 119.755 45.9844 120.26 45.9844C120.739 45.9844 121.143 45.8958 121.471 45.7188C121.804 45.5365 122.057 45.3021 122.229 45.0156H123.666C123.531 45.4427 123.304 45.8203 122.987 46.1484C122.674 46.4714 122.284 46.724 121.815 46.9062C121.351 47.0833 120.833 47.1719 120.26 47.1719ZM122.432 42.0625C122.432 41.5885 122.336 41.1667 122.143 40.7969C121.956 40.4219 121.687 40.1276 121.338 39.9141C120.989 39.7005 120.588 39.5938 120.135 39.5938C119.661 39.5938 119.239 39.7057 118.87 39.9297C118.505 40.1536 118.216 40.4557 118.002 40.8359C117.794 41.2109 117.674 41.6198 117.643 42.0625H122.432Z" fill="white"/>
<path d="M132.226 47.1719C131.439 47.1719 130.752 46.987 130.163 46.6172C129.58 46.2422 129.132 45.724 128.82 45.0625C128.507 44.401 128.351 43.6458 128.351 42.7969C128.351 41.9427 128.51 41.1849 128.827 40.5234C129.15 39.8568 129.601 39.3385 130.179 38.9688C130.762 38.5938 131.434 38.4062 132.195 38.4062C132.794 38.4062 133.335 38.5182 133.82 38.7422C134.304 38.9609 134.697 39.2734 134.999 39.6797C135.307 40.0807 135.497 40.5469 135.57 41.0781H134.226C134.163 40.8073 134.044 40.5599 133.866 40.3359C133.689 40.112 133.46 39.9323 133.179 39.7969C132.903 39.6615 132.585 39.5938 132.226 39.5938C131.726 39.5938 131.283 39.724 130.898 39.9844C130.517 40.2448 130.221 40.6146 130.007 41.0938C129.799 41.5677 129.695 42.1198 129.695 42.75C129.695 43.401 129.796 43.9688 129.999 44.4531C130.208 44.9375 130.502 45.3125 130.882 45.5781C131.267 45.8385 131.715 45.9688 132.226 45.9688C132.731 45.9688 133.161 45.8411 133.515 45.5859C133.874 45.3255 134.111 44.9635 134.226 44.5H135.57C135.497 45.0104 135.314 45.4688 135.023 45.875C134.731 46.276 134.346 46.5938 133.866 46.8281C133.387 47.0573 132.84 47.1719 132.226 47.1719Z" fill="white"/>
<path d="M136.42 44.5938C136.42 43.7135 136.719 43.0938 137.318 42.7344C137.922 42.375 138.685 42.1615 139.607 42.0938C139.961 42.0677 140.357 42.0443 140.795 42.0234C141.237 41.9974 141.607 41.9792 141.904 41.9688V41.2812C141.904 40.7344 141.74 40.3151 141.412 40.0234C141.089 39.7266 140.612 39.5781 139.982 39.5781C139.466 39.5781 139.045 39.6849 138.716 39.8984C138.388 40.1068 138.175 40.3802 138.076 40.7188H136.67C136.727 40.2656 136.904 39.8646 137.201 39.5156C137.498 39.1667 137.891 38.8958 138.381 38.7031C138.875 38.5052 139.43 38.4062 140.045 38.4062C140.857 38.4062 141.591 38.6146 142.248 39.0312C142.904 39.4427 143.232 40.2344 143.232 41.4062V47H141.904V45.8438H141.841C141.737 46.0625 141.576 46.276 141.357 46.4844C141.144 46.6875 140.862 46.8594 140.513 47C140.17 47.1354 139.769 47.2031 139.31 47.2031C138.769 47.2031 138.279 47.099 137.841 46.8906C137.404 46.6823 137.058 46.3828 136.802 45.9922C136.547 45.5964 136.42 45.1302 136.42 44.5938ZM137.763 44.6562C137.763 45.0885 137.925 45.4219 138.248 45.6562C138.576 45.8854 139.008 46 139.545 46C140.029 46 140.448 45.9036 140.802 45.7109C141.162 45.5182 141.435 45.263 141.623 44.9453C141.81 44.6276 141.904 44.2865 141.904 43.9219V43.0703L139.763 43.2188C139.128 43.2604 138.636 43.3984 138.287 43.6328C137.938 43.8672 137.763 44.2083 137.763 44.6562Z" fill="white"/>
<path d="M146.332 47H144.988V38.5156H146.285V39.8438H146.395C146.608 39.3906 146.918 39.0391 147.324 38.7891C147.736 38.5339 148.254 38.4062 148.879 38.4062C149.462 38.4062 149.967 38.526 150.395 38.7656C150.822 39 151.152 39.3568 151.387 39.8359C151.621 40.3151 151.738 40.9062 151.738 41.6094V47H150.395V41.7031C150.395 41.0469 150.225 40.5339 149.887 40.1641C149.548 39.7943 149.077 39.6094 148.473 39.6094C148.056 39.6094 147.686 39.7005 147.363 39.8828C147.04 40.0599 146.788 40.3229 146.606 40.6719C146.423 41.0156 146.332 41.4271 146.332 41.9062V47Z" fill="white"/>
<path d="M156.698 47.1719C155.995 47.1719 155.37 46.9922 154.823 46.6328C154.281 46.2734 153.857 45.763 153.549 45.1016C153.242 44.4349 153.088 43.6615 153.088 42.7812C153.088 41.901 153.242 41.1302 153.549 40.4688C153.857 39.8073 154.284 39.2995 154.831 38.9453C155.377 38.5859 156.005 38.4062 156.713 38.4062C157.213 38.4062 157.627 38.4896 157.956 38.6562C158.284 38.8177 158.526 38.9922 158.682 39.1797C158.838 39.362 159 39.5885 159.166 39.8594H159.26V35.6875H160.62V47H159.307V45.7031H159.166C158.989 45.9792 158.82 46.2109 158.659 46.3984C158.502 46.5859 158.26 46.763 157.932 46.9297C157.604 47.0911 157.192 47.1719 156.698 47.1719ZM156.885 45.9688C157.39 45.9688 157.825 45.8359 158.19 45.5703C158.554 45.2995 158.831 44.9219 159.018 44.4375C159.211 43.9479 159.307 43.3854 159.307 42.75C159.307 42.1198 159.213 41.5703 159.026 41.1016C158.844 40.6276 158.57 40.2604 158.206 40C157.841 39.7396 157.401 39.6094 156.885 39.6094C156.359 39.6094 155.914 39.7474 155.549 40.0234C155.185 40.2943 154.909 40.6667 154.721 41.1406C154.539 41.6146 154.448 42.151 154.448 42.75C154.448 43.3646 154.539 43.9167 154.721 44.4062C154.909 44.8906 155.185 45.2734 155.549 45.5547C155.919 45.8307 156.364 45.9688 156.885 45.9688Z" fill="white"/>
<path d="M163.891 47H162.548V35.6875H163.891V47Z" fill="white"/>
<path d="M169.195 47.1719C168.387 47.1719 167.684 46.9922 167.085 46.6328C166.486 46.2734 166.025 45.7656 165.702 45.1094C165.385 44.4531 165.226 43.6927 165.226 42.8281C165.226 41.9635 165.385 41.1979 165.702 40.5312C166.025 39.8594 166.476 39.3385 167.054 38.9688C167.637 38.5938 168.309 38.4062 169.07 38.4062C169.71 38.4062 170.307 38.5495 170.859 38.8359C171.411 39.1172 171.859 39.5755 172.202 40.2109C172.551 40.8411 172.726 41.651 172.726 42.6406V43.2031H166.57C166.59 43.7917 166.713 44.2943 166.937 44.7109C167.161 45.1276 167.465 45.4453 167.851 45.6641C168.241 45.8776 168.689 45.9844 169.195 45.9844C169.674 45.9844 170.077 45.8958 170.406 45.7188C170.739 45.5365 170.991 45.3021 171.163 45.0156H172.601C172.465 45.4427 172.239 45.8203 171.921 46.1484C171.609 46.4714 171.218 46.724 170.749 46.9062C170.286 47.0833 169.767 47.1719 169.195 47.1719ZM171.366 42.0625C171.366 41.5885 171.27 41.1667 171.077 40.7969C170.89 40.4219 170.622 40.1276 170.273 39.9141C169.924 39.7005 169.523 39.5938 169.07 39.5938C168.596 39.5938 168.174 39.7057 167.804 39.9297C167.439 40.1536 167.15 40.4557 166.937 40.8359C166.728 41.2109 166.609 41.6198 166.577 42.0625H171.366Z" fill="white"/>
<path d="M175.029 47.0938C174.847 47.0938 174.677 47.0495 174.521 46.9609C174.37 46.8672 174.248 46.7422 174.154 46.5859C174.065 46.4297 174.024 46.2604 174.029 46.0781C174.024 45.901 174.065 45.737 174.154 45.5859C174.248 45.4297 174.37 45.3073 174.521 45.2188C174.677 45.125 174.847 45.0781 175.029 45.0781C175.206 45.0781 175.37 45.125 175.521 45.2188C175.677 45.3073 175.8 45.4297 175.888 45.5859C175.982 45.737 176.029 45.901 176.029 46.0781C176.029 46.2604 175.982 46.4297 175.888 46.5859C175.8 46.7422 175.677 46.8672 175.521 46.9609C175.37 47.0495 175.206 47.0938 175.029 47.0938Z" fill="white"/>
<path d="M16.9198 5.89878L12.0209 0.999896M7.12855 5.89224L12.0209 0.999896M12.0209 0.999896L12.0316 17.0683C12.0346 21.4824 15.6122 25.06 20.0263 25.0629L21.8977 25.0642" stroke="white" stroke-linecap="round" stroke-linejoin="bevel"/>
</svg>
