<svg width="154" height="69" viewBox="0 0 154 69" fill="none" xmlns="http://www.w3.org/2000/svg">
<path d="M8.96875 4.25C8.86458 3.74479 8.65625 3.3125 8.34375 2.95312C8.03646 2.58854 7.66146 2.3125 7.21875 2.125C6.78125 1.9375 6.3125 1.84375 5.8125 1.84375C5.11979 1.84375 4.4974 2.01823 3.94531 2.36719C3.39844 2.71615 2.96615 3.22917 2.64844 3.90625C2.33073 4.58333 2.17188 5.39583 2.17188 6.34375C2.17188 7.29167 2.33073 8.10417 2.64844 8.78125C2.96615 9.45833 3.39844 9.97135 3.94531 10.3203C4.4974 10.6693 5.11979 10.8438 5.8125 10.8438C6.3125 10.8438 6.78125 10.7526 7.21875 10.5703C7.65625 10.3828 8.02865 10.1094 8.33594 9.75C8.64844 9.38542 8.85938 8.95312 8.96875 8.45312H10.375C10.2396 9.20833 9.95833 9.86719 9.53125 10.4297C9.10417 10.987 8.56771 11.4141 7.92188 11.7109C7.28125 12.0078 6.57812 12.1562 5.8125 12.1562C4.84375 12.1562 3.98177 11.9193 3.22656 11.4453C2.47135 10.9714 1.88021 10.2969 1.45312 9.42188C1.02604 8.54167 0.8125 7.51562 0.8125 6.34375C0.8125 5.17188 1.02604 4.14844 1.45312 3.27344C1.88021 2.39323 2.47135 1.71615 3.22656 1.24219C3.98177 0.768229 4.84375 0.53125 5.8125 0.53125C6.57292 0.53125 7.27344 0.679688 7.91406 0.976562C8.5599 1.27344 9.09635 1.70312 9.52344 2.26562C9.95573 2.82292 10.2396 3.48438 10.375 4.25H8.96875Z" fill="white"/>
<path d="M13.1156 12H11.7719V0.6875H13.1156V4.84375H13.225C13.6521 3.88542 14.4854 3.40625 15.725 3.40625C16.6208 3.40625 17.3266 3.67708 17.8422 4.21875C18.3578 4.75521 18.6156 5.55208 18.6156 6.60938V12H17.2719V6.70312C17.2719 6.04167 17.0974 5.52865 16.7484 5.16406C16.4047 4.79427 15.9281 4.60938 15.3188 4.60938C14.8917 4.60938 14.5115 4.70052 14.1781 4.88281C13.85 5.0599 13.5896 5.32292 13.3969 5.67188C13.2094 6.01562 13.1156 6.42708 13.1156 6.90625V12Z" fill="white"/>
<path d="M23.8406 12.1719C23.075 12.1719 22.3979 11.9922 21.8094 11.6328C21.226 11.2682 20.7729 10.7552 20.45 10.0938C20.1271 9.43229 19.9656 8.66667 19.9656 7.79688C19.9656 6.92708 20.1271 6.16146 20.45 5.5C20.7729 4.83333 21.226 4.31771 21.8094 3.95312C22.3979 3.58854 23.075 3.40625 23.8406 3.40625C24.601 3.40625 25.2703 3.58854 25.8484 3.95312C26.4318 4.31771 26.8823 4.83333 27.2 5.5C27.5229 6.16146 27.6844 6.92708 27.6844 7.79688C27.6844 8.66667 27.5229 9.43229 27.2 10.0938C26.8823 10.7552 26.4318 11.2682 25.8484 11.6328C25.2703 11.9922 24.601 12.1719 23.8406 12.1719ZM23.8406 10.9844C24.3875 10.9844 24.8484 10.8411 25.2234 10.5547C25.5984 10.263 25.8771 9.8776 26.0594 9.39844C26.2469 8.91406 26.3406 8.38021 26.3406 7.79688C26.3406 7.21354 26.2469 6.67969 26.0594 6.19531C25.8771 5.71094 25.5984 5.32292 25.2234 5.03125C24.8484 4.73958 24.3875 4.59375 23.8406 4.59375C23.2833 4.59375 22.8146 4.73958 22.4344 5.03125C22.0594 5.32292 21.7781 5.71094 21.5906 6.19531C21.4031 6.67969 21.3094 7.21354 21.3094 7.79688C21.3094 8.38021 21.4031 8.91406 21.5906 9.39844C21.7781 9.8776 22.0594 10.263 22.4344 10.5547C22.8146 10.8411 23.2833 10.9844 23.8406 10.9844Z" fill="white"/>
<path d="M32.5187 12.1719C31.7531 12.1719 31.076 11.9922 30.4875 11.6328C29.9042 11.2682 29.451 10.7552 29.1281 10.0938C28.8052 9.43229 28.6437 8.66667 28.6437 7.79688C28.6437 6.92708 28.8052 6.16146 29.1281 5.5C29.451 4.83333 29.9042 4.31771 30.4875 3.95312C31.076 3.58854 31.7531 3.40625 32.5187 3.40625C33.2792 3.40625 33.9484 3.58854 34.5266 3.95312C35.1099 4.31771 35.5604 4.83333 35.8781 5.5C36.201 6.16146 36.3625 6.92708 36.3625 7.79688C36.3625 8.66667 36.201 9.43229 35.8781 10.0938C35.5604 10.7552 35.1099 11.2682 34.5266 11.6328C33.9484 11.9922 33.2792 12.1719 32.5187 12.1719ZM32.5187 10.9844C33.0656 10.9844 33.5266 10.8411 33.9016 10.5547C34.2766 10.263 34.5552 9.8776 34.7375 9.39844C34.925 8.91406 35.0187 8.38021 35.0187 7.79688C35.0187 7.21354 34.925 6.67969 34.7375 6.19531C34.5552 5.71094 34.2766 5.32292 33.9016 5.03125C33.5266 4.73958 33.0656 4.59375 32.5187 4.59375C31.9615 4.59375 31.4927 4.73958 31.1125 5.03125C30.7375 5.32292 30.4562 5.71094 30.2687 6.19531C30.0812 6.67969 29.9875 7.21354 29.9875 7.79688C29.9875 8.38021 30.0812 8.91406 30.2687 9.39844C30.4562 9.8776 30.7375 10.263 31.1125 10.5547C31.4927 10.8411 31.9615 10.9844 32.5187 10.9844Z" fill="white"/>
<path d="M42.4469 5.71875C42.3479 5.34896 42.1552 5.0625 41.8688 4.85938C41.5875 4.65104 41.2073 4.54688 40.7281 4.54688C40.3844 4.54688 40.0745 4.60417 39.7984 4.71875C39.5276 4.82812 39.3141 4.98177 39.1578 5.17969C39.0068 5.3724 38.9313 5.58854 38.9313 5.82812C38.9313 6.10938 39.0484 6.34896 39.2828 6.54688C39.5224 6.74479 39.8896 6.90104 40.3844 7.01562L41.65 7.32812C42.4104 7.51042 42.9781 7.79167 43.3531 8.17188C43.7281 8.54688 43.9156 9.03125 43.9156 9.625C43.9156 10.1198 43.7828 10.5599 43.5172 10.9453C43.2568 11.3255 42.8766 11.625 42.3766 11.8438C41.8766 12.0625 41.2802 12.1719 40.5875 12.1719C39.6344 12.1719 38.8792 11.9688 38.3219 11.5625C37.7646 11.151 37.4313 10.5573 37.3219 9.78125H38.7281C38.8063 10.1927 38.9964 10.5 39.2984 10.7031C39.6005 10.901 40.0198 11 40.5563 11C41.1604 11 41.6396 10.8828 41.9938 10.6484C42.3479 10.4141 42.525 10.099 42.525 9.70312C42.525 9.40104 42.413 9.15104 42.1891 8.95312C41.9651 8.75 41.6135 8.59375 41.1344 8.48438L39.8531 8.1875C39.1135 8.01562 38.551 7.73438 38.1656 7.34375C37.7802 6.95312 37.5875 6.47396 37.5875 5.90625C37.5875 5.42708 37.7177 4.9974 37.9781 4.61719C38.2438 4.23698 38.6135 3.9401 39.0875 3.72656C39.5667 3.51302 40.1135 3.40625 40.7281 3.40625C41.301 3.40625 41.8063 3.5026 42.2438 3.69531C42.6813 3.88802 43.0276 4.15885 43.2828 4.50781C43.5432 4.85677 43.7021 5.26042 43.7594 5.71875H42.4469Z" fill="white"/>
<path d="M48.8281 12.1719C48.0208 12.1719 47.3177 11.9922 46.7188 11.6328C46.1198 11.2734 45.6589 10.7656 45.3359 10.1094C45.0182 9.45312 44.8594 8.69271 44.8594 7.82812C44.8594 6.96354 45.0182 6.19792 45.3359 5.53125C45.6589 4.85938 46.1094 4.33854 46.6875 3.96875C47.2708 3.59375 47.9427 3.40625 48.7031 3.40625C49.3438 3.40625 49.9401 3.54948 50.4922 3.83594C51.0443 4.11719 51.4922 4.57552 51.8359 5.21094C52.1849 5.84115 52.3594 6.65104 52.3594 7.64062V8.20312H46.2031C46.224 8.79167 46.3464 9.29427 46.5703 9.71094C46.7943 10.1276 47.099 10.4453 47.4844 10.6641C47.875 10.8776 48.3229 10.9844 48.8281 10.9844C49.3073 10.9844 49.7109 10.8958 50.0391 10.7188C50.3724 10.5365 50.625 10.3021 50.7969 10.0156H52.2344C52.099 10.4427 51.8724 10.8203 51.5547 11.1484C51.2422 11.4714 50.8516 11.724 50.3828 11.9062C49.9193 12.0833 49.401 12.1719 48.8281 12.1719ZM51 7.0625C51 6.58854 50.9036 6.16667 50.7109 5.79688C50.5234 5.42188 50.2552 5.1276 49.9062 4.91406C49.5573 4.70052 49.1562 4.59375 48.7031 4.59375C48.2292 4.59375 47.8073 4.70573 47.4375 4.92969C47.0729 5.15365 46.7839 5.45573 46.5703 5.83594C46.362 6.21094 46.2422 6.61979 46.2109 7.0625H51Z" fill="white"/>
<path d="M61.0281 4.64062H59.2469V9.5625C59.2469 10.0625 59.3458 10.3984 59.5438 10.5703C59.7417 10.7422 60.0125 10.8281 60.3563 10.8281C60.6167 10.8281 60.8823 10.8177 61.1531 10.7969V12.0469C60.8823 12.0885 60.5698 12.1094 60.2156 12.1094C59.8198 12.1094 59.4448 12.0286 59.0906 11.8672C58.7365 11.7005 58.4474 11.4505 58.2234 11.1172C57.9995 10.7839 57.8875 10.3802 57.8875 9.90625V4.64062H56.6063V3.51562H57.8875V1.48438H59.2469V3.51562H61.0281V4.64062Z" fill="white"/>
<path d="M63.8937 12H62.55V0.6875H63.8937V4.84375H64.0031C64.4302 3.88542 65.2635 3.40625 66.5031 3.40625C67.399 3.40625 68.1047 3.67708 68.6203 4.21875C69.1359 4.75521 69.3938 5.55208 69.3938 6.60938V12H68.05V6.70312C68.05 6.04167 67.8755 5.52865 67.5266 5.16406C67.1828 4.79427 66.7063 4.60938 66.0969 4.60938C65.6698 4.60938 65.2896 4.70052 64.9563 4.88281C64.6281 5.0599 64.3677 5.32292 64.175 5.67188C63.9875 6.01562 63.8937 6.42708 63.8937 6.90625V12Z" fill="white"/>
<path d="M74.7125 12.1719C73.9052 12.1719 73.2021 11.9922 72.6031 11.6328C72.0042 11.2734 71.5432 10.7656 71.2203 10.1094C70.9026 9.45312 70.7438 8.69271 70.7438 7.82812C70.7438 6.96354 70.9026 6.19792 71.2203 5.53125C71.5432 4.85938 71.9938 4.33854 72.5719 3.96875C73.1552 3.59375 73.8271 3.40625 74.5875 3.40625C75.2281 3.40625 75.8245 3.54948 76.3766 3.83594C76.9286 4.11719 77.3766 4.57552 77.7203 5.21094C78.0693 5.84115 78.2438 6.65104 78.2438 7.64062V8.20312H72.0875C72.1083 8.79167 72.2307 9.29427 72.4547 9.71094C72.6786 10.1276 72.9833 10.4453 73.3688 10.6641C73.7594 10.8776 74.2073 10.9844 74.7125 10.9844C75.1917 10.9844 75.5953 10.8958 75.9234 10.7188C76.2568 10.5365 76.5094 10.3021 76.6813 10.0156H78.1188C77.9833 10.4427 77.7568 10.8203 77.4391 11.1484C77.1266 11.4714 76.7359 11.724 76.2672 11.9062C75.8036 12.0833 75.2854 12.1719 74.7125 12.1719ZM76.8844 7.0625C76.8844 6.58854 76.788 6.16667 76.5953 5.79688C76.4078 5.42188 76.1396 5.1276 75.7906 4.91406C75.4417 4.70052 75.0406 4.59375 74.5875 4.59375C74.1135 4.59375 73.6917 4.70573 73.3219 4.92969C72.9573 5.15365 72.6682 5.45573 72.4547 5.83594C72.2464 6.21094 72.1266 6.61979 72.0953 7.0625H76.8844Z" fill="white"/>
<path d="M86.6781 12.1719C85.8917 12.1719 85.2042 11.987 84.6156 11.6172C84.0323 11.2422 83.5844 10.724 83.2719 10.0625C82.9594 9.40104 82.8031 8.64583 82.8031 7.79688C82.8031 6.94271 82.962 6.1849 83.2797 5.52344C83.6026 4.85677 84.0531 4.33854 84.6312 3.96875C85.2146 3.59375 85.8865 3.40625 86.6469 3.40625C87.2458 3.40625 87.7875 3.51823 88.2719 3.74219C88.7562 3.96094 89.1495 4.27344 89.4516 4.67969C89.7589 5.08073 89.949 5.54688 90.0219 6.07812H88.6781C88.6156 5.80729 88.4958 5.5599 88.3187 5.33594C88.1417 5.11198 87.9125 4.93229 87.6312 4.79688C87.3552 4.66146 87.0375 4.59375 86.6781 4.59375C86.1781 4.59375 85.7354 4.72396 85.35 4.98438C84.9698 5.24479 84.6729 5.61458 84.4594 6.09375C84.251 6.56771 84.1469 7.11979 84.1469 7.75C84.1469 8.40104 84.2484 8.96875 84.4516 9.45312C84.6599 9.9375 84.9542 10.3125 85.3344 10.5781C85.7198 10.8385 86.1677 10.9688 86.6781 10.9688C87.1833 10.9688 87.613 10.8411 87.9672 10.5859C88.3266 10.3255 88.5635 9.96354 88.6781 9.5H90.0219C89.949 10.0104 89.7667 10.4688 89.475 10.875C89.1833 11.276 88.7979 11.5938 88.3187 11.8281C87.8396 12.0573 87.2927 12.1719 86.6781 12.1719Z" fill="white"/>
<path d="M90.8719 9.59375C90.8719 8.71354 91.1714 8.09375 91.7703 7.73438C92.3745 7.375 93.1375 7.16146 94.0594 7.09375C94.4135 7.06771 94.8094 7.04427 95.2469 7.02344C95.6896 6.9974 96.0594 6.97917 96.3562 6.96875V6.28125C96.3562 5.73438 96.1922 5.3151 95.8641 5.02344C95.5411 4.72656 95.0646 4.57812 94.4344 4.57812C93.9187 4.57812 93.4969 4.6849 93.1687 4.89844C92.8406 5.10677 92.6271 5.38021 92.5281 5.71875H91.1219C91.1792 5.26562 91.3562 4.86458 91.6531 4.51562C91.95 4.16667 92.3432 3.89583 92.8328 3.70312C93.3276 3.50521 93.8823 3.40625 94.4969 3.40625C95.3094 3.40625 96.0437 3.61458 96.7 4.03125C97.3562 4.44271 97.6844 5.23438 97.6844 6.40625V12H96.3562V10.8438H96.2937C96.1896 11.0625 96.0281 11.276 95.8094 11.4844C95.5958 11.6875 95.3146 11.8594 94.9656 12C94.6219 12.1354 94.2208 12.2031 93.7625 12.2031C93.2208 12.2031 92.7312 12.099 92.2937 11.8906C91.8562 11.6823 91.5099 11.3828 91.2547 10.9922C90.9995 10.5964 90.8719 10.1302 90.8719 9.59375ZM92.2156 9.65625C92.2156 10.0885 92.3771 10.4219 92.7 10.6562C93.0281 10.8854 93.4604 11 93.9969 11C94.4812 11 94.9005 10.9036 95.2547 10.7109C95.6141 10.5182 95.8875 10.263 96.075 9.94531C96.2625 9.6276 96.3562 9.28646 96.3562 8.92188V8.07031L94.2156 8.21875C93.5802 8.26042 93.088 8.39844 92.7391 8.63281C92.3901 8.86719 92.2156 9.20833 92.2156 9.65625Z" fill="white"/>
<path d="M100.784 12H99.4406V3.51562H100.738V4.84375H100.847C101.06 4.39062 101.37 4.03906 101.777 3.78906C102.188 3.53385 102.706 3.40625 103.331 3.40625C103.915 3.40625 104.42 3.52604 104.847 3.76562C105.274 4 105.605 4.35677 105.839 4.83594C106.073 5.3151 106.191 5.90625 106.191 6.60938V12H104.847V6.70312C104.847 6.04688 104.678 5.53385 104.339 5.16406C104.001 4.79427 103.529 4.60938 102.925 4.60938C102.508 4.60938 102.139 4.70052 101.816 4.88281C101.493 5.0599 101.24 5.32292 101.058 5.67188C100.876 6.01562 100.784 6.42708 100.784 6.90625V12Z" fill="white"/>
<path d="M111.15 12.1719C110.447 12.1719 109.822 11.9922 109.275 11.6328C108.733 11.2734 108.309 10.763 108.002 10.1016C107.694 9.4349 107.541 8.66146 107.541 7.78125C107.541 6.90104 107.694 6.13021 108.002 5.46875C108.309 4.80729 108.736 4.29948 109.283 3.94531C109.83 3.58594 110.457 3.40625 111.166 3.40625C111.666 3.40625 112.08 3.48958 112.408 3.65625C112.736 3.81771 112.978 3.99219 113.134 4.17969C113.291 4.36198 113.452 4.58854 113.619 4.85938H113.713V0.6875H115.072V12H113.759V10.7031H113.619C113.442 10.9792 113.272 11.2109 113.111 11.3984C112.955 11.5859 112.713 11.763 112.384 11.9297C112.056 12.0911 111.645 12.1719 111.15 12.1719ZM111.338 10.9688C111.843 10.9688 112.278 10.8359 112.642 10.5703C113.007 10.2995 113.283 9.92188 113.47 9.4375C113.663 8.94792 113.759 8.38542 113.759 7.75C113.759 7.11979 113.666 6.57031 113.478 6.10156C113.296 5.6276 113.022 5.26042 112.658 5C112.293 4.73958 111.853 4.60938 111.338 4.60938C110.811 4.60938 110.366 4.7474 110.002 5.02344C109.637 5.29427 109.361 5.66667 109.173 6.14062C108.991 6.61458 108.9 7.15104 108.9 7.75C108.9 8.36458 108.991 8.91667 109.173 9.40625C109.361 9.89062 109.637 10.2734 110.002 10.5547C110.371 10.8307 110.817 10.9688 111.338 10.9688Z" fill="white"/>
<path d="M118.344 12H117V0.6875H118.344V12Z" fill="white"/>
<path d="M123.647 12.1719C122.84 12.1719 122.136 11.9922 121.537 11.6328C120.939 11.2734 120.478 10.7656 120.155 10.1094C119.837 9.45312 119.678 8.69271 119.678 7.82812C119.678 6.96354 119.837 6.19792 120.155 5.53125C120.478 4.85938 120.928 4.33854 121.506 3.96875C122.09 3.59375 122.761 3.40625 123.522 3.40625C124.162 3.40625 124.759 3.54948 125.311 3.83594C125.863 4.11719 126.311 4.57552 126.655 5.21094C127.004 5.84115 127.178 6.65104 127.178 7.64062V8.20312H121.022C121.043 8.79167 121.165 9.29427 121.389 9.71094C121.613 10.1276 121.918 10.4453 122.303 10.6641C122.694 10.8776 123.142 10.9844 123.647 10.9844C124.126 10.9844 124.53 10.8958 124.858 10.7188C125.191 10.5365 125.444 10.3021 125.616 10.0156H127.053C126.918 10.4427 126.691 10.8203 126.373 11.1484C126.061 11.4714 125.67 11.724 125.202 11.9062C124.738 12.0833 124.22 12.1719 123.647 12.1719ZM125.819 7.0625C125.819 6.58854 125.722 6.16667 125.53 5.79688C125.342 5.42188 125.074 5.1276 124.725 4.91406C124.376 4.70052 123.975 4.59375 123.522 4.59375C123.048 4.59375 122.626 4.70573 122.256 4.92969C121.892 5.15365 121.603 5.45573 121.389 5.83594C121.181 6.21094 121.061 6.61979 121.03 7.0625H125.819Z" fill="white"/>
<path d="M4.54688 31.1719C3.78125 31.1719 3.10417 30.9922 2.51562 30.6328C1.93229 30.2682 1.47917 29.7552 1.15625 29.0938C0.833333 28.4323 0.671875 27.6667 0.671875 26.7969C0.671875 25.9271 0.833333 25.1615 1.15625 24.5C1.47917 23.8333 1.93229 23.3177 2.51562 22.9531C3.10417 22.5885 3.78125 22.4062 4.54688 22.4062C5.30729 22.4062 5.97656 22.5885 6.55469 22.9531C7.13802 23.3177 7.58854 23.8333 7.90625 24.5C8.22917 25.1615 8.39062 25.9271 8.39062 26.7969C8.39062 27.6667 8.22917 28.4323 7.90625 29.0938C7.58854 29.7552 7.13802 30.2682 6.55469 30.6328C5.97656 30.9922 5.30729 31.1719 4.54688 31.1719ZM4.54688 29.9844C5.09375 29.9844 5.55469 29.8411 5.92969 29.5547C6.30469 29.263 6.58333 28.8776 6.76562 28.3984C6.95312 27.9141 7.04688 27.3802 7.04688 26.7969C7.04688 26.2135 6.95312 25.6797 6.76562 25.1953C6.58333 24.7109 6.30469 24.3229 5.92969 24.0312C5.55469 23.7396 5.09375 23.5938 4.54688 23.5938C3.98958 23.5938 3.52083 23.7396 3.14062 24.0312C2.76562 24.3229 2.48438 24.7109 2.29688 25.1953C2.10938 25.6797 2.01562 26.2135 2.01562 26.7969C2.01562 27.3802 2.10938 27.9141 2.29688 28.3984C2.48438 28.8776 2.76562 29.263 3.14062 29.5547C3.52083 29.8411 3.98958 29.9844 4.54688 29.9844Z" fill="white"/>
<path d="M13.5531 23.6406H11.6781V31H10.3188V23.6406H8.95938V22.5156H10.3188V21.3594C10.3188 20.9062 10.4151 20.5156 10.6078 20.1875C10.8057 19.8542 11.087 19.599 11.4516 19.4219C11.8161 19.2448 12.2458 19.1562 12.7406 19.1562C13.0323 19.1562 13.3656 19.1875 13.7406 19.25V20.4531C13.4906 20.4115 13.2563 20.3906 13.0375 20.3906C12.5688 20.3906 12.225 20.4922 12.0063 20.6953C11.7875 20.8984 11.6781 21.2188 11.6781 21.6562V22.5156H13.5531V23.6406Z" fill="white"/>
<path d="M22.0656 23.6406H20.2844V28.5625C20.2844 29.0625 20.3833 29.3984 20.5812 29.5703C20.7792 29.7422 21.05 29.8281 21.3937 29.8281C21.6542 29.8281 21.9198 29.8177 22.1906 29.7969V31.0469C21.9198 31.0885 21.6073 31.1094 21.2531 31.1094C20.8573 31.1094 20.4823 31.0286 20.1281 30.8672C19.774 30.7005 19.4849 30.4505 19.2609 30.1172C19.037 29.7839 18.925 29.3802 18.925 28.9062V23.6406H17.6437V22.5156H18.925V20.4844H20.2844V22.5156H22.0656V23.6406Z" fill="white"/>
<path d="M24.9312 31H23.5875V19.6875H24.9312V23.8438H25.0406C25.4677 22.8854 26.301 22.4062 27.5406 22.4062C28.4365 22.4062 29.1422 22.6771 29.6578 23.2188C30.1734 23.7552 30.4312 24.5521 30.4312 25.6094V31H29.0875V25.7031C29.0875 25.0417 28.913 24.5286 28.5641 24.1641C28.2203 23.7943 27.7437 23.6094 27.1344 23.6094C26.7073 23.6094 26.3271 23.7005 25.9937 23.8828C25.6656 24.0599 25.4052 24.3229 25.2125 24.6719C25.025 25.0156 24.9312 25.4271 24.9312 25.9062V31Z" fill="white"/>
<path d="M35.75 31.1719C34.9427 31.1719 34.2396 30.9922 33.6406 30.6328C33.0417 30.2734 32.5807 29.7656 32.2578 29.1094C31.9401 28.4531 31.7812 27.6927 31.7812 26.8281C31.7812 25.9635 31.9401 25.1979 32.2578 24.5312C32.5807 23.8594 33.0312 23.3385 33.6094 22.9688C34.1927 22.5938 34.8646 22.4062 35.625 22.4062C36.2656 22.4062 36.862 22.5495 37.4141 22.8359C37.9661 23.1172 38.4141 23.5755 38.7578 24.2109C39.1068 24.8411 39.2812 25.651 39.2812 26.6406V27.2031H33.125C33.1458 27.7917 33.2682 28.2943 33.4922 28.7109C33.7161 29.1276 34.0208 29.4453 34.4062 29.6641C34.7969 29.8776 35.2448 29.9844 35.75 29.9844C36.2292 29.9844 36.6328 29.8958 36.9609 29.7188C37.2943 29.5365 37.5469 29.3021 37.7188 29.0156H39.1562C39.0208 29.4427 38.7943 29.8203 38.4766 30.1484C38.1641 30.4714 37.7734 30.724 37.3047 30.9062C36.8411 31.0833 36.3229 31.1719 35.75 31.1719ZM37.9219 26.0625C37.9219 25.5885 37.8255 25.1667 37.6328 24.7969C37.4453 24.4219 37.1771 24.1276 36.8281 23.9141C36.4792 23.7005 36.0781 23.5938 35.625 23.5938C35.151 23.5938 34.7292 23.7057 34.3594 23.9297C33.9948 24.1536 33.7057 24.4557 33.4922 24.8359C33.2839 25.2109 33.1641 25.6198 33.1328 26.0625H37.9219Z" fill="white"/>
<path d="M48.9656 24.7188C48.8667 24.349 48.674 24.0625 48.3875 23.8594C48.1063 23.651 47.726 23.5469 47.2469 23.5469C46.9031 23.5469 46.5932 23.6042 46.3172 23.7188C46.0464 23.8281 45.8328 23.9818 45.6766 24.1797C45.5255 24.3724 45.45 24.5885 45.45 24.8281C45.45 25.1094 45.5672 25.349 45.8016 25.5469C46.0411 25.7448 46.4083 25.901 46.9031 26.0156L48.1688 26.3281C48.9292 26.5104 49.4969 26.7917 49.8719 27.1719C50.2469 27.5469 50.4344 28.0312 50.4344 28.625C50.4344 29.1198 50.3016 29.5599 50.0359 29.9453C49.7755 30.3255 49.3953 30.625 48.8953 30.8438C48.3953 31.0625 47.799 31.1719 47.1063 31.1719C46.1531 31.1719 45.3979 30.9688 44.8406 30.5625C44.2833 30.151 43.95 29.5573 43.8406 28.7812H45.2469C45.325 29.1927 45.5151 29.5 45.8172 29.7031C46.1193 29.901 46.5385 30 47.075 30C47.6792 30 48.1583 29.8828 48.5125 29.6484C48.8667 29.4141 49.0438 29.099 49.0438 28.7031C49.0438 28.401 48.9318 28.151 48.7078 27.9531C48.4839 27.75 48.1323 27.5938 47.6531 27.4844L46.3719 27.1875C45.6323 27.0156 45.0698 26.7344 44.6844 26.3438C44.299 25.9531 44.1063 25.474 44.1063 24.9062C44.1063 24.4271 44.2365 23.9974 44.4969 23.6172C44.7625 23.237 45.1323 22.9401 45.6063 22.7266C46.0854 22.513 46.6323 22.4062 47.2469 22.4062C47.8198 22.4062 48.325 22.5026 48.7625 22.6953C49.2 22.888 49.5464 23.1589 49.8016 23.5078C50.062 23.8568 50.2208 24.2604 50.2781 24.7188H48.9656Z" fill="white"/>
<path d="M53.1281 31H51.7844V19.6875H53.1281V23.8438H53.2375C53.6646 22.8854 54.4979 22.4062 55.7375 22.4062C56.6333 22.4062 57.3391 22.6771 57.8547 23.2188C58.3703 23.7552 58.6281 24.5521 58.6281 25.6094V31H57.2844V25.7031C57.2844 25.0417 57.1099 24.5286 56.7609 24.1641C56.4172 23.7943 55.9406 23.6094 55.3312 23.6094C54.9042 23.6094 54.524 23.7005 54.1906 23.8828C53.8625 24.0599 53.6021 24.3229 53.4094 24.6719C53.2219 25.0156 53.1281 25.4271 53.1281 25.9062V31Z" fill="white"/>
<path d="M59.9781 28.5938C59.9781 27.7135 60.2776 27.0938 60.8766 26.7344C61.4807 26.375 62.2438 26.1615 63.1656 26.0938C63.5198 26.0677 63.9156 26.0443 64.3531 26.0234C64.7958 25.9974 65.1656 25.9792 65.4625 25.9688V25.2812C65.4625 24.7344 65.2984 24.3151 64.9703 24.0234C64.6474 23.7266 64.1708 23.5781 63.5406 23.5781C63.025 23.5781 62.6031 23.6849 62.275 23.8984C61.9469 24.1068 61.7333 24.3802 61.6344 24.7188H60.2281C60.2854 24.2656 60.4625 23.8646 60.7594 23.5156C61.0563 23.1667 61.4495 22.8958 61.9391 22.7031C62.4339 22.5052 62.9885 22.4062 63.6031 22.4062C64.4156 22.4062 65.15 22.6146 65.8063 23.0312C66.4625 23.4427 66.7906 24.2344 66.7906 25.4062V31H65.4625V29.8438H65.4C65.2958 30.0625 65.1344 30.276 64.9156 30.4844C64.7021 30.6875 64.4208 30.8594 64.0719 31C63.7281 31.1354 63.3271 31.2031 62.8688 31.2031C62.3271 31.2031 61.8375 31.099 61.4 30.8906C60.9625 30.6823 60.6161 30.3828 60.3609 29.9922C60.1057 29.5964 59.9781 29.1302 59.9781 28.5938ZM61.3219 28.6562C61.3219 29.0885 61.4833 29.4219 61.8063 29.6562C62.1344 29.8854 62.5667 30 63.1031 30C63.5875 30 64.0068 29.9036 64.3609 29.7109C64.7203 29.5182 64.9938 29.263 65.1813 28.9453C65.3688 28.6276 65.4625 28.2865 65.4625 27.9219V27.0703L63.3219 27.2188C62.6865 27.2604 62.1943 27.3984 61.8453 27.6328C61.4964 27.8672 61.3219 28.2083 61.3219 28.6562Z" fill="white"/>
<path d="M68.5469 22.5156H69.8438V23.8594H70C70.1667 23.5885 70.3281 23.362 70.4844 23.1797C70.6406 22.9922 70.8828 22.8177 71.2109 22.6562C71.5391 22.4896 71.9531 22.4062 72.4531 22.4062C73.1615 22.4062 73.7865 22.5859 74.3281 22.9453C74.875 23.2995 75.2995 23.8073 75.6016 24.4688C75.9089 25.1302 76.0625 25.901 76.0625 26.7812C76.0625 27.6615 75.9089 28.4349 75.6016 29.1016C75.2995 29.763 74.875 30.2734 74.3281 30.6328C73.7865 30.9922 73.1667 31.1719 72.4688 31.1719C71.974 31.1719 71.5599 31.0911 71.2266 30.9297C70.8984 30.763 70.651 30.5833 70.4844 30.3906C70.3177 30.1927 70.1562 29.9635 70 29.7031H69.8906V34.1875H68.5469V22.5156ZM69.8594 26.75C69.8594 27.3906 69.9531 27.9531 70.1406 28.4375C70.3281 28.9219 70.6042 29.2995 70.9688 29.5703C71.3333 29.8359 71.7708 29.9688 72.2812 29.9688C72.8021 29.9688 73.2448 29.8307 73.6094 29.5547C73.9792 29.2734 74.2552 28.8906 74.4375 28.4062C74.625 27.9167 74.7188 27.3646 74.7188 26.75C74.7188 26.151 74.625 25.6146 74.4375 25.1406C74.2552 24.6667 73.9818 24.2943 73.6172 24.0234C73.2526 23.7474 72.8073 23.6094 72.2812 23.6094C71.7604 23.6094 71.3177 23.7396 70.9531 24C70.5938 24.2604 70.3203 24.6276 70.1328 25.1016C69.9505 25.5703 69.8594 26.1198 69.8594 26.75Z" fill="white"/>
<path d="M80.975 31.1719C80.1677 31.1719 79.4646 30.9922 78.8656 30.6328C78.2667 30.2734 77.8057 29.7656 77.4828 29.1094C77.1651 28.4531 77.0062 27.6927 77.0062 26.8281C77.0062 25.9635 77.1651 25.1979 77.4828 24.5312C77.8057 23.8594 78.2562 23.3385 78.8344 22.9688C79.4177 22.5938 80.0896 22.4062 80.85 22.4062C81.4906 22.4062 82.087 22.5495 82.6391 22.8359C83.1911 23.1172 83.6391 23.5755 83.9828 24.2109C84.3318 24.8411 84.5062 25.651 84.5062 26.6406V27.2031H78.35C78.3708 27.7917 78.4932 28.2943 78.7172 28.7109C78.9411 29.1276 79.2458 29.4453 79.6312 29.6641C80.0219 29.8776 80.4698 29.9844 80.975 29.9844C81.4542 29.9844 81.8578 29.8958 82.1859 29.7188C82.5193 29.5365 82.7719 29.3021 82.9437 29.0156H84.3812C84.2458 29.4427 84.0193 29.8203 83.7016 30.1484C83.3891 30.4714 82.9984 30.724 82.5297 30.9062C82.0661 31.0833 81.5479 31.1719 80.975 31.1719ZM83.1469 26.0625C83.1469 25.5885 83.0505 25.1667 82.8578 24.7969C82.6703 24.4219 82.4021 24.1276 82.0531 23.9141C81.7042 23.7005 81.3031 23.5938 80.85 23.5938C80.376 23.5938 79.9542 23.7057 79.5844 23.9297C79.2198 24.1536 78.9307 24.4557 78.7172 24.8359C78.5089 25.2109 78.3891 25.6198 78.3578 26.0625H83.1469Z" fill="white"/>
<path d="M90.3313 34.1875C90.0604 34.1875 89.8104 34.1771 89.5813 34.1562V32.9531C89.7688 32.974 89.9875 32.9844 90.2375 32.9844C90.4615 32.9844 90.649 32.9609 90.8 32.9141C90.951 32.8672 91.1021 32.75 91.2531 32.5625C91.4042 32.3802 91.55 32.0938 91.6906 31.7031L91.9406 31.0625L88.8 22.5156H90.2688L92.5813 29.25H92.675L94.9875 22.5156H96.4563L92.8625 32.2188C92.6125 32.8802 92.2792 33.3724 91.8625 33.6953C91.4458 34.0234 90.9354 34.1875 90.3313 34.1875Z" fill="white"/>
<path d="M100.697 31.1719C99.9313 31.1719 99.2542 30.9922 98.6656 30.6328C98.0823 30.2682 97.6292 29.7552 97.3063 29.0938C96.9833 28.4323 96.8219 27.6667 96.8219 26.7969C96.8219 25.9271 96.9833 25.1615 97.3063 24.5C97.6292 23.8333 98.0823 23.3177 98.6656 22.9531C99.2542 22.5885 99.9313 22.4062 100.697 22.4062C101.457 22.4062 102.127 22.5885 102.705 22.9531C103.288 23.3177 103.739 23.8333 104.056 24.5C104.379 25.1615 104.541 25.9271 104.541 26.7969C104.541 27.6667 104.379 28.4323 104.056 29.0938C103.739 29.7552 103.288 30.2682 102.705 30.6328C102.127 30.9922 101.457 31.1719 100.697 31.1719ZM100.697 29.9844C101.244 29.9844 101.705 29.8411 102.08 29.5547C102.455 29.263 102.733 28.8776 102.916 28.3984C103.103 27.9141 103.197 27.3802 103.197 26.7969C103.197 26.2135 103.103 25.6797 102.916 25.1953C102.733 24.7109 102.455 24.3229 102.08 24.0312C101.705 23.7396 101.244 23.5938 100.697 23.5938C100.14 23.5938 99.6708 23.7396 99.2906 24.0312C98.9156 24.3229 98.6344 24.7109 98.4469 25.1953C98.2594 25.6797 98.1656 26.2135 98.1656 26.7969C98.1656 27.3802 98.2594 27.9141 98.4469 28.3984C98.6344 28.8776 98.9156 29.263 99.2906 29.5547C99.6708 29.8411 100.14 29.9844 100.697 29.9844Z" fill="white"/>
<path d="M111.266 22.5156H112.594V31H111.266V29.5625H111.172C110.953 30.026 110.63 30.401 110.203 30.6875C109.781 30.9688 109.266 31.1094 108.656 31.1094C108.109 31.1094 107.63 30.9922 107.219 30.7578C106.807 30.5182 106.484 30.1589 106.25 29.6797C106.021 29.2005 105.906 28.6094 105.906 27.9062V22.5156H107.25V27.8125C107.25 28.2135 107.328 28.5651 107.484 28.8672C107.641 29.1693 107.857 29.4036 108.133 29.5703C108.414 29.7318 108.734 29.8125 109.094 29.8125C109.432 29.8125 109.768 29.7266 110.102 29.5547C110.44 29.3828 110.719 29.125 110.938 28.7812C111.156 28.4323 111.266 28.0104 111.266 27.5156V22.5156Z" fill="white"/>
<path d="M117.294 22.5156H118.716L120.528 28.9844H120.606L122.403 22.5156H123.841L125.606 28.9531H125.7L127.512 22.5156H128.919L126.341 31H125.012L123.169 24.5312H123.044L121.216 31H119.872L117.294 22.5156Z" fill="white"/>
<path d="M129.597 28.5938C129.597 27.7135 129.896 27.0938 130.495 26.7344C131.099 26.375 131.863 26.1615 132.784 26.0938C133.139 26.0677 133.534 26.0443 133.972 26.0234C134.415 25.9974 134.784 25.9792 135.081 25.9688V25.2812C135.081 24.7344 134.917 24.3151 134.589 24.0234C134.266 23.7266 133.79 23.5781 133.159 23.5781C132.644 23.5781 132.222 23.6849 131.894 23.8984C131.566 24.1068 131.352 24.3802 131.253 24.7188H129.847C129.904 24.2656 130.081 23.8646 130.378 23.5156C130.675 23.1667 131.068 22.8958 131.558 22.7031C132.053 22.5052 132.607 22.4062 133.222 22.4062C134.034 22.4062 134.769 22.6146 135.425 23.0312C136.081 23.4427 136.409 24.2344 136.409 25.4062V31H135.081V29.8438H135.019C134.915 30.0625 134.753 30.276 134.534 30.4844C134.321 30.6875 134.04 30.8594 133.691 31C133.347 31.1354 132.946 31.2031 132.488 31.2031C131.946 31.2031 131.456 31.099 131.019 30.8906C130.581 30.6823 130.235 30.3828 129.98 29.9922C129.724 29.5964 129.597 29.1302 129.597 28.5938ZM130.941 28.6562C130.941 29.0885 131.102 29.4219 131.425 29.6562C131.753 29.8854 132.185 30 132.722 30C133.206 30 133.626 29.9036 133.98 29.7109C134.339 29.5182 134.613 29.263 134.8 28.9453C134.988 28.6276 135.081 28.2865 135.081 27.9219V27.0703L132.941 27.2188C132.305 27.2604 131.813 27.3984 131.464 27.6328C131.115 27.8672 130.941 28.2083 130.941 28.6562Z" fill="white"/>
<path d="M139.509 31H138.166V22.5156H139.462V23.8438H139.572C139.785 23.3906 140.095 23.0391 140.502 22.7891C140.913 22.5339 141.431 22.4062 142.056 22.4062C142.64 22.4062 143.145 22.526 143.572 22.7656C143.999 23 144.33 23.3568 144.564 23.8359C144.798 24.3151 144.916 24.9062 144.916 25.6094V31H143.572V25.7031C143.572 25.0469 143.403 24.5339 143.064 24.1641C142.726 23.7943 142.254 23.6094 141.65 23.6094C141.233 23.6094 140.864 23.7005 140.541 23.8828C140.218 24.0599 139.965 24.3229 139.783 24.6719C139.601 25.0156 139.509 25.4271 139.509 25.9062V31Z" fill="white"/>
<path d="M150.375 23.6406H148.594V28.5625C148.594 29.0625 148.693 29.3984 148.891 29.5703C149.089 29.7422 149.359 29.8281 149.703 29.8281C149.964 29.8281 150.229 29.8177 150.5 29.7969V31.0469C150.229 31.0885 149.917 31.1094 149.562 31.1094C149.167 31.1094 148.792 31.0286 148.438 30.8672C148.083 30.7005 147.794 30.4505 147.57 30.1172C147.346 29.7839 147.234 29.3802 147.234 28.9062V23.6406H145.953V22.5156H147.234V20.4844H148.594V22.5156H150.375V23.6406Z" fill="white"/>
<path d="M152.663 31.0938C152.48 31.0938 152.311 31.0495 152.155 30.9609C152.004 30.8672 151.881 30.7422 151.788 30.5859C151.699 30.4297 151.657 30.2604 151.663 30.0781C151.657 29.901 151.699 29.737 151.788 29.5859C151.881 29.4297 152.004 29.3073 152.155 29.2188C152.311 29.125 152.48 29.0781 152.663 29.0781C152.84 29.0781 153.004 29.125 153.155 29.2188C153.311 29.3073 153.433 29.4297 153.522 29.5859C153.616 29.737 153.663 29.901 153.663 30.0781C153.663 30.2604 153.616 30.4297 153.522 30.5859C153.433 30.7422 153.311 30.8672 153.155 30.9609C153.004 31.0495 152.84 31.0938 152.663 31.0938Z" fill="white"/>
<path d="M17.9283 63.0717L13.0294 67.9706M8.13709 63.0782L13.0294 67.9706M13.0294 67.9706L13.0402 51.9022C13.0431 47.4881 16.6207 43.9105 21.0348 43.9075L22.9063 43.9063" stroke="white" stroke-linecap="round" stroke-linejoin="bevel"/>
</svg>
