<svg width="187" height="32" viewBox="0 0 187 32" fill="none" xmlns="http://www.w3.org/2000/svg">
<path d="M1.80005 12H0.393799V0.6875H1.80005V12Z" fill="white"/>
<path d="M7.52505 4.64062H5.65005V12H4.29067V4.64062H2.9313V3.51562H4.29067V2.35938C4.29067 1.90625 4.38703 1.51562 4.57974 1.1875C4.77765 0.854167 5.0589 0.598958 5.42349 0.421875C5.78807 0.244792 6.21776 0.15625 6.71255 0.15625C7.00422 0.15625 7.33755 0.1875 7.71255 0.25V1.45312C7.46255 1.41146 7.22817 1.39062 7.00942 1.39062C6.54067 1.39062 6.19692 1.49219 5.97817 1.69531C5.75942 1.89844 5.65005 2.21875 5.65005 2.65625V3.51562H7.52505V4.64062Z" fill="white"/>
<path d="M13.1938 15.1875C12.923 15.1875 12.673 15.1771 12.4438 15.1562V13.9531C12.6313 13.974 12.85 13.9844 13.1 13.9844C13.324 13.9844 13.5115 13.9609 13.6625 13.9141C13.8136 13.8672 13.9646 13.75 14.1157 13.5625C14.2667 13.3802 14.4125 13.0938 14.5532 12.7031L14.8032 12.0625L11.6625 3.51562H13.1313L15.4438 10.25H15.5375L17.85 3.51562H19.3188L15.725 13.2188C15.475 13.8802 15.1417 14.3724 14.725 14.6953C14.3084 15.0234 13.798 15.1875 13.1938 15.1875Z" fill="white"/>
<path d="M23.5594 12.1719C22.7938 12.1719 22.1167 11.9922 21.5282 11.6328C20.9448 11.2682 20.4917 10.7552 20.1688 10.0938C19.8459 9.43229 19.6844 8.66667 19.6844 7.79688C19.6844 6.92708 19.8459 6.16146 20.1688 5.5C20.4917 4.83333 20.9448 4.31771 21.5282 3.95312C22.1167 3.58854 22.7938 3.40625 23.5594 3.40625C24.3198 3.40625 24.9891 3.58854 25.5672 3.95312C26.1506 4.31771 26.6011 4.83333 26.9188 5.5C27.2417 6.16146 27.4032 6.92708 27.4032 7.79688C27.4032 8.66667 27.2417 9.43229 26.9188 10.0938C26.6011 10.7552 26.1506 11.2682 25.5672 11.6328C24.9891 11.9922 24.3198 12.1719 23.5594 12.1719ZM23.5594 10.9844C24.1063 10.9844 24.5672 10.8411 24.9422 10.5547C25.3172 10.263 25.5959 9.8776 25.7782 9.39844C25.9657 8.91406 26.0594 8.38021 26.0594 7.79688C26.0594 7.21354 25.9657 6.67969 25.7782 6.19531C25.5959 5.71094 25.3172 5.32292 24.9422 5.03125C24.5672 4.73958 24.1063 4.59375 23.5594 4.59375C23.0021 4.59375 22.5334 4.73958 22.1532 5.03125C21.7782 5.32292 21.4969 5.71094 21.3094 6.19531C21.1219 6.67969 21.0282 7.21354 21.0282 7.79688C21.0282 8.38021 21.1219 8.91406 21.3094 9.39844C21.4969 9.8776 21.7782 10.263 22.1532 10.5547C22.5334 10.8411 23.0021 10.9844 23.5594 10.9844Z" fill="white"/>
<path d="M34.1282 3.51562H35.4563V12H34.1282V10.5625H34.0344C33.8157 11.026 33.4928 11.401 33.0657 11.6875C32.6438 11.9688 32.1282 12.1094 31.5188 12.1094C30.9719 12.1094 30.4928 11.9922 30.0813 11.7578C29.6698 11.5182 29.3469 11.1589 29.1125 10.6797C28.8834 10.2005 28.7688 9.60938 28.7688 8.90625V3.51562H30.1125V8.8125C30.1125 9.21354 30.1907 9.5651 30.3469 9.86719C30.5032 10.1693 30.7193 10.4036 30.9954 10.5703C31.2766 10.7318 31.5969 10.8125 31.9563 10.8125C32.2948 10.8125 32.6308 10.7266 32.9641 10.5547C33.3027 10.3828 33.5813 10.125 33.8 9.78125C34.0188 9.43229 34.1282 9.01042 34.1282 8.51562V3.51562Z" fill="white"/>
<path d="M40.1563 3.51562H41.5782L43.3907 9.98438H43.4688L45.2657 3.51562H46.7032L48.4688 9.95312H48.5625L50.375 3.51562H51.7813L49.2032 12H47.875L46.0313 5.53125H45.9063L44.0782 12H42.7344L40.1563 3.51562Z" fill="white"/>
<path d="M52.4594 9.59375C52.4594 8.71354 52.7589 8.09375 53.3579 7.73438C53.962 7.375 54.725 7.16146 55.6469 7.09375C56.0011 7.06771 56.3969 7.04427 56.8344 7.02344C57.2771 6.9974 57.6469 6.97917 57.9438 6.96875V6.28125C57.9438 5.73438 57.7797 5.3151 57.4516 5.02344C57.1287 4.72656 56.6521 4.57812 56.0219 4.57812C55.5063 4.57812 55.0844 4.6849 54.7563 4.89844C54.4282 5.10677 54.2146 5.38021 54.1157 5.71875H52.7094C52.7667 5.26562 52.9438 4.86458 53.2407 4.51562C53.5375 4.16667 53.9308 3.89583 54.4204 3.70312C54.9152 3.50521 55.4698 3.40625 56.0844 3.40625C56.8969 3.40625 57.6313 3.61458 58.2875 4.03125C58.9438 4.44271 59.2719 5.23438 59.2719 6.40625V12H57.9438V10.8438H57.8813C57.7771 11.0625 57.6157 11.276 57.3969 11.4844C57.1834 11.6875 56.9021 11.8594 56.5532 12C56.2094 12.1354 55.8084 12.2031 55.35 12.2031C54.8084 12.2031 54.3188 12.099 53.8813 11.8906C53.4438 11.6823 53.0974 11.3828 52.8422 10.9922C52.587 10.5964 52.4594 10.1302 52.4594 9.59375ZM53.8032 9.65625C53.8032 10.0885 53.9646 10.4219 54.2875 10.6562C54.6157 10.8854 55.048 11 55.5844 11C56.0688 11 56.4881 10.9036 56.8422 10.7109C57.2016 10.5182 57.475 10.263 57.6625 9.94531C57.85 9.6276 57.9438 9.28646 57.9438 8.92188V8.07031L55.8032 8.21875C55.1678 8.26042 54.6756 8.39844 54.3266 8.63281C53.9777 8.86719 53.8032 9.20833 53.8032 9.65625Z" fill="white"/>
<path d="M62.3719 12H61.0282V3.51562H62.3251V4.84375H62.4344C62.648 4.39062 62.9579 4.03906 63.3641 3.78906C63.7756 3.53385 64.2938 3.40625 64.9188 3.40625C65.5021 3.40625 66.0073 3.52604 66.4344 3.76562C66.8615 4 67.1922 4.35677 67.4266 4.83594C67.661 5.3151 67.7782 5.90625 67.7782 6.60938V12H66.4344V6.70312C66.4344 6.04688 66.2652 5.53385 65.9266 5.16406C65.5881 4.79427 65.1167 4.60938 64.5126 4.60938C64.0959 4.60938 63.7261 4.70052 63.4032 4.88281C63.0803 5.0599 62.8277 5.32292 62.6454 5.67188C62.4631 6.01562 62.3719 6.42708 62.3719 6.90625V12Z" fill="white"/>
<path d="M73.2375 4.64062H71.4563V9.5625C71.4563 10.0625 71.5553 10.3984 71.7532 10.5703C71.9511 10.7422 72.2219 10.8281 72.5657 10.8281C72.8261 10.8281 73.0917 10.8177 73.3625 10.7969V12.0469C73.0917 12.0885 72.7792 12.1094 72.425 12.1094C72.0292 12.1094 71.6542 12.0286 71.3 11.8672C70.9459 11.7005 70.6568 11.4505 70.4329 11.1172C70.2089 10.7839 70.0969 10.3802 70.0969 9.90625V4.64062H68.8157V3.51562H70.0969V1.48438H71.4563V3.51562H73.2375V4.64062Z" fill="white"/>
<path d="M81.8907 4.64062H80.1094V9.5625C80.1094 10.0625 80.2084 10.3984 80.4063 10.5703C80.6042 10.7422 80.875 10.8281 81.2188 10.8281C81.4792 10.8281 81.7448 10.8177 82.0157 10.7969V12.0469C81.7448 12.0885 81.4323 12.1094 81.0782 12.1094C80.6823 12.1094 80.3073 12.0286 79.9532 11.8672C79.599 11.7005 79.3099 11.4505 79.086 11.1172C78.862 10.7839 78.75 10.3802 78.75 9.90625V4.64062H77.4688V3.51562H78.75V1.48438H80.1094V3.51562H81.8907V4.64062Z" fill="white"/>
<path d="M86.6001 12.1719C85.8344 12.1719 85.1573 11.9922 84.5688 11.6328C83.9855 11.2682 83.5323 10.7552 83.2094 10.0938C82.8865 9.43229 82.7251 8.66667 82.7251 7.79688C82.7251 6.92708 82.8865 6.16146 83.2094 5.5C83.5323 4.83333 83.9855 4.31771 84.5688 3.95312C85.1573 3.58854 85.8344 3.40625 86.6001 3.40625C87.3605 3.40625 88.0297 3.58854 88.6079 3.95312C89.1912 4.31771 89.6417 4.83333 89.9594 5.5C90.2823 6.16146 90.4438 6.92708 90.4438 7.79688C90.4438 8.66667 90.2823 9.43229 89.9594 10.0938C89.6417 10.7552 89.1912 11.2682 88.6079 11.6328C88.0297 11.9922 87.3605 12.1719 86.6001 12.1719ZM86.6001 10.9844C87.1469 10.9844 87.6079 10.8411 87.9829 10.5547C88.3579 10.263 88.6365 9.8776 88.8188 9.39844C89.0063 8.91406 89.1001 8.38021 89.1001 7.79688C89.1001 7.21354 89.0063 6.67969 88.8188 6.19531C88.6365 5.71094 88.3579 5.32292 87.9829 5.03125C87.6079 4.73958 87.1469 4.59375 86.6001 4.59375C86.0428 4.59375 85.574 4.73958 85.1938 5.03125C84.8188 5.32292 84.5376 5.71094 84.3501 6.19531C84.1626 6.67969 84.0688 7.21354 84.0688 7.79688C84.0688 8.38021 84.1626 8.91406 84.3501 9.39844C84.5376 9.8776 84.8188 10.263 85.1938 10.5547C85.574 10.8411 86.0428 10.9844 86.6001 10.9844Z" fill="white"/>
<path d="M96.7688 12H95.425V0.6875H96.7688V12Z" fill="white"/>
<path d="M98.5094 3.51562H99.8532V12H98.5094V3.51562ZM99.1813 2.10938C98.9209 2.10938 98.6995 2.02344 98.5172 1.85156C98.3349 1.67969 98.2438 1.46875 98.2438 1.21875C98.2438 0.96875 98.3349 0.757812 98.5172 0.585938C98.6995 0.414062 98.9209 0.328125 99.1813 0.328125C99.4417 0.328125 99.6657 0.414062 99.8532 0.585938C100.041 0.757812 100.134 0.96875 100.134 1.21875C100.134 1.46875 100.041 1.67969 99.8532 1.85156C99.6657 2.02344 99.4417 2.10938 99.1813 2.10938Z" fill="white"/>
<path d="M105.031 15.3594C104.349 15.3594 103.745 15.263 103.219 15.0703C102.698 14.8776 102.284 14.5964 101.977 14.2266C101.669 13.8568 101.49 13.4115 101.438 12.8906H102.844C102.938 13.3177 103.172 13.6406 103.547 13.8594C103.927 14.0781 104.422 14.1875 105.031 14.1875C105.781 14.1875 106.359 14.0208 106.766 13.6875C107.172 13.3542 107.375 12.8438 107.375 12.1562V10.4375H107.266C107.115 10.6927 106.956 10.9167 106.789 11.1094C106.622 11.3021 106.372 11.4792 106.039 11.6406C105.711 11.7969 105.297 11.875 104.797 11.875C104.104 11.875 103.484 11.7057 102.938 11.3672C102.391 11.0286 101.961 10.5417 101.648 9.90625C101.341 9.26562 101.188 8.51042 101.188 7.64062C101.188 6.78646 101.341 6.03906 101.648 5.39844C101.956 4.75781 102.383 4.26562 102.93 3.92188C103.477 3.57812 104.104 3.40625 104.813 3.40625C105.307 3.40625 105.719 3.48698 106.047 3.64844C106.38 3.8099 106.617 3.97656 106.758 4.14844C106.904 4.3151 107.083 4.55208 107.297 4.85938H107.406V3.51562H108.719V12.2344C108.719 12.9375 108.557 13.5208 108.234 13.9844C107.917 14.4531 107.482 14.7995 106.93 15.0234C106.378 15.2474 105.745 15.3594 105.031 15.3594ZM104.984 10.6719C105.755 10.6719 106.352 10.4115 106.773 9.89062C107.195 9.36458 107.406 8.63021 107.406 7.6875C107.406 7.07812 107.313 6.54167 107.125 6.07812C106.938 5.61458 106.662 5.25521 106.297 5C105.938 4.73958 105.5 4.60938 104.984 4.60938C104.458 4.60938 104.013 4.74479 103.648 5.01562C103.284 5.28646 103.008 5.65625 102.82 6.125C102.638 6.58854 102.547 7.10938 102.547 7.6875C102.547 8.28125 102.638 8.80208 102.82 9.25C103.008 9.69792 103.284 10.0469 103.648 10.2969C104.013 10.5469 104.458 10.6719 104.984 10.6719Z" fill="white"/>
<path d="M111.803 12H110.459V0.6875H111.803V4.84375H111.913C112.34 3.88542 113.173 3.40625 114.413 3.40625C115.308 3.40625 116.014 3.67708 116.53 4.21875C117.045 4.75521 117.303 5.55208 117.303 6.60938V12H115.959V6.70312C115.959 6.04167 115.785 5.52865 115.436 5.16406C115.092 4.79427 114.616 4.60938 114.006 4.60938C113.579 4.60938 113.199 4.70052 112.866 4.88281C112.538 5.0599 112.277 5.32292 112.084 5.67188C111.897 6.01562 111.803 6.42708 111.803 6.90625V12Z" fill="white"/>
<path d="M122.763 4.64062H120.981V9.5625C120.981 10.0625 121.08 10.3984 121.278 10.5703C121.476 10.7422 121.747 10.8281 122.091 10.8281C122.351 10.8281 122.617 10.8177 122.888 10.7969V12.0469C122.617 12.0885 122.304 12.1094 121.95 12.1094C121.554 12.1094 121.179 12.0286 120.825 11.8672C120.471 11.7005 120.182 11.4505 119.958 11.1172C119.734 10.7839 119.622 10.3802 119.622 9.90625V4.64062H118.341V3.51562H119.622V1.48438H120.981V3.51562H122.763V4.64062Z" fill="white"/>
<path d="M127.306 9.59375C127.306 8.71354 127.606 8.09375 128.205 7.73438C128.809 7.375 129.572 7.16146 130.494 7.09375C130.848 7.06771 131.244 7.04427 131.681 7.02344C132.124 6.9974 132.494 6.97917 132.791 6.96875V6.28125C132.791 5.73438 132.627 5.3151 132.298 5.02344C131.976 4.72656 131.499 4.57812 130.869 4.57812C130.353 4.57812 129.931 4.6849 129.603 4.89844C129.275 5.10677 129.062 5.38021 128.963 5.71875H127.556C127.614 5.26562 127.791 4.86458 128.088 4.51562C128.384 4.16667 128.778 3.89583 129.267 3.70312C129.762 3.50521 130.317 3.40625 130.931 3.40625C131.744 3.40625 132.478 3.61458 133.134 4.03125C133.791 4.44271 134.119 5.23438 134.119 6.40625V12H132.791V10.8438H132.728C132.624 11.0625 132.463 11.276 132.244 11.4844C132.03 11.6875 131.749 11.8594 131.4 12C131.056 12.1354 130.655 12.2031 130.197 12.2031C129.655 12.2031 129.166 12.099 128.728 11.8906C128.291 11.6823 127.944 11.3828 127.689 10.9922C127.434 10.5964 127.306 10.1302 127.306 9.59375ZM128.65 9.65625C128.65 10.0885 128.812 10.4219 129.134 10.6562C129.463 10.8854 129.895 11 130.431 11C130.916 11 131.335 10.9036 131.689 10.7109C132.048 10.5182 132.322 10.263 132.509 9.94531C132.697 9.6276 132.791 9.28646 132.791 8.92188V8.07031L130.65 8.21875C130.015 8.26042 129.522 8.39844 129.173 8.63281C128.825 8.86719 128.65 9.20833 128.65 9.65625Z" fill="white"/>
<path d="M142.959 12.1719C142.173 12.1719 141.485 11.987 140.897 11.6172C140.314 11.2422 139.866 10.724 139.553 10.0625C139.241 9.40104 139.084 8.64583 139.084 7.79688C139.084 6.94271 139.243 6.1849 139.561 5.52344C139.884 4.85677 140.334 4.33854 140.913 3.96875C141.496 3.59375 142.168 3.40625 142.928 3.40625C143.527 3.40625 144.069 3.51823 144.553 3.74219C145.038 3.96094 145.431 4.27344 145.733 4.67969C146.04 5.08073 146.23 5.54688 146.303 6.07812H144.959C144.897 5.80729 144.777 5.5599 144.6 5.33594C144.423 5.11198 144.194 4.93229 143.913 4.79688C143.637 4.66146 143.319 4.59375 142.959 4.59375C142.459 4.59375 142.017 4.72396 141.631 4.98438C141.251 5.24479 140.954 5.61458 140.741 6.09375C140.532 6.56771 140.428 7.11979 140.428 7.75C140.428 8.40104 140.53 8.96875 140.733 9.45312C140.941 9.9375 141.235 10.3125 141.616 10.5781C142.001 10.8385 142.449 10.9688 142.959 10.9688C143.465 10.9688 143.894 10.8411 144.248 10.5859C144.608 10.3255 144.845 9.96354 144.959 9.5H146.303C146.23 10.0104 146.048 10.4688 145.756 10.875C145.465 11.276 145.079 11.5938 144.6 11.8281C144.121 12.0573 143.574 12.1719 142.959 12.1719Z" fill="white"/>
<path d="M147.153 9.59375C147.153 8.71354 147.453 8.09375 148.052 7.73438C148.656 7.375 149.419 7.16146 150.341 7.09375C150.695 7.06771 151.091 7.04427 151.528 7.02344C151.971 6.9974 152.341 6.97917 152.638 6.96875V6.28125C152.638 5.73438 152.473 5.3151 152.145 5.02344C151.822 4.72656 151.346 4.57812 150.716 4.57812C150.2 4.57812 149.778 4.6849 149.45 4.89844C149.122 5.10677 148.908 5.38021 148.809 5.71875H147.403C147.46 5.26562 147.638 4.86458 147.934 4.51562C148.231 4.16667 148.625 3.89583 149.114 3.70312C149.609 3.50521 150.164 3.40625 150.778 3.40625C151.591 3.40625 152.325 3.61458 152.981 4.03125C153.638 4.44271 153.966 5.23438 153.966 6.40625V12H152.638V10.8438H152.575C152.471 11.0625 152.309 11.276 152.091 11.4844C151.877 11.6875 151.596 11.8594 151.247 12C150.903 12.1354 150.502 12.2031 150.044 12.2031C149.502 12.2031 149.013 12.099 148.575 11.8906C148.138 11.6823 147.791 11.3828 147.536 10.9922C147.281 10.5964 147.153 10.1302 147.153 9.59375ZM148.497 9.65625C148.497 10.0885 148.658 10.4219 148.981 10.6562C149.309 10.8854 149.742 11 150.278 11C150.763 11 151.182 10.9036 151.536 10.7109C151.895 10.5182 152.169 10.263 152.356 9.94531C152.544 9.6276 152.638 9.28646 152.638 8.92188V8.07031L150.497 8.21875C149.862 8.26042 149.369 8.39844 149.02 8.63281C148.671 8.86719 148.497 9.20833 148.497 9.65625Z" fill="white"/>
<path d="M157.066 12H155.722V3.51562H157.019V4.84375H157.128C157.342 4.39062 157.652 4.03906 158.058 3.78906C158.469 3.53385 158.988 3.40625 159.613 3.40625C160.196 3.40625 160.701 3.52604 161.128 3.76562C161.555 4 161.886 4.35677 162.12 4.83594C162.355 5.3151 162.472 5.90625 162.472 6.60938V12H161.128V6.70312C161.128 6.04688 160.959 5.53385 160.62 5.16406C160.282 4.79427 159.81 4.60938 159.206 4.60938C158.79 4.60938 158.42 4.70052 158.097 4.88281C157.774 5.0599 157.521 5.32292 157.339 5.67188C157.157 6.01562 157.066 6.42708 157.066 6.90625V12Z" fill="white"/>
<path d="M167.431 12.1719C166.728 12.1719 166.103 11.9922 165.556 11.6328C165.015 11.2734 164.59 10.763 164.283 10.1016C163.976 9.4349 163.822 8.66146 163.822 7.78125C163.822 6.90104 163.976 6.13021 164.283 5.46875C164.59 4.80729 165.017 4.29948 165.564 3.94531C166.111 3.58594 166.739 3.40625 167.447 3.40625C167.947 3.40625 168.361 3.48958 168.689 3.65625C169.017 3.81771 169.259 3.99219 169.416 4.17969C169.572 4.36198 169.733 4.58854 169.9 4.85938H169.994V0.6875H171.353V12H170.041V10.7031H169.9C169.723 10.9792 169.554 11.2109 169.392 11.3984C169.236 11.5859 168.994 11.763 168.666 11.9297C168.338 12.0911 167.926 12.1719 167.431 12.1719ZM167.619 10.9688C168.124 10.9688 168.559 10.8359 168.923 10.5703C169.288 10.2995 169.564 9.92188 169.752 9.4375C169.944 8.94792 170.041 8.38542 170.041 7.75C170.041 7.11979 169.947 6.57031 169.759 6.10156C169.577 5.6276 169.304 5.26042 168.939 5C168.575 4.73958 168.134 4.60938 167.619 4.60938C167.093 4.60938 166.647 4.7474 166.283 5.02344C165.918 5.29427 165.642 5.66667 165.455 6.14062C165.272 6.61458 165.181 7.15104 165.181 7.75C165.181 8.36458 165.272 8.91667 165.455 9.40625C165.642 9.89062 165.918 10.2734 166.283 10.5547C166.653 10.8307 167.098 10.9688 167.619 10.9688Z" fill="white"/>
<path d="M174.625 12H173.281V0.6875H174.625V12Z" fill="white"/>
<path d="M179.928 12.1719C179.121 12.1719 178.418 11.9922 177.819 11.6328C177.22 11.2734 176.759 10.7656 176.436 10.1094C176.118 9.45312 175.959 8.69271 175.959 7.82812C175.959 6.96354 176.118 6.19792 176.436 5.53125C176.759 4.85938 177.209 4.33854 177.788 3.96875C178.371 3.59375 179.043 3.40625 179.803 3.40625C180.444 3.40625 181.04 3.54948 181.592 3.83594C182.144 4.11719 182.592 4.57552 182.936 5.21094C183.285 5.84115 183.459 6.65104 183.459 7.64062V8.20312H177.303C177.324 8.79167 177.446 9.29427 177.67 9.71094C177.894 10.1276 178.199 10.4453 178.584 10.6641C178.975 10.8776 179.423 10.9844 179.928 10.9844C180.407 10.9844 180.811 10.8958 181.139 10.7188C181.472 10.5365 181.725 10.3021 181.897 10.0156H183.334C183.199 10.4427 182.972 10.8203 182.655 11.1484C182.342 11.4714 181.952 11.724 181.483 11.9062C181.019 12.0833 180.501 12.1719 179.928 12.1719ZM182.1 7.0625C182.1 6.58854 182.004 6.16667 181.811 5.79688C181.623 5.42188 181.355 5.1276 181.006 4.91406C180.657 4.70052 180.256 4.59375 179.803 4.59375C179.329 4.59375 178.907 4.70573 178.538 4.92969C178.173 5.15365 177.884 5.45573 177.67 5.83594C177.462 6.21094 177.342 6.61979 177.311 7.0625H182.1Z" fill="white"/>
<path d="M185.356 15.2031H184.2L185.059 10.9531H186.575L185.356 15.2031Z" fill="white"/>
<path d="M41.0079 23.6406H39.2266V28.5625C39.2266 29.0625 39.3256 29.3984 39.5235 29.5703C39.7214 29.7422 39.9922 29.8281 40.336 29.8281C40.5964 29.8281 40.862 29.8177 41.1329 29.7969V31.0469C40.862 31.0885 40.5495 31.1094 40.1954 31.1094C39.7995 31.1094 39.4245 31.0286 39.0704 30.8672C38.7162 30.7005 38.4271 30.4505 38.2032 30.1172C37.9792 29.7839 37.8672 29.3802 37.8672 28.9062V23.6406H36.586V22.5156H37.8672V20.4844H39.2266V22.5156H41.0079V23.6406Z" fill="white"/>
<path d="M45.7172 31.1719C44.9516 31.1719 44.2745 30.9922 43.686 30.6328C43.1026 30.2682 42.6495 29.7552 42.3266 29.0938C42.0037 28.4323 41.8422 27.6667 41.8422 26.7969C41.8422 25.9271 42.0037 25.1615 42.3266 24.5C42.6495 23.8333 43.1026 23.3177 43.686 22.9531C44.2745 22.5885 44.9516 22.4062 45.7172 22.4062C46.4776 22.4062 47.1469 22.5885 47.725 22.9531C48.3084 23.3177 48.7589 23.8333 49.0766 24.5C49.3995 25.1615 49.561 25.9271 49.561 26.7969C49.561 27.6667 49.3995 28.4323 49.0766 29.0938C48.7589 29.7552 48.3084 30.2682 47.725 30.6328C47.1469 30.9922 46.4776 31.1719 45.7172 31.1719ZM45.7172 29.9844C46.2641 29.9844 46.725 29.8411 47.1 29.5547C47.475 29.263 47.7537 28.8776 47.936 28.3984C48.1235 27.9141 48.2172 27.3802 48.2172 26.7969C48.2172 26.2135 48.1235 25.6797 47.936 25.1953C47.7537 24.7109 47.475 24.3229 47.1 24.0312C46.725 23.7396 46.2641 23.5938 45.7172 23.5938C45.1599 23.5938 44.6912 23.7396 44.311 24.0312C43.936 24.3229 43.6547 24.7109 43.4672 25.1953C43.2797 25.6797 43.186 26.2135 43.186 26.7969C43.186 27.3802 43.2797 27.9141 43.4672 28.3984C43.6547 28.8776 43.936 29.263 44.311 29.5547C44.6912 29.8411 45.1599 29.9844 45.7172 29.9844Z" fill="white"/>
<path d="M56.286 22.5156H57.6141V31H56.286V29.5625H56.1922C55.9735 30.026 55.6506 30.401 55.2235 30.6875C54.8016 30.9688 54.286 31.1094 53.6766 31.1094C53.1297 31.1094 52.6506 30.9922 52.2391 30.7578C51.8277 30.5182 51.5047 30.1589 51.2704 29.6797C51.0412 29.2005 50.9266 28.6094 50.9266 27.9062V22.5156H52.2704V27.8125C52.2704 28.2135 52.3485 28.5651 52.5047 28.8672C52.661 29.1693 52.8771 29.4036 53.1532 29.5703C53.4344 29.7318 53.7547 29.8125 54.1141 29.8125C54.4527 29.8125 54.7886 29.7266 55.1219 29.5547C55.4605 29.3828 55.7391 29.125 55.9579 28.7812C56.1766 28.4323 56.286 28.0104 56.286 27.5156V22.5156Z" fill="white"/>
<path d="M62.8391 31.1719C62.0526 31.1719 61.3651 30.987 60.7766 30.6172C60.1933 30.2422 59.7454 29.724 59.4329 29.0625C59.1204 28.401 58.9641 27.6458 58.9641 26.7969C58.9641 25.9427 59.123 25.1849 59.4407 24.5234C59.7636 23.8568 60.2141 23.3385 60.7922 22.9688C61.3756 22.5938 62.0474 22.4062 62.8079 22.4062C63.4068 22.4062 63.9485 22.5182 64.4329 22.7422C64.9172 22.9609 65.3105 23.2734 65.6125 23.6797C65.9198 24.0807 66.1099 24.5469 66.1829 25.0781H64.8391C64.7766 24.8073 64.6568 24.5599 64.4797 24.3359C64.3027 24.112 64.0735 23.9323 63.7922 23.7969C63.5162 23.6615 63.1985 23.5938 62.8391 23.5938C62.3391 23.5938 61.8964 23.724 61.511 23.9844C61.1308 24.2448 60.8339 24.6146 60.6204 25.0938C60.412 25.5677 60.3079 26.1198 60.3079 26.75C60.3079 27.401 60.4094 27.9688 60.6125 28.4531C60.8209 28.9375 61.1151 29.3125 61.4954 29.5781C61.8808 29.8385 62.3287 29.9688 62.8391 29.9688C63.3443 29.9688 63.774 29.8411 64.1282 29.5859C64.4875 29.3255 64.7245 28.9635 64.8391 28.5H66.1829C66.1099 29.0104 65.9277 29.4688 65.636 29.875C65.3443 30.276 64.9589 30.5938 64.4797 30.8281C64.0006 31.0573 63.4537 31.1719 62.8391 31.1719Z" fill="white"/>
<path d="M68.7829 31H67.4391V19.6875H68.7829V23.8438H68.8922C69.3193 22.8854 70.1527 22.4062 71.3922 22.4062C72.2881 22.4062 72.9938 22.6771 73.5094 23.2188C74.025 23.7552 74.2829 24.5521 74.2829 25.6094V31H72.9391V25.7031C72.9391 25.0417 72.7646 24.5286 72.4157 24.1641C72.0719 23.7943 71.5954 23.6094 70.986 23.6094C70.5589 23.6094 70.1787 23.7005 69.8454 23.8828C69.5172 24.0599 69.2568 24.3229 69.0641 24.6719C68.8766 25.0156 68.7829 25.4271 68.7829 25.9062V31Z" fill="white"/>
<path d="M83.3579 23.6406H81.5766V28.5625C81.5766 29.0625 81.6756 29.3984 81.8735 29.5703C82.0714 29.7422 82.3422 29.8281 82.686 29.8281C82.9464 29.8281 83.212 29.8177 83.4829 29.7969V31.0469C83.212 31.0885 82.8995 31.1094 82.5454 31.1094C82.1495 31.1094 81.7745 31.0286 81.4204 30.8672C81.0662 30.7005 80.7771 30.4505 80.5532 30.1172C80.3292 29.7839 80.2172 29.3802 80.2172 28.9062V23.6406H78.936V22.5156H80.2172V20.4844H81.5766V22.5156H83.3579V23.6406Z" fill="white"/>
<path d="M86.2235 31H84.8797V19.6875H86.2235V23.8438H86.3329C86.7599 22.8854 87.5933 22.4062 88.8329 22.4062C89.7287 22.4062 90.4344 22.6771 90.95 23.2188C91.4657 23.7552 91.7235 24.5521 91.7235 25.6094V31H90.3797V25.7031C90.3797 25.0417 90.2053 24.5286 89.8563 24.1641C89.5125 23.7943 89.036 23.6094 88.4266 23.6094C87.9995 23.6094 87.6193 23.7005 87.286 23.8828C86.9579 24.0599 86.6974 24.3229 86.5047 24.6719C86.3172 25.0156 86.2235 25.4271 86.2235 25.9062V31Z" fill="white"/>
<path d="M97.0422 31.1719C96.2349 31.1719 95.5318 30.9922 94.9329 30.6328C94.3339 30.2734 93.873 29.7656 93.55 29.1094C93.2323 28.4531 93.0735 27.6927 93.0735 26.8281C93.0735 25.9635 93.2323 25.1979 93.55 24.5312C93.873 23.8594 94.3235 23.3385 94.9016 22.9688C95.4849 22.5938 96.1568 22.4062 96.9172 22.4062C97.5579 22.4062 98.1542 22.5495 98.7063 22.8359C99.2584 23.1172 99.7063 23.5755 100.05 24.2109C100.399 24.8411 100.573 25.651 100.573 26.6406V27.2031H94.4172C94.4381 27.7917 94.5605 28.2943 94.7844 28.7109C95.0084 29.1276 95.3131 29.4453 95.6985 29.6641C96.0891 29.8776 96.537 29.9844 97.0422 29.9844C97.5214 29.9844 97.925 29.8958 98.2532 29.7188C98.5865 29.5365 98.8391 29.3021 99.011 29.0156H100.448C100.313 29.4427 100.087 29.8203 99.7688 30.1484C99.4563 30.4714 99.0657 30.724 98.5969 30.9062C98.1334 31.0833 97.6152 31.1719 97.0422 31.1719ZM99.2141 26.0625C99.2141 25.5885 99.1178 25.1667 98.925 24.7969C98.7375 24.4219 98.4693 24.1276 98.1204 23.9141C97.7714 23.7005 97.3704 23.5938 96.9172 23.5938C96.4433 23.5938 96.0214 23.7057 95.6516 23.9297C95.287 24.1536 94.998 24.4557 94.7844 24.8359C94.5761 25.2109 94.4563 25.6198 94.425 26.0625H99.2141Z" fill="white"/>
<path d="M110.258 24.7188C110.159 24.349 109.966 24.0625 109.68 23.8594C109.398 23.651 109.018 23.5469 108.539 23.5469C108.195 23.5469 107.885 23.6042 107.609 23.7188C107.339 23.8281 107.125 23.9818 106.969 24.1797C106.818 24.3724 106.742 24.5885 106.742 24.8281C106.742 25.1094 106.859 25.349 107.094 25.5469C107.333 25.7448 107.701 25.901 108.195 26.0156L109.461 26.3281C110.221 26.5104 110.789 26.7917 111.164 27.1719C111.539 27.5469 111.727 28.0312 111.727 28.625C111.727 29.1198 111.594 29.5599 111.328 29.9453C111.068 30.3255 110.688 30.625 110.188 30.8438C109.688 31.0625 109.091 31.1719 108.398 31.1719C107.445 31.1719 106.69 30.9688 106.133 30.5625C105.576 30.151 105.242 29.5573 105.133 28.7812H106.539C106.617 29.1927 106.807 29.5 107.109 29.7031C107.412 29.901 107.831 30 108.367 30C108.971 30 109.451 29.8828 109.805 29.6484C110.159 29.4141 110.336 29.099 110.336 28.7031C110.336 28.401 110.224 28.151 110 27.9531C109.776 27.75 109.425 27.5938 108.945 27.4844L107.664 27.1875C106.925 27.0156 106.362 26.7344 105.977 26.3438C105.591 25.9531 105.398 25.474 105.398 24.9062C105.398 24.4271 105.529 23.9974 105.789 23.6172C106.055 23.237 106.425 22.9401 106.898 22.7266C107.378 22.513 107.925 22.4062 108.539 22.4062C109.112 22.4062 109.617 22.5026 110.055 22.6953C110.492 22.888 110.839 23.1589 111.094 23.5078C111.354 23.8568 111.513 24.2604 111.57 24.7188H110.258Z" fill="white"/>
<path d="M116.545 31.1719C115.759 31.1719 115.071 30.987 114.483 30.6172C113.9 30.2422 113.452 29.724 113.139 29.0625C112.827 28.401 112.67 27.6458 112.67 26.7969C112.67 25.9427 112.829 25.1849 113.147 24.5234C113.47 23.8568 113.92 23.3385 114.498 22.9688C115.082 22.5938 115.754 22.4062 116.514 22.4062C117.113 22.4062 117.655 22.5182 118.139 22.7422C118.623 22.9609 119.017 23.2734 119.319 23.6797C119.626 24.0807 119.816 24.5469 119.889 25.0781H118.545C118.483 24.8073 118.363 24.5599 118.186 24.3359C118.009 24.112 117.78 23.9323 117.498 23.7969C117.222 23.6615 116.905 23.5938 116.545 23.5938C116.045 23.5938 115.603 23.724 115.217 23.9844C114.837 24.2448 114.54 24.6146 114.327 25.0938C114.118 25.5677 114.014 26.1198 114.014 26.75C114.014 27.401 114.116 27.9688 114.319 28.4531C114.527 28.9375 114.821 29.3125 115.202 29.5781C115.587 29.8385 116.035 29.9688 116.545 29.9688C117.051 29.9688 117.48 29.8411 117.834 29.5859C118.194 29.3255 118.431 28.9635 118.545 28.5H119.889C119.816 29.0104 119.634 29.4688 119.342 29.875C119.051 30.276 118.665 30.5938 118.186 30.8281C117.707 31.0573 117.16 31.1719 116.545 31.1719Z" fill="white"/>
<path d="M121.145 22.5156H122.442V23.8125H122.536C122.692 23.3802 122.971 23.0339 123.372 22.7734C123.773 22.5078 124.223 22.375 124.723 22.375C124.984 22.375 125.218 22.3854 125.427 22.4062V23.7656C125.369 23.7448 125.257 23.724 125.091 23.7031C124.929 23.6823 124.77 23.6719 124.614 23.6719C124.213 23.6719 123.851 23.7578 123.528 23.9297C123.205 24.1016 122.95 24.3385 122.763 24.6406C122.58 24.9427 122.489 25.2812 122.489 25.6562V31H121.145V22.5156Z" fill="white"/>
<path d="M129.62 31.1719C128.813 31.1719 128.11 30.9922 127.511 30.6328C126.912 30.2734 126.451 29.7656 126.128 29.1094C125.81 28.4531 125.652 27.6927 125.652 26.8281C125.652 25.9635 125.81 25.1979 126.128 24.5312C126.451 23.8594 126.902 23.3385 127.48 22.9688C128.063 22.5938 128.735 22.4062 129.495 22.4062C130.136 22.4062 130.732 22.5495 131.284 22.8359C131.837 23.1172 132.284 23.5755 132.628 24.2109C132.977 24.8411 133.152 25.651 133.152 26.6406V27.2031H126.995C127.016 27.7917 127.139 28.2943 127.363 28.7109C127.587 29.1276 127.891 29.4453 128.277 29.6641C128.667 29.8776 129.115 29.9844 129.62 29.9844C130.1 29.9844 130.503 29.8958 130.831 29.7188C131.165 29.5365 131.417 29.3021 131.589 29.0156H133.027C132.891 29.4427 132.665 29.8203 132.347 30.1484C132.034 30.4714 131.644 30.724 131.175 30.9062C130.712 31.0833 130.193 31.1719 129.62 31.1719ZM131.792 26.0625C131.792 25.5885 131.696 25.1667 131.503 24.7969C131.316 24.4219 131.047 24.1276 130.698 23.9141C130.35 23.7005 129.948 23.5938 129.495 23.5938C129.021 23.5938 128.6 23.7057 128.23 23.9297C127.865 24.1536 127.576 24.4557 127.363 24.8359C127.154 25.2109 127.034 25.6198 127.003 26.0625H131.792Z" fill="white"/>
<path d="M138.064 31.1719C137.257 31.1719 136.554 30.9922 135.955 30.6328C135.356 30.2734 134.895 29.7656 134.572 29.1094C134.254 28.4531 134.095 27.6927 134.095 26.8281C134.095 25.9635 134.254 25.1979 134.572 24.5312C134.895 23.8594 135.345 23.3385 135.923 22.9688C136.507 22.5938 137.179 22.4062 137.939 22.4062C138.58 22.4062 139.176 22.5495 139.728 22.8359C140.28 23.1172 140.728 23.5755 141.072 24.2109C141.421 24.8411 141.595 25.651 141.595 26.6406V27.2031H135.439C135.46 27.7917 135.582 28.2943 135.806 28.7109C136.03 29.1276 136.335 29.4453 136.72 29.6641C137.111 29.8776 137.559 29.9844 138.064 29.9844C138.543 29.9844 138.947 29.8958 139.275 29.7188C139.608 29.5365 139.861 29.3021 140.033 29.0156H141.47C141.335 29.4427 141.108 29.8203 140.791 30.1484C140.478 30.4714 140.088 30.724 139.619 30.9062C139.155 31.0833 138.637 31.1719 138.064 31.1719ZM140.236 26.0625C140.236 25.5885 140.14 25.1667 139.947 24.7969C139.759 24.4219 139.491 24.1276 139.142 23.9141C138.793 23.7005 138.392 23.5938 137.939 23.5938C137.465 23.5938 137.043 23.7057 136.673 23.9297C136.309 24.1536 136.02 24.4557 135.806 24.8359C135.598 25.2109 135.478 25.6198 135.447 26.0625H140.236Z" fill="white"/>
<path d="M144.289 31H142.945V22.5156H144.242V23.8438H144.352C144.565 23.3906 144.875 23.0391 145.281 22.7891C145.693 22.5339 146.211 22.4062 146.836 22.4062C147.419 22.4062 147.925 22.526 148.352 22.7656C148.779 23 149.109 23.3568 149.344 23.8359C149.578 24.3151 149.695 24.9062 149.695 25.6094V31H148.352V25.7031C148.352 25.0469 148.182 24.5339 147.844 24.1641C147.505 23.7943 147.034 23.6094 146.43 23.6094C146.013 23.6094 145.643 23.7005 145.32 23.8828C144.997 24.0599 144.745 24.3229 144.563 24.6719C144.38 25.0156 144.289 25.4271 144.289 25.9062V31Z" fill="white"/>
</svg>
