<svg width="152" height="69" viewBox="0 0 152 69" fill="none" xmlns="http://www.w3.org/2000/svg">
<path d="M34.0562 15.1875C33.7853 15.1875 33.5353 15.1771 33.3062 15.1562V13.9531C33.4937 13.974 33.7124 13.9844 33.9624 13.9844C34.1864 13.9844 34.3739 13.9609 34.5249 13.9141C34.676 13.8672 34.827 13.75 34.978 13.5625C35.1291 13.3802 35.2749 13.0938 35.4155 12.7031L35.6655 12.0625L32.5249 3.51562H33.9937L36.3062 10.25H36.3999L38.7124 3.51562H40.1812L36.5874 13.2188C36.3374 13.8802 36.0041 14.3724 35.5874 14.6953C35.1707 15.0234 34.6603 15.1875 34.0562 15.1875Z" fill="white"/>
<path d="M44.4218 12.1719C43.6562 12.1719 42.9791 11.9922 42.3905 11.6328C41.8072 11.2682 41.3541 10.7552 41.0312 10.0938C40.7082 9.43229 40.5468 8.66667 40.5468 7.79688C40.5468 6.92708 40.7082 6.16146 41.0312 5.5C41.3541 4.83333 41.8072 4.31771 42.3905 3.95312C42.9791 3.58854 43.6562 3.40625 44.4218 3.40625C45.1822 3.40625 45.8515 3.58854 46.4296 3.95312C47.0129 4.31771 47.4635 4.83333 47.7812 5.5C48.1041 6.16146 48.2655 6.92708 48.2655 7.79688C48.2655 8.66667 48.1041 9.43229 47.7812 10.0938C47.4635 10.7552 47.0129 11.2682 46.4296 11.6328C45.8515 11.9922 45.1822 12.1719 44.4218 12.1719ZM44.4218 10.9844C44.9687 10.9844 45.4296 10.8411 45.8046 10.5547C46.1796 10.263 46.4582 9.8776 46.6405 9.39844C46.828 8.91406 46.9218 8.38021 46.9218 7.79688C46.9218 7.21354 46.828 6.67969 46.6405 6.19531C46.4582 5.71094 46.1796 5.32292 45.8046 5.03125C45.4296 4.73958 44.9687 4.59375 44.4218 4.59375C43.8645 4.59375 43.3957 4.73958 43.0155 5.03125C42.6405 5.32292 42.3593 5.71094 42.1718 6.19531C41.9843 6.67969 41.8905 7.21354 41.8905 7.79688C41.8905 8.38021 41.9843 8.91406 42.1718 9.39844C42.3593 9.8776 42.6405 10.263 43.0155 10.5547C43.3957 10.8411 43.8645 10.9844 44.4218 10.9844Z" fill="white"/>
<path d="M54.9905 3.51562H56.3187V12H54.9905V10.5625H54.8968C54.678 11.026 54.3551 11.401 53.928 11.6875C53.5062 11.9688 52.9905 12.1094 52.3812 12.1094C51.8343 12.1094 51.3551 11.9922 50.9437 11.7578C50.5322 11.5182 50.2093 11.1589 49.9749 10.6797C49.7457 10.2005 49.6312 9.60938 49.6312 8.90625V3.51562H50.9749V8.8125C50.9749 9.21354 51.053 9.5651 51.2093 9.86719C51.3655 10.1693 51.5817 10.4036 51.8577 10.5703C52.139 10.7318 52.4593 10.8125 52.8187 10.8125C53.1572 10.8125 53.4931 10.7266 53.8265 10.5547C54.165 10.3828 54.4437 10.125 54.6624 9.78125C54.8812 9.43229 54.9905 9.01042 54.9905 8.51562V3.51562Z" fill="white"/>
<path d="M65.1593 12.1719C64.3728 12.1719 63.6853 11.987 63.0968 11.6172C62.5135 11.2422 62.0655 10.724 61.753 10.0625C61.4405 9.40104 61.2843 8.64583 61.2843 7.79688C61.2843 6.94271 61.4431 6.1849 61.7608 5.52344C62.0838 4.85677 62.5343 4.33854 63.1124 3.96875C63.6957 3.59375 64.3676 3.40625 65.128 3.40625C65.727 3.40625 66.2687 3.51823 66.753 3.74219C67.2374 3.96094 67.6306 4.27344 67.9327 4.67969C68.24 5.08073 68.4301 5.54688 68.503 6.07812H67.1593C67.0968 5.80729 66.977 5.5599 66.7999 5.33594C66.6228 5.11198 66.3937 4.93229 66.1124 4.79688C65.8364 4.66146 65.5187 4.59375 65.1593 4.59375C64.6593 4.59375 64.2166 4.72396 63.8312 4.98438C63.451 5.24479 63.1541 5.61458 62.9405 6.09375C62.7322 6.56771 62.628 7.11979 62.628 7.75C62.628 8.40104 62.7296 8.96875 62.9327 9.45312C63.1411 9.9375 63.4353 10.3125 63.8155 10.5781C64.201 10.8385 64.6489 10.9688 65.1593 10.9688C65.6645 10.9688 66.0942 10.8411 66.4483 10.5859C66.8077 10.3255 67.0447 9.96354 67.1593 9.5H68.503C68.4301 10.0104 68.2478 10.4688 67.9562 10.875C67.6645 11.276 67.2791 11.5938 66.7999 11.8281C66.3207 12.0573 65.7739 12.1719 65.1593 12.1719Z" fill="white"/>
<path d="M69.353 9.59375C69.353 8.71354 69.6525 8.09375 70.2515 7.73438C70.8556 7.375 71.6187 7.16146 72.5405 7.09375C72.8947 7.06771 73.2905 7.04427 73.728 7.02344C74.1707 6.9974 74.5405 6.97917 74.8374 6.96875V6.28125C74.8374 5.73438 74.6733 5.3151 74.3452 5.02344C74.0223 4.72656 73.5457 4.57812 72.9155 4.57812C72.3999 4.57812 71.978 4.6849 71.6499 4.89844C71.3218 5.10677 71.1082 5.38021 71.0093 5.71875H69.603C69.6603 5.26562 69.8374 4.86458 70.1343 4.51562C70.4312 4.16667 70.8244 3.89583 71.314 3.70312C71.8088 3.50521 72.3635 3.40625 72.978 3.40625C73.7905 3.40625 74.5249 3.61458 75.1812 4.03125C75.8374 4.44271 76.1655 5.23438 76.1655 6.40625V12H74.8374V10.8438H74.7749C74.6707 11.0625 74.5093 11.276 74.2905 11.4844C74.077 11.6875 73.7957 11.8594 73.4468 12C73.103 12.1354 72.702 12.2031 72.2437 12.2031C71.702 12.2031 71.2124 12.099 70.7749 11.8906C70.3374 11.6823 69.9911 11.3828 69.7358 10.9922C69.4806 10.5964 69.353 10.1302 69.353 9.59375ZM70.6968 9.65625C70.6968 10.0885 70.8582 10.4219 71.1812 10.6562C71.5093 10.8854 71.9416 11 72.478 11C72.9624 11 73.3817 10.9036 73.7358 10.7109C74.0952 10.5182 74.3687 10.263 74.5562 9.94531C74.7437 9.6276 74.8374 9.28646 74.8374 8.92188V8.07031L72.6968 8.21875C72.0614 8.26042 71.5692 8.39844 71.2202 8.63281C70.8713 8.86719 70.6968 9.20833 70.6968 9.65625Z" fill="white"/>
<path d="M79.2655 12H77.9218V3.51562H79.2187V4.84375H79.328C79.5416 4.39062 79.8515 4.03906 80.2577 3.78906C80.6692 3.53385 81.1874 3.40625 81.8124 3.40625C82.3957 3.40625 82.901 3.52604 83.328 3.76562C83.7551 4 84.0858 4.35677 84.3202 4.83594C84.5546 5.3151 84.6718 5.90625 84.6718 6.60938V12H83.328V6.70312C83.328 6.04688 83.1588 5.53385 82.8202 5.16406C82.4817 4.79427 82.0103 4.60938 81.4062 4.60938C80.9895 4.60938 80.6197 4.70052 80.2968 4.88281C79.9739 5.0599 79.7213 5.32292 79.539 5.67188C79.3567 6.01562 79.2655 6.42708 79.2655 6.90625V12Z" fill="white"/>
<path d="M90.2155 0.6875H91.5593V4.85938H91.6687C91.8718 4.55208 92.0411 4.3151 92.1765 4.14844C92.3171 3.97656 92.5515 3.8099 92.8796 3.64844C93.2077 3.48698 93.6218 3.40625 94.1218 3.40625C94.8301 3.40625 95.4577 3.58594 96.0046 3.94531C96.5515 4.29948 96.9786 4.80729 97.2858 5.46875C97.5931 6.13021 97.7468 6.90104 97.7468 7.78125C97.7468 8.66146 97.5931 9.4349 97.2858 10.1016C96.9786 10.763 96.5515 11.2734 96.0046 11.6328C95.4629 11.9922 94.8405 12.1719 94.1374 12.1719C93.6426 12.1719 93.2312 12.0911 92.903 11.9297C92.5749 11.763 92.3301 11.5859 92.1687 11.3984C92.0124 11.2109 91.8457 10.9792 91.6687 10.7031H91.5124V12H90.2155V0.6875ZM91.528 7.75C91.528 8.39062 91.6218 8.95312 91.8093 9.4375C91.9968 9.92188 92.2702 10.2995 92.6296 10.5703C92.9942 10.8359 93.4291 10.9688 93.9343 10.9688C94.4551 10.9688 94.9004 10.8307 95.2702 10.5547C95.64 10.2734 95.9187 9.89062 96.1062 9.40625C96.2937 8.91667 96.3874 8.36458 96.3874 7.75C96.3874 7.15104 96.2937 6.61458 96.1062 6.14062C95.9239 5.66667 95.6478 5.29427 95.278 5.02344C94.9134 4.7474 94.4655 4.60938 93.9343 4.60938C93.4239 4.60938 92.9864 4.73958 92.6218 5C92.2624 5.26042 91.989 5.6276 91.8015 6.10156C91.6192 6.57031 91.528 7.11979 91.528 7.75Z" fill="white"/>
<path d="M100.441 12H99.0968V0.6875H100.441V12Z" fill="white"/>
<path d="M105.65 12.1719C104.884 12.1719 104.207 11.9922 103.619 11.6328C103.035 11.2682 102.582 10.7552 102.259 10.0938C101.936 9.43229 101.775 8.66667 101.775 7.79688C101.775 6.92708 101.936 6.16146 102.259 5.5C102.582 4.83333 103.035 4.31771 103.619 3.95312C104.207 3.58854 104.884 3.40625 105.65 3.40625C106.41 3.40625 107.08 3.58854 107.658 3.95312C108.241 4.31771 108.692 4.83333 109.009 5.5C109.332 6.16146 109.494 6.92708 109.494 7.79688C109.494 8.66667 109.332 9.43229 109.009 10.0938C108.692 10.7552 108.241 11.2682 107.658 11.6328C107.08 11.9922 106.41 12.1719 105.65 12.1719ZM105.65 10.9844C106.197 10.9844 106.658 10.8411 107.033 10.5547C107.408 10.263 107.686 9.8776 107.869 9.39844C108.056 8.91406 108.15 8.38021 108.15 7.79688C108.15 7.21354 108.056 6.67969 107.869 6.19531C107.686 5.71094 107.408 5.32292 107.033 5.03125C106.658 4.73958 106.197 4.59375 105.65 4.59375C105.093 4.59375 104.624 4.73958 104.244 5.03125C103.869 5.32292 103.587 5.71094 103.4 6.19531C103.212 6.67969 103.119 7.21354 103.119 7.79688C103.119 8.38021 103.212 8.91406 103.4 9.39844C103.587 9.8776 103.869 10.263 104.244 10.5547C104.624 10.8411 105.093 10.9844 105.65 10.9844Z" fill="white"/>
<path d="M114.328 12.1719C113.542 12.1719 112.854 11.987 112.266 11.6172C111.682 11.2422 111.234 10.724 110.922 10.0625C110.609 9.40104 110.453 8.64583 110.453 7.79688C110.453 6.94271 110.612 6.1849 110.93 5.52344C111.253 4.85677 111.703 4.33854 112.281 3.96875C112.864 3.59375 113.536 3.40625 114.297 3.40625C114.896 3.40625 115.437 3.51823 115.922 3.74219C116.406 3.96094 116.799 4.27344 117.101 4.67969C117.409 5.08073 117.599 5.54688 117.672 6.07812H116.328C116.266 5.80729 116.146 5.5599 115.969 5.33594C115.792 5.11198 115.562 4.93229 115.281 4.79688C115.005 4.66146 114.687 4.59375 114.328 4.59375C113.828 4.59375 113.385 4.72396 113 4.98438C112.62 5.24479 112.323 5.61458 112.109 6.09375C111.901 6.56771 111.797 7.11979 111.797 7.75C111.797 8.40104 111.898 8.96875 112.101 9.45312C112.31 9.9375 112.604 10.3125 112.984 10.5781C113.37 10.8385 113.818 10.9688 114.328 10.9688C114.833 10.9688 115.263 10.8411 115.617 10.5859C115.976 10.3255 116.213 9.96354 116.328 9.5H117.672C117.599 10.0104 117.417 10.4688 117.125 10.875C116.833 11.276 116.448 11.5938 115.969 11.8281C115.489 12.0573 114.943 12.1719 114.328 12.1719Z" fill="white"/>
<path d="M118.928 0.6875H120.272V7.26562H120.428L124.1 3.51562H125.756L122.178 7.14844L126.022 12H124.319L121.17 8L120.272 8.83594V12H118.928V0.6875Z" fill="white"/>
<path d="M134.112 4.64062H132.331V9.5625C132.331 10.0625 132.43 10.3984 132.628 10.5703C132.826 10.7422 133.097 10.8281 133.441 10.8281C133.701 10.8281 133.967 10.8177 134.237 10.7969V12.0469C133.967 12.0885 133.654 12.1094 133.3 12.1094C132.904 12.1094 132.529 12.0286 132.175 11.8672C131.821 11.7005 131.532 11.4505 131.308 11.1172C131.084 10.7839 130.972 10.3802 130.972 9.90625V4.64062H129.691V3.51562H130.972V1.48438H132.331V3.51562H134.112V4.64062Z" fill="white"/>
<path d="M136.978 12H135.634V0.6875H136.978V4.84375H137.087C137.514 3.88542 138.348 3.40625 139.587 3.40625C140.483 3.40625 141.189 3.67708 141.705 4.21875C142.22 4.75521 142.478 5.55208 142.478 6.60938V12H141.134V6.70312C141.134 6.04167 140.96 5.52865 140.611 5.16406C140.267 4.79427 139.791 4.60938 139.181 4.60938C138.754 4.60938 138.374 4.70052 138.041 4.88281C137.712 5.0599 137.452 5.32292 137.259 5.67188C137.072 6.01562 136.978 6.42708 136.978 6.90625V12Z" fill="white"/>
<path d="M147.797 12.1719C146.989 12.1719 146.286 11.9922 145.687 11.6328C145.088 11.2734 144.628 10.7656 144.305 10.1094C143.987 9.45312 143.828 8.69271 143.828 7.82812C143.828 6.96354 143.987 6.19792 144.305 5.53125C144.628 4.85938 145.078 4.33854 145.656 3.96875C146.239 3.59375 146.911 3.40625 147.672 3.40625C148.312 3.40625 148.909 3.54948 149.461 3.83594C150.013 4.11719 150.461 4.57552 150.805 5.21094C151.154 5.84115 151.328 6.65104 151.328 7.64062V8.20312H145.172C145.193 8.79167 145.315 9.29427 145.539 9.71094C145.763 10.1276 146.068 10.4453 146.453 10.6641C146.844 10.8776 147.292 10.9844 147.797 10.9844C148.276 10.9844 148.68 10.8958 149.008 10.7188C149.341 10.5365 149.594 10.3021 149.766 10.0156H151.203C151.068 10.4427 150.841 10.8203 150.523 11.1484C150.211 11.4714 149.82 11.724 149.351 11.9062C148.888 12.0833 148.37 12.1719 147.797 12.1719ZM149.969 7.0625C149.969 6.58854 149.872 6.16667 149.68 5.79688C149.492 5.42188 149.224 5.1276 148.875 4.91406C148.526 4.70052 148.125 4.59375 147.672 4.59375C147.198 4.59375 146.776 4.70573 146.406 4.92969C146.042 5.15365 145.753 5.45573 145.539 5.83594C145.331 6.21094 145.211 6.61979 145.18 7.0625H149.969Z" fill="white"/>
<path d="M0.774902 19.6875H2.11865V23.8594H2.22803C2.43115 23.5521 2.60042 23.3151 2.73584 23.1484C2.87646 22.9766 3.11084 22.8099 3.43896 22.6484C3.76709 22.487 4.18115 22.4062 4.68115 22.4062C5.38949 22.4062 6.01709 22.5859 6.56396 22.9453C7.11084 23.2995 7.53792 23.8073 7.84521 24.4688C8.15251 25.1302 8.30615 25.901 8.30615 26.7812C8.30615 27.6615 8.15251 28.4349 7.84521 29.1016C7.53792 29.763 7.11084 30.2734 6.56396 30.6328C6.0223 30.9922 5.3999 31.1719 4.69678 31.1719C4.20199 31.1719 3.79053 31.0911 3.4624 30.9297C3.13428 30.763 2.88949 30.5859 2.72803 30.3984C2.57178 30.2109 2.40511 29.9792 2.22803 29.7031H2.07178V31H0.774902V19.6875ZM2.0874 26.75C2.0874 27.3906 2.18115 27.9531 2.36865 28.4375C2.55615 28.9219 2.82959 29.2995 3.18896 29.5703C3.55355 29.8359 3.98844 29.9688 4.49365 29.9688C5.01449 29.9688 5.4598 29.8307 5.82959 29.5547C6.19938 29.2734 6.47803 28.8906 6.66553 28.4062C6.85303 27.9167 6.94678 27.3646 6.94678 26.75C6.94678 26.151 6.85303 25.6146 6.66553 25.1406C6.48324 24.6667 6.20719 24.2943 5.8374 24.0234C5.47282 23.7474 5.0249 23.6094 4.49365 23.6094C3.98324 23.6094 3.54574 23.7396 3.18115 24C2.82178 24.2604 2.54834 24.6276 2.36084 25.1016C2.17855 25.5703 2.0874 26.1198 2.0874 26.75Z" fill="white"/>
<path d="M15.0155 22.5156H16.3437V31H15.0155V29.5625H14.9218C14.703 30.026 14.3801 30.401 13.953 30.6875C13.5312 30.9688 13.0155 31.1094 12.4062 31.1094C11.8593 31.1094 11.3801 30.9922 10.9687 30.7578C10.5572 30.5182 10.2343 30.1589 9.9999 29.6797C9.77074 29.2005 9.65615 28.6094 9.65615 27.9062V22.5156H10.9999V27.8125C10.9999 28.2135 11.078 28.5651 11.2343 28.8672C11.3905 29.1693 11.6067 29.4036 11.8827 29.5703C12.164 29.7318 12.4843 29.8125 12.8437 29.8125C13.1822 29.8125 13.5181 29.7266 13.8515 29.5547C14.19 29.3828 14.4687 29.125 14.6874 28.7812C14.9062 28.4323 15.0155 28.0104 15.0155 27.5156V22.5156Z" fill="white"/>
<path d="M21.803 23.6406H20.0218V28.5625C20.0218 29.0625 20.1207 29.3984 20.3187 29.5703C20.5166 29.7422 20.7874 29.8281 21.1312 29.8281C21.3916 29.8281 21.6572 29.8177 21.928 29.7969V31.0469C21.6572 31.0885 21.3447 31.1094 20.9905 31.1094C20.5947 31.1094 20.2197 31.0286 19.8655 30.8672C19.5114 30.7005 19.2223 30.4505 18.9983 30.1172C18.7744 29.7839 18.6624 29.3802 18.6624 28.9062V23.6406H17.3812V22.5156H18.6624V20.4844H20.0218V22.5156H21.803V23.6406Z" fill="white"/>
<path d="M26.8405 23.6406H25.0593V28.5625C25.0593 29.0625 25.1582 29.3984 25.3562 29.5703C25.5541 29.7422 25.8249 29.8281 26.1687 29.8281C26.4291 29.8281 26.6947 29.8177 26.9655 29.7969V31.0469C26.6947 31.0885 26.3822 31.1094 26.028 31.1094C25.6322 31.1094 25.2572 31.0286 24.903 30.8672C24.5489 30.7005 24.2598 30.4505 24.0358 30.1172C23.8119 29.7839 23.6999 29.3802 23.6999 28.9062V23.6406H22.4187V22.5156H23.6999V20.4844H25.0593V22.5156H26.8405V23.6406Z" fill="white"/>
<path d="M31.5499 31.1719C30.7843 31.1719 30.1072 30.9922 29.5187 30.6328C28.9353 30.2682 28.4822 29.7552 28.1593 29.0938C27.8364 28.4323 27.6749 27.6667 27.6749 26.7969C27.6749 25.9271 27.8364 25.1615 28.1593 24.5C28.4822 23.8333 28.9353 23.3177 29.5187 22.9531C30.1072 22.5885 30.7843 22.4062 31.5499 22.4062C32.3103 22.4062 32.9796 22.5885 33.5577 22.9531C34.141 23.3177 34.5916 23.8333 34.9093 24.5C35.2322 25.1615 35.3937 25.9271 35.3937 26.7969C35.3937 27.6667 35.2322 28.4323 34.9093 29.0938C34.5916 29.7552 34.141 30.2682 33.5577 30.6328C32.9796 30.9922 32.3103 31.1719 31.5499 31.1719ZM31.5499 29.9844C32.0968 29.9844 32.5577 29.8411 32.9327 29.5547C33.3077 29.263 33.5864 28.8776 33.7687 28.3984C33.9562 27.9141 34.0499 27.3802 34.0499 26.7969C34.0499 26.2135 33.9562 25.6797 33.7687 25.1953C33.5864 24.7109 33.3077 24.3229 32.9327 24.0312C32.5577 23.7396 32.0968 23.5938 31.5499 23.5938C30.9926 23.5938 30.5239 23.7396 30.1437 24.0312C29.7687 24.3229 29.4874 24.7109 29.2999 25.1953C29.1124 25.6797 29.0187 26.2135 29.0187 26.7969C29.0187 27.3802 29.1124 27.9141 29.2999 28.3984C29.4874 28.8776 29.7687 29.263 30.1437 29.5547C30.5239 29.8411 30.9926 29.9844 31.5499 29.9844Z" fill="white"/>
<path d="M38.103 31H36.7593V22.5156H38.0562V23.8438H38.1655C38.3791 23.3906 38.689 23.0391 39.0952 22.7891C39.5067 22.5339 40.0249 22.4062 40.6499 22.4062C41.2332 22.4062 41.7384 22.526 42.1655 22.7656C42.5926 23 42.9233 23.3568 43.1577 23.8359C43.3921 24.3151 43.5093 24.9062 43.5093 25.6094V31H42.1655V25.7031C42.1655 25.0469 41.9963 24.5339 41.6577 24.1641C41.3192 23.7943 40.8478 23.6094 40.2437 23.6094C39.827 23.6094 39.4572 23.7005 39.1343 23.8828C38.8114 24.0599 38.5588 24.3229 38.3765 24.6719C38.1942 25.0156 38.103 25.4271 38.103 25.9062V31Z" fill="white"/>
<path d="M49.9843 24.7188C49.8853 24.349 49.6926 24.0625 49.4062 23.8594C49.1249 23.651 48.7447 23.5469 48.2655 23.5469C47.9218 23.5469 47.6119 23.6042 47.3358 23.7188C47.065 23.8281 46.8515 23.9818 46.6952 24.1797C46.5442 24.3724 46.4687 24.5885 46.4687 24.8281C46.4687 25.1094 46.5858 25.349 46.8202 25.5469C47.0598 25.7448 47.427 25.901 47.9218 26.0156L49.1874 26.3281C49.9478 26.5104 50.5155 26.7917 50.8905 27.1719C51.2655 27.5469 51.453 28.0312 51.453 28.625C51.453 29.1198 51.3202 29.5599 51.0546 29.9453C50.7942 30.3255 50.414 30.625 49.914 30.8438C49.414 31.0625 48.8176 31.1719 48.1249 31.1719C47.1718 31.1719 46.4166 30.9688 45.8593 30.5625C45.302 30.151 44.9687 29.5573 44.8593 28.7812H46.2655C46.3437 29.1927 46.5338 29.5 46.8358 29.7031C47.1379 29.901 47.5572 30 48.0937 30C48.6978 30 49.177 29.8828 49.5312 29.6484C49.8853 29.4141 50.0624 29.099 50.0624 28.7031C50.0624 28.401 49.9504 28.151 49.7265 27.9531C49.5025 27.75 49.1509 27.5938 48.6718 27.4844L47.3905 27.1875C46.6509 27.0156 46.0884 26.7344 45.703 26.3438C45.3176 25.9531 45.1249 25.474 45.1249 24.9062C45.1249 24.4271 45.2551 23.9974 45.5155 23.6172C45.7812 23.237 46.1509 22.9401 46.6249 22.7266C47.1041 22.513 47.6509 22.4062 48.2655 22.4062C48.8384 22.4062 49.3437 22.5026 49.7812 22.6953C50.2187 22.888 50.565 23.1589 50.8202 23.5078C51.0806 23.8568 51.2395 24.2604 51.2968 24.7188H49.9843Z" fill="white"/>
<path d="M59.8874 31.1719C59.1218 31.1719 58.4447 30.9922 57.8562 30.6328C57.2728 30.2682 56.8197 29.7552 56.4968 29.0938C56.1739 28.4323 56.0124 27.6667 56.0124 26.7969C56.0124 25.9271 56.1739 25.1615 56.4968 24.5C56.8197 23.8333 57.2728 23.3177 57.8562 22.9531C58.4447 22.5885 59.1218 22.4062 59.8874 22.4062C60.6478 22.4062 61.3171 22.5885 61.8952 22.9531C62.4785 23.3177 62.9291 23.8333 63.2468 24.5C63.5697 25.1615 63.7312 25.9271 63.7312 26.7969C63.7312 27.6667 63.5697 28.4323 63.2468 29.0938C62.9291 29.7552 62.4785 30.2682 61.8952 30.6328C61.3171 30.9922 60.6478 31.1719 59.8874 31.1719ZM59.8874 29.9844C60.4343 29.9844 60.8952 29.8411 61.2702 29.5547C61.6452 29.263 61.9239 28.8776 62.1062 28.3984C62.2937 27.9141 62.3874 27.3802 62.3874 26.7969C62.3874 26.2135 62.2937 25.6797 62.1062 25.1953C61.9239 24.7109 61.6452 24.3229 61.2702 24.0312C60.8952 23.7396 60.4343 23.5938 59.8874 23.5938C59.3301 23.5938 58.8614 23.7396 58.4812 24.0312C58.1062 24.3229 57.8249 24.7109 57.6374 25.1953C57.4499 25.6797 57.3562 26.2135 57.3562 26.7969C57.3562 27.3802 57.4499 27.9141 57.6374 28.3984C57.8249 28.8776 58.1062 29.263 58.4812 29.5547C58.8614 29.8411 59.3301 29.9844 59.8874 29.9844Z" fill="white"/>
<path d="M66.4405 31H65.0968V22.5156H66.3937V23.8438H66.503C66.7166 23.3906 67.0265 23.0391 67.4327 22.7891C67.8442 22.5339 68.3624 22.4062 68.9874 22.4062C69.5707 22.4062 70.0759 22.526 70.503 22.7656C70.9301 23 71.2608 23.3568 71.4952 23.8359C71.7296 24.3151 71.8468 24.9062 71.8468 25.6094V31H70.503V25.7031C70.503 25.0469 70.3338 24.5339 69.9952 24.1641C69.6567 23.7943 69.1853 23.6094 68.5812 23.6094C68.1645 23.6094 67.7947 23.7005 67.4718 23.8828C67.1489 24.0599 66.8963 24.3229 66.714 24.6719C66.5317 25.0156 66.4405 25.4271 66.4405 25.9062V31Z" fill="white"/>
<path d="M80.9218 23.6406H79.1405V28.5625C79.1405 29.0625 79.2395 29.3984 79.4374 29.5703C79.6353 29.7422 79.9062 29.8281 80.2499 29.8281C80.5103 29.8281 80.7759 29.8177 81.0468 29.7969V31.0469C80.7759 31.0885 80.4634 31.1094 80.1093 31.1094C79.7134 31.1094 79.3384 31.0286 78.9843 30.8672C78.6301 30.7005 78.341 30.4505 78.1171 30.1172C77.8931 29.7839 77.7812 29.3802 77.7812 28.9062V23.6406H76.4999V22.5156H77.7812V20.4844H79.1405V22.5156H80.9218V23.6406Z" fill="white"/>
<path d="M83.7874 31H82.4436V19.6875H83.7874V23.8438H83.8968C84.3239 22.8854 85.1572 22.4062 86.3968 22.4062C87.2926 22.4062 87.9983 22.6771 88.514 23.2188C89.0296 23.7552 89.2874 24.5521 89.2874 25.6094V31H87.9436V25.7031C87.9436 25.0417 87.7692 24.5286 87.4202 24.1641C87.0765 23.7943 86.5999 23.6094 85.9905 23.6094C85.5634 23.6094 85.1832 23.7005 84.8499 23.8828C84.5218 24.0599 84.2614 24.3229 84.0686 24.6719C83.8811 25.0156 83.7874 25.4271 83.7874 25.9062V31Z" fill="white"/>
<path d="M94.6062 31.1719C93.7989 31.1719 93.0957 30.9922 92.4968 30.6328C91.8978 30.2734 91.4369 29.7656 91.114 29.1094C90.7963 28.4531 90.6374 27.6927 90.6374 26.8281C90.6374 25.9635 90.7963 25.1979 91.114 24.5312C91.4369 23.8594 91.8874 23.3385 92.4655 22.9688C93.0489 22.5938 93.7207 22.4062 94.4812 22.4062C95.1218 22.4062 95.7181 22.5495 96.2702 22.8359C96.8223 23.1172 97.2702 23.5755 97.614 24.2109C97.9629 24.8411 98.1374 25.651 98.1374 26.6406V27.2031H91.9812C92.002 27.7917 92.1244 28.2943 92.3483 28.7109C92.5723 29.1276 92.877 29.4453 93.2624 29.6641C93.653 29.8776 94.1009 29.9844 94.6062 29.9844C95.0853 29.9844 95.489 29.8958 95.8171 29.7188C96.1504 29.5365 96.403 29.3021 96.5749 29.0156H98.0124C97.877 29.4427 97.6504 29.8203 97.3327 30.1484C97.0202 30.4714 96.6296 30.724 96.1608 30.9062C95.6973 31.0833 95.1791 31.1719 94.6062 31.1719ZM96.778 26.0625C96.778 25.5885 96.6817 25.1667 96.489 24.7969C96.3015 24.4219 96.0332 24.1276 95.6843 23.9141C95.3353 23.7005 94.9343 23.5938 94.4812 23.5938C94.0072 23.5938 93.5853 23.7057 93.2155 23.9297C92.8509 24.1536 92.5619 24.4557 92.3483 24.8359C92.14 25.2109 92.0202 25.6198 91.989 26.0625H96.778Z" fill="white"/>
<path d="M107.822 24.7188C107.723 24.349 107.53 24.0625 107.244 23.8594C106.962 23.651 106.582 23.5469 106.103 23.5469C105.759 23.5469 105.449 23.6042 105.173 23.7188C104.903 23.8281 104.689 23.9818 104.533 24.1797C104.382 24.3724 104.306 24.5885 104.306 24.8281C104.306 25.1094 104.423 25.349 104.658 25.5469C104.897 25.7448 105.264 25.901 105.759 26.0156L107.025 26.3281C107.785 26.5104 108.353 26.7917 108.728 27.1719C109.103 27.5469 109.291 28.0312 109.291 28.625C109.291 29.1198 109.158 29.5599 108.892 29.9453C108.632 30.3255 108.251 30.625 107.751 30.8438C107.251 31.0625 106.655 31.1719 105.962 31.1719C105.009 31.1719 104.254 30.9688 103.697 30.5625C103.139 30.151 102.806 29.5573 102.697 28.7812H104.103C104.181 29.1927 104.371 29.5 104.673 29.7031C104.975 29.901 105.395 30 105.931 30C106.535 30 107.014 29.8828 107.369 29.6484C107.723 29.4141 107.9 29.099 107.9 28.7031C107.9 28.401 107.788 28.151 107.564 27.9531C107.34 27.75 106.988 27.5938 106.509 27.4844L105.228 27.1875C104.488 27.0156 103.926 26.7344 103.541 26.3438C103.155 25.9531 102.962 25.474 102.962 24.9062C102.962 24.4271 103.093 23.9974 103.353 23.6172C103.619 23.237 103.988 22.9401 104.462 22.7266C104.942 22.513 105.488 22.4062 106.103 22.4062C106.676 22.4062 107.181 22.5026 107.619 22.6953C108.056 22.888 108.403 23.1589 108.658 23.5078C108.918 23.8568 109.077 24.2604 109.134 24.7188H107.822Z" fill="white"/>
<path d="M114.109 31.1719C113.323 31.1719 112.635 30.987 112.047 30.6172C111.463 30.2422 111.016 29.724 110.703 29.0625C110.391 28.401 110.234 27.6458 110.234 26.7969C110.234 25.9427 110.393 25.1849 110.711 24.5234C111.034 23.8568 111.484 23.3385 112.062 22.9688C112.646 22.5938 113.318 22.4062 114.078 22.4062C114.677 22.4062 115.219 22.5182 115.703 22.7422C116.187 22.9609 116.581 23.2734 116.883 23.6797C117.19 24.0807 117.38 24.5469 117.453 25.0781H116.109C116.047 24.8073 115.927 24.5599 115.75 24.3359C115.573 24.112 115.344 23.9323 115.062 23.7969C114.786 23.6615 114.469 23.5938 114.109 23.5938C113.609 23.5938 113.167 23.724 112.781 23.9844C112.401 24.2448 112.104 24.6146 111.891 25.0938C111.682 25.5677 111.578 26.1198 111.578 26.75C111.578 27.401 111.68 27.9688 111.883 28.4531C112.091 28.9375 112.385 29.3125 112.766 29.5781C113.151 29.8385 113.599 29.9688 114.109 29.9688C114.614 29.9688 115.044 29.8411 115.398 29.5859C115.758 29.3255 115.995 28.9635 116.109 28.5H117.453C117.38 29.0104 117.198 29.4688 116.906 29.875C116.614 30.276 116.229 30.5938 115.75 30.8281C115.271 31.0573 114.724 31.1719 114.109 31.1719Z" fill="white"/>
<path d="M118.709 22.5156H120.006V23.8125H120.1C120.256 23.3802 120.535 23.0339 120.936 22.7734C121.337 22.5078 121.787 22.375 122.287 22.375C122.548 22.375 122.782 22.3854 122.991 22.4062V23.7656C122.933 23.7448 122.821 23.724 122.655 23.7031C122.493 23.6823 122.334 23.6719 122.178 23.6719C121.777 23.6719 121.415 23.7578 121.092 23.9297C120.769 24.1016 120.514 24.3385 120.326 24.6406C120.144 24.9427 120.053 25.2812 120.053 25.6562V31H118.709V22.5156Z" fill="white"/>
<path d="M127.184 31.1719C126.377 31.1719 125.674 30.9922 125.075 30.6328C124.476 30.2734 124.015 29.7656 123.692 29.1094C123.374 28.4531 123.216 27.6927 123.216 26.8281C123.216 25.9635 123.374 25.1979 123.692 24.5312C124.015 23.8594 124.466 23.3385 125.044 22.9688C125.627 22.5938 126.299 22.4062 127.059 22.4062C127.7 22.4062 128.296 22.5495 128.848 22.8359C129.4 23.1172 129.848 23.5755 130.192 24.2109C130.541 24.8411 130.716 25.651 130.716 26.6406V27.2031H124.559C124.58 27.7917 124.703 28.2943 124.926 28.7109C125.15 29.1276 125.455 29.4453 125.841 29.6641C126.231 29.8776 126.679 29.9844 127.184 29.9844C127.663 29.9844 128.067 29.8958 128.395 29.7188C128.729 29.5365 128.981 29.3021 129.153 29.0156H130.591C130.455 29.4427 130.229 29.8203 129.911 30.1484C129.598 30.4714 129.208 30.724 128.739 30.9062C128.275 31.0833 127.757 31.1719 127.184 31.1719ZM129.356 26.0625C129.356 25.5885 129.26 25.1667 129.067 24.7969C128.88 24.4219 128.611 24.1276 128.262 23.9141C127.913 23.7005 127.512 23.5938 127.059 23.5938C126.585 23.5938 126.163 23.7057 125.794 23.9297C125.429 24.1536 125.14 24.4557 124.926 24.8359C124.718 25.2109 124.598 25.6198 124.567 26.0625H129.356Z" fill="white"/>
<path d="M135.628 31.1719C134.821 31.1719 134.118 30.9922 133.519 30.6328C132.92 30.2734 132.459 29.7656 132.136 29.1094C131.818 28.4531 131.659 27.6927 131.659 26.8281C131.659 25.9635 131.818 25.1979 132.136 24.5312C132.459 23.8594 132.909 23.3385 133.487 22.9688C134.071 22.5938 134.743 22.4062 135.503 22.4062C136.144 22.4062 136.74 22.5495 137.292 22.8359C137.844 23.1172 138.292 23.5755 138.636 24.2109C138.985 24.8411 139.159 25.651 139.159 26.6406V27.2031H133.003C133.024 27.7917 133.146 28.2943 133.37 28.7109C133.594 29.1276 133.899 29.4453 134.284 29.6641C134.675 29.8776 135.123 29.9844 135.628 29.9844C136.107 29.9844 136.511 29.8958 136.839 29.7188C137.172 29.5365 137.425 29.3021 137.597 29.0156H139.034C138.899 29.4427 138.672 29.8203 138.355 30.1484C138.042 30.4714 137.651 30.724 137.183 30.9062C136.719 31.0833 136.201 31.1719 135.628 31.1719ZM137.8 26.0625C137.8 25.5885 137.704 25.1667 137.511 24.7969C137.323 24.4219 137.055 24.1276 136.706 23.9141C136.357 23.7005 135.956 23.5938 135.503 23.5938C135.029 23.5938 134.607 23.7057 134.237 23.9297C133.873 24.1536 133.584 24.4557 133.37 24.8359C133.162 25.2109 133.042 25.6198 133.011 26.0625H137.8Z" fill="white"/>
<path d="M141.853 31H140.509V22.5156H141.806V23.8438H141.916C142.129 23.3906 142.439 23.0391 142.845 22.7891C143.257 22.5339 143.775 22.4062 144.4 22.4062C144.983 22.4062 145.488 22.526 145.916 22.7656C146.343 23 146.673 23.3568 146.908 23.8359C147.142 24.3151 147.259 24.9062 147.259 25.6094V31H145.916V25.7031C145.916 25.0469 145.746 24.5339 145.408 24.1641C145.069 23.7943 144.598 23.6094 143.994 23.6094C143.577 23.6094 143.207 23.7005 142.884 23.8828C142.561 24.0599 142.309 24.3229 142.126 24.6719C141.944 25.0156 141.853 25.4271 141.853 25.9062V31Z" fill="white"/>
<path d="M149.969 31.0938C149.786 31.0938 149.617 31.0495 149.461 30.9609C149.31 30.8672 149.187 30.7422 149.094 30.5859C149.005 30.4297 148.963 30.2604 148.969 30.0781C148.963 29.901 149.005 29.737 149.094 29.5859C149.187 29.4297 149.31 29.3073 149.461 29.2188C149.617 29.125 149.786 29.0781 149.969 29.0781C150.146 29.0781 150.31 29.125 150.461 29.2188C150.617 29.3073 150.739 29.4297 150.828 29.5859C150.922 29.737 150.969 29.901 150.969 30.0781C150.969 30.2604 150.922 30.4297 150.828 30.5859C150.739 30.7422 150.617 30.8672 150.461 30.9609C150.31 31.0495 150.146 31.0938 149.969 31.0938Z" fill="white"/>
<path d="M135.072 63.0717L139.971 67.9706M144.863 63.0782L139.971 67.9706M139.971 67.9706L139.96 51.9022C139.957 47.4881 136.379 43.9105 131.965 43.9075L130.094 43.9063" stroke="white" stroke-linecap="round" stroke-linejoin="bevel"/>
</svg>
